<?xml version="1.0" encoding="utf-8"?>
<!-- Generator: Adobe Illustrator 19.2.1, SVG Export Plug-In . SVG Version: 6.00 Build 0)  -->
<svg version="1.1" id="Layer_1" xmlns="http://www.w3.org/2000/svg" xmlns:xlink="http://www.w3.org/1999/xlink" x="0px" y="0px"
	 viewBox="0 0 570 351" style="enable-background:new 0 0 570 351;" xml:space="preserve">
<style type="text/css">
	.st0{fill:#231F20;}
	.st1{fill:#FFFFFF;}
	.st2{font-family:'DancingScript';}
	.st3{font-size:162.3728px;}
	.st4{fill:#7C7977;}
	.st5{fill:#7BB276;}
</style>
<g>
	<path class="st0" d="M80.1,311.1c-2.7-1.1-4.8-2.6-6.4-4.5c-1.6-1.9-2.4-4.3-2.4-7.2c0-2.4,0.4-4.9,1.1-7.5
		c-3.9,5.4-8.4,10-13.5,13.6c-5.1,3.7-10.8,5.5-17.2,5.5c-4.2,0-8.2-0.9-11.9-2.7c-3.7-1.8-7-4.4-9.7-7.9c-2.7-3.5-4.8-7.7-6.4-12.7
		c-1.6-5-2.4-10.7-2.4-17.1c0-6.9,0.9-14,2.8-21.2c1.9-7.2,4.4-14.2,7.6-20.9c3.2-6.7,7-13,11.3-18.9c4.3-5.9,9-11,14-15.4
		s10.1-7.8,15.3-10.4c5.2-2.5,10.5-3.8,15.7-3.8c3,0,5.6,0.5,7.8,1.5c2.2,1,3.9,2.4,5.3,4.1c1.4,1.7,2.3,3.6,2.9,5.8
		c0.6,2.2,0.9,4.5,0.9,6.9c0,2.8-0.4,5.6-1.1,8.4c-0.8,2.8-1.8,5.4-3.1,7.6c-1.3,2.3-2.8,4.1-4.5,5.5c-1.7,1.4-3.6,2.1-5.5,2.1
		c-0.9,0-1.8-0.3-2.7-0.8c-0.9-0.5-1.7-1.5-2.4-2.9c1.1-0.8,2.4-2.1,3.8-4c1.5-1.9,2.8-4,4.1-6.3c1.3-2.3,2.4-4.8,3.3-7.4
		c0.9-2.6,1.4-5,1.4-7.1c0-2.5-0.7-4.5-2.2-6.2c-1.5-1.6-4-2.4-7.6-2.4c-3.9,0-7.9,1.4-12.1,4.1c-4.2,2.7-8.3,6.4-12.3,11
		c-4.1,4.6-7.9,9.9-11.4,15.9c-3.6,6-6.7,12.3-9.5,18.9c-2.8,6.6-4.9,13.3-6.5,20.1c-1.6,6.8-2.4,13.1-2.4,19.1
		c0,9.9,2.1,17.6,6.2,23.1s9.3,8.4,15.6,8.4c4.2,0,8.2-1.6,12-4.7c3.8-3.1,7.1-7.1,10-11.9c2.9-4.8,5.2-10.1,7.1-15.9
		c1.8-5.8,3-11.3,3.4-16.6c-4-0.9-7.3-1.4-9.7-1.7c-2.5-0.3-4.8-0.4-7-0.4c-1.5,0-3,0-4.5,0.1c-1.5,0.1-3.3,0.1-5.4,0.1
		c0.8-3.1,2.1-5.3,4-6.6c1.9-1.2,4.2-1.9,7.1-1.9c2.3,0,4.6,0.3,7.1,1c2.4,0.6,4.9,1.4,7.3,2.2c2.4,0.8,4.8,1.7,7,2.5
		c2.2,0.9,4.2,1.5,6.1,1.9l-1.1,5.2c-2.1,5.4-3.7,10.1-5,14.2c-1.3,4.1-2.3,7.7-3,10.8c-0.7,3.1-1.2,5.9-1.5,8.2
		c-0.3,2.3-0.4,4.5-0.4,6.4c0,2.2,0.1,4.3,0.2,6.3C79.9,306.8,80,308.9,80.1,311.1z"/>
	<path class="st0" d="M97,276.4c1.5-2.8,3.5-6.9,5.9-12.3c2.4-5.4,4.8-11.6,7.2-18.5c-1.1-1.1-1.6-2.4-1.6-3.9
		c0-1.6,0.3-3.1,0.8-4.5c0.5-1.4,1.2-2.5,1.9-3.5c0.8-1,1.5-1.7,2.3-2.3c0.8-0.5,1.4-0.8,1.8-0.8c1.2,0,1.9,0.5,2,1.5
		c0.2,1,0.2,1.8,0.2,2.4c0,0.3-0.1,0.8-0.2,1.4c-0.2,0.6-0.4,1.2-0.6,1.9c-0.3,0.7-0.5,1.2-0.6,1.8c-0.2,0.5-0.2,0.9-0.2,1
		c0,1.5,0.9,2.9,2.6,4.1c1.7,1.2,3.6,2.7,5.7,4.2c2.1,1.6,3.9,3.5,5.7,5.7c1.7,2.2,2.6,5.1,2.6,8.5c0,2.5-0.4,5-1.3,7.5
		c-0.9,2.5-1.8,5-2.8,7.4c-1,2.4-1.9,4.6-2.8,6.7c-0.9,2.1-1.3,4-1.3,5.8c0,1.9,0.5,3.2,1.5,3.9c1,0.7,2.1,1,3.4,1
		c2.6,0,5.3-0.8,8.1-2.4c2.8-1.6,5.5-3.7,8-6.1c2.5-2.4,4.8-5.1,6.9-7.9c2.1-2.8,3.6-5.4,4.5-7.8l2.1,1.6c-1.5,3.5-3.5,6.9-5.9,10.3
		s-5.2,6.4-8.2,9.1c-3,2.7-6.2,4.8-9.6,6.5c-3.4,1.7-6.8,2.5-10.2,2.5c-3.7,0-6.6-1-8.7-2.9c-2.1-1.9-3.2-4.5-3.2-7.6
		c0-2.4,0.5-4.9,1.4-7.5s1.9-5.3,3.1-8c1.1-2.7,2.2-5.2,3.1-7.8c0.9-2.5,1.4-4.9,1.4-7.1c0-1.7-0.3-3.2-0.8-4.5
		c-0.5-1.2-1.3-2.3-2.2-3.2c-0.9-0.9-1.9-1.7-3-2.4c-1.1-0.7-2.1-1.4-3.1-2.2c-1.3,3.2-2.6,6.4-3.9,9.5c-1.3,3.1-2.6,6-3.9,8.7
		c-1.3,2.7-2.5,5.2-3.7,7.5c-1.1,2.3-2.1,4.1-3,5.5L97,276.4z"/>
	<path class="st0" d="M199,262.5c0.4,0.1,1,0.3,1.8,0.5c0.8,0.2,1.5,0.5,2.2,0.8c0.7,0.3,1.3,0.7,1.8,1.1c0.5,0.4,0.7,1,0.7,1.6
		c0,1-0.5,2.3-1.5,4.1c-1,1.7-2.1,3.7-3.2,5.8c-1.2,2.1-2.3,4.3-3.2,6.5s-1.5,4.3-1.5,6.2c0,1.6,0.4,3.2,1.3,4.8
		c0.9,1.6,2.3,2.4,4.2,2.4c2.9,0,6.8-2.1,11.5-6.3c4.8-4.2,9.6-10.7,14.5-19.3l1.6,1.6c-1.7,4.4-3.8,8.5-6.3,12.1
		c-2.5,3.6-5.2,6.7-8,9.3c-2.9,2.6-5.8,4.6-8.8,6c-3,1.4-6,2.1-8.9,2.1c-4,0-7-1.2-8.8-3.6c-1.9-2.4-2.8-5-2.8-7.8
		c0-1.3,0.2-2.9,0.5-4.7c-4.8,6.3-9,11-12.8,14.1c-3.8,3.1-7.7,4.7-11.7,4.7c-3.5,0-6.3-1.1-8.6-3.3c-2.3-2.2-3.4-5.6-3.4-10.2
		c0-3.2,0.6-6.7,1.9-10.4c1.2-3.7,2.9-7.4,5.1-11.1c2.2-3.7,4.7-7.3,7.6-10.7c2.9-3.4,6-6.4,9.3-9c3.3-2.6,6.7-4.7,10.3-6.3
		c3.6-1.6,7.1-2.4,10.7-2.4c4.2,0,7.7,1.1,10.6,3.3c2.8,2.2,4.2,5.2,4.2,8.9c0,2.7-0.7,4.5-2.2,5.5c-1.5,1-3.4,1.5-5.8,1.5
		c0.5-1.9,0.8-3.8,0.8-5.7c0-2.5-0.6-4.6-1.8-6.4c-1.2-1.8-3.2-2.7-6.2-2.7c-2.6,0-5.2,0.8-7.8,2.3c-2.6,1.5-5.1,3.5-7.6,6.1
		c-2.5,2.5-4.8,5.4-7,8.7c-2.2,3.2-4.1,6.6-5.8,10c-1.7,3.4-3,6.8-3.9,10.1c-0.9,3.3-1.4,6.3-1.4,8.9c0,4.2,1.5,6.3,4.4,6.3
		c2.5,0,5.3-1.3,8.4-3.9c3.1-2.6,6.3-5.7,9.4-9.4c3.1-3.7,6.1-7.6,9-11.6C194.6,269,197,265.5,199,262.5z"/>
	<path class="st0" d="M218.3,295.8c0-0.4,0.6-2.1,1.8-5c1.2-2.9,2.5-6.4,3.9-10.4c1.4-4,2.7-8.2,4-12.6c1.2-4.4,1.9-8.4,1.9-11.9
		c0.6-0.8,1.7-1.5,3.1-2.3c1.4-0.8,2.9-1.1,4.4-1.1c2.9,0,4.4,1.4,4.4,4.2c0,1.7-0.5,4.6-1.5,8.6c-1,4-2.2,8.3-3.7,12.8
		c2.2-3.2,4.5-6.6,7.1-10s5.4-6.5,8.3-9.3c2.9-2.8,5.9-5,9-6.7c3.1-1.7,6.2-2.6,9.3-2.6c2.1,0,3.8,0.4,5.4,1.2
		c1.5,0.8,2.8,1.9,3.7,3.3c1,1.4,1.7,3,2.2,4.7c0.5,1.7,0.7,3.5,0.7,5.4c0,2.5-0.4,4.9-1.1,7.1c-0.7,2.3-1.5,4.4-2.3,6.5
		c-0.8,2.1-1.6,4.1-2.3,6.1c-0.7,2-1.1,4-1.1,5.9c0,2.3,0.5,3.9,1.4,4.8c0.9,0.9,2.1,1.4,3.5,1.4c2.1,0,4.1-0.8,6.2-2.3
		c2.1-1.5,4.1-3.5,6-5.9c1.9-2.4,3.8-5.1,5.6-8.1c1.8-3,3.4-6,5-9l1.8,2.1c-1.7,4-3.6,7.7-5.6,11c-2,3.4-4.2,6.3-6.5,8.7
		c-2.3,2.4-4.8,4.3-7.5,5.7c-2.7,1.3-5.5,2-8.5,2c-3.8,0-6.6-1-8.5-2.9c-1.9-1.9-2.8-4.4-2.8-7.5c0-1.6,0.2-3.4,0.7-5.2
		c0.5-1.8,1-3.7,1.6-5.7c0.6-1.9,1.1-3.9,1.6-5.8c0.5-2,0.7-3.9,0.7-5.8c0-3-0.6-5.1-1.9-6.3c-1.2-1.1-2.8-1.7-4.6-1.7
		c-3.4,0-6.8,1.4-10.2,4.2c-3.5,2.8-6.8,6.3-10.1,10.5c-3.2,4.2-6.3,8.6-9.2,13.2c-2.9,4.6-5.3,8.7-7.4,12.3c-1.7,0-3.4-0.3-5-0.9
		C220.4,297.9,219.2,297,218.3,295.8z"/>
	<path class="st0" d="M348.2,245.8c-1.2-1.6-3.2-2.4-6.2-2.4s-5.8,0.8-8.5,2.3s-5.4,3.5-7.8,6c-2.4,2.5-4.7,5.3-6.7,8.4
		c-2.1,3.1-3.8,6.3-5.3,9.5c-1.5,3.2-2.6,6.3-3.4,9.2c-0.8,2.9-1.2,5.4-1.2,7.5c0,2.5,0.5,4.4,1.5,5.8c1,1.4,2.5,2,4.3,2
		c2.2,0,4.7-1.1,7.7-3.2c3-2.1,6.1-5.1,9.3-9c3.2-3.9,6.4-8.6,9.5-14c3.1-5.5,6-11.6,8.6-18.4c3-7.8,6.2-15.8,9.4-24
		c3.2-8.2,6.4-15.7,9.6-22.4c3.1-6.7,6.1-12.2,8.9-16.5c2.8-4.3,5.4-6.4,7.6-6.4c0.9,0,1.6,0.4,2.3,1.1c0.6,0.7,1,1.6,1,2.7
		c0,1.7-0.9,4.7-2.8,8.8c-1.8,4.2-4.1,9.1-6.9,14.9c-2.8,5.8-5.8,12.1-9,18.9c-3.2,6.8-6.3,13.7-9,20.7c-2.8,7-5.1,13.8-6.9,20.5
		c-1.8,6.7-2.8,12.6-2.8,17.9c0,3.1,0.2,5.4,0.5,6.9c0.3,1.5,1.4,2.2,3.2,2.2c1.6,0,3.5-0.6,5.8-1.7c2.2-1.1,4.5-2.7,6.7-4.8
		c2.3-2.1,4.5-4.6,6.7-7.6c2.2-3,4.1-6.3,5.8-10l1.9,1.5c-1.6,4.2-3.7,8.1-6.1,11.6c-2.4,3.5-5.1,6.6-7.9,9.2
		c-2.8,2.6-5.8,4.6-8.8,6.1c-3.1,1.5-6,2.2-8.7,2.2c-2.1,0-3.8-0.4-5.1-1.1c-1.4-0.8-2.4-1.7-3.2-2.8c-0.8-1.1-1.4-2.4-1.8-3.9
		c-0.4-1.5-0.6-2.9-0.6-4.3c0-1.8,0.3-4.2,0.8-7.2c0.5-3,1.3-6.4,2.3-10.1c-2.6,4.3-5.3,8.3-8.2,12c-2.9,3.7-5.7,6.9-8.6,9.6
		c-2.9,2.7-5.7,4.8-8.4,6.3c-2.8,1.5-5.4,2.3-7.9,2.3c-1.4,0-2.8-0.3-4.2-0.8c-1.4-0.5-2.7-1.4-3.9-2.4c-1.2-1.1-2.2-2.5-2.9-4.2
		c-0.8-1.7-1.1-3.8-1.1-6.2c0-3,0.6-6.4,1.9-10c1.2-3.6,2.9-7.3,5-11c2.1-3.7,4.6-7.3,7.4-10.7c2.8-3.5,5.8-6.5,9.1-9.2
		c3.2-2.6,6.6-4.8,10.1-6.4c3.5-1.6,6.9-2.4,10.2-2.4c4.8,0,7.1,1.7,7.1,5c0,0.4,0,0.8-0.1,1.1C348.4,245,348.3,245.4,348.2,245.8z"
		/>
</g>
<text transform="matrix(1 0 0 1 377.1157 289.1758)" class="st1 st2 st3"> </text>
<g>
	<path d="M408.1,239.7c0.1-2.1,0.7-3.8,1.9-5.2c1.1-1.4,2.6-2.6,4.5-3.5c1.9-0.9,4.1-1.6,6.7-1.9c2.5-0.4,5.3-0.6,8.2-0.7
		c3-8.3,6.1-16.5,9.3-24.4c3.2-8,6.4-15.2,9.5-21.8c-1.1-0.1-2.1-0.2-3.2-0.2c-1-0.1-2.1-0.1-3.2-0.1c-5.2,0-9.5,0.4-12.8,1.2
		c-3.4,0.8-6,2-8,3.7c-1.9,1.6-3.3,3.7-4.1,6.2c-0.8,2.5-1.1,5.4-1.1,8.8c0,2.5,0.2,4.7,0.5,6.7c0.3,1.9,0.9,4,1.6,6.2
		c-3.8-0.7-6.5-2.1-8.2-4.2c-1.7-2.2-2.5-5-2.5-8.4c0-4.2,1.2-8.1,3.5-11.6c2.3-3.5,5.5-6.5,9.6-9c4.1-2.5,8.8-4.4,14.2-5.8
		c5.4-1.4,11.2-2.1,17.4-2.1c5.7,0,11.3,0.4,16.6,1.2c5.3,0.8,10.6,1.2,15.8,1.2c4.3,0,8.3-0.5,12-1.6c-4,4.5-7.4,7.6-10.1,9.1
		c-2.7,1.5-5.5,2.3-8.3,2.3c-2.5,0-5.7-0.3-9.7-1c-4-0.6-8.4-1.2-13.4-1.8c-1.1,2.7-2.2,5.8-3.5,9.3c-1.2,3.5-2.5,7.3-3.9,11.3
		c-1.4,4-2.7,8.2-4.1,12.5c-1.4,4.3-2.8,8.6-4.1,12.8c5.5,0.3,10.7,0.8,15.4,1.5c4.8,0.7,9.1,1,13,1.1c-0.9,1.3-1.8,2.3-2.9,3
		c-1.1,0.7-2.7,1.2-4.8,1.5c-2.1,0.3-5,0.6-8.7,0.7c-3.7,0.2-8.5,0.3-14.5,0.4l-7.1,24.2c-3.2,10.9-5.4,19.8-6.6,26.5
		c-1.1,6.7-1.8,12-1.9,15.9c-2.5-0.2-4.5-0.7-5.9-1.4c-1.5-0.7-2.6-1.6-3.3-2.7c-0.8-1.1-1.2-2.4-1.5-3.8c-0.2-1.5-0.3-3.1-0.3-5
		c0-2.9,0.5-6.4,1.5-10.3c1-4,2.2-8.3,3.7-12.9c1.5-4.7,3.2-9.5,5.1-14.6c1.9-5.1,3.8-10.2,5.6-15.3c-1.9,0.2-3.9,0.4-5.8,0.6
		c-1.9,0.2-4.2,0.5-6.7,0.8L408.1,239.7z"/>
</g>
<g>
	<path d="M483.1,234.1c1,0,1.8,0.3,2.5,0.9c0.7,0.6,1.1,1.5,1.1,2.7c0,1.3-0.9,3.4-2.7,6.4s-3.7,6.3-5.8,10.1
		c-2.1,3.7-4,7.7-5.8,11.9c-1.7,4.2-2.6,8.1-2.6,11.9c0,3.9,0.6,6.5,1.9,7.8c1.3,1.3,3.3,1.9,6,1.9c1.8,0,3.7-0.4,5.7-1.3
		c1.9-0.9,4-2.3,6.1-4.2c2.1-1.9,4.3-4.5,6.5-7.6c2.2-3.1,4.5-7,6.7-11.7l1.5,1.6c-1.6,4.7-3.6,8.8-5.9,12.4
		c-2.3,3.6-4.9,6.7-7.7,9.1c-2.8,2.4-5.8,4.3-8.9,5.5c-3.1,1.2-6.3,1.9-9.4,1.9c-4.2,0-7.4-1.3-9.4-4c-2.1-2.6-3.1-5.9-3.1-9.7
		c0-2.1,0.3-4.6,1-7.6c0.6-3,1.5-6.3,2.7-9.7c1.1-3.4,2.4-6.8,3.9-10.1c1.5-3.4,3.1-6.4,4.8-9.1c1.7-2.7,3.5-4.9,5.4-6.6
		C479.4,235,481.3,234.1,483.1,234.1z M491.8,219c-1.8,0-3.4-0.4-4.7-1.3c-1.3-0.9-1.9-2.2-1.9-4.1c0-1.1,0.4-2.1,1.1-3.2
		c0.8-1,1.7-1.9,2.8-2.8c1.1-0.8,2.4-1.4,3.8-1.9c1.4-0.4,2.8-0.6,4.1-0.6c1.6,0,2.9,0.4,3.9,1.1c1,0.8,1.5,2.1,1.5,3.9
		c0,1-0.3,2-0.9,3.1c-0.6,1.1-1.4,2-2.4,2.8c-1,0.8-2.2,1.5-3.4,2C494.3,218.8,493.1,219,491.8,219z"/>
	<path d="M500,268.6c1.5-2.8,3.5-6.9,5.9-12.3c2.4-5.4,4.8-11.6,7.2-18.5c-1.1-1.1-1.6-2.4-1.6-3.9c0-1.6,0.3-3.1,0.8-4.5
		c0.5-1.4,1.2-2.5,1.9-3.5c0.8-1,1.5-1.7,2.3-2.3c0.8-0.5,1.4-0.8,1.8-0.8c1.2,0,1.9,0.5,2,1.5c0.2,1,0.2,1.8,0.2,2.4
		c0,0.3-0.1,0.8-0.2,1.4c-0.2,0.6-0.4,1.2-0.6,1.9c-0.3,0.7-0.5,1.2-0.6,1.8c-0.2,0.5-0.2,0.9-0.2,1c0,1.5,0.9,2.9,2.6,4.1
		c1.7,1.2,3.6,2.7,5.7,4.2s4,3.5,5.7,5.7c1.7,2.2,2.6,5.1,2.6,8.5c0,2.5-0.4,5-1.3,7.5c-0.9,2.5-1.8,5-2.8,7.4
		c-1,2.4-1.9,4.6-2.8,6.7c-0.9,2.1-1.3,4-1.3,5.8c0,1.9,0.5,3.2,1.5,3.9c1,0.7,2.1,1,3.4,1c2.6,0,5.3-0.8,8.1-2.4
		c2.8-1.6,5.5-3.7,8-6.1c2.5-2.4,4.8-5.1,6.9-7.9c2.1-2.8,3.6-5.4,4.5-7.8l2.1,1.6c-1.5,3.5-3.5,6.9-5.9,10.3
		c-2.4,3.4-5.2,6.4-8.2,9.1c-3,2.7-6.2,4.8-9.6,6.5s-6.8,2.5-10.2,2.5c-3.7,0-6.6-1-8.7-2.9c-2.1-1.9-3.2-4.5-3.2-7.6
		c0-2.4,0.5-4.9,1.4-7.5c0.9-2.7,1.9-5.3,3.1-8c1.1-2.7,2.2-5.2,3.1-7.8c0.9-2.5,1.4-4.9,1.4-7.1c0-1.7-0.3-3.2-0.8-4.5
		c-0.5-1.2-1.3-2.3-2.2-3.2c-0.9-0.9-1.9-1.7-3-2.4c-1.1-0.7-2.1-1.4-3.1-2.2c-1.3,3.2-2.6,6.4-3.9,9.5c-1.3,3.1-2.6,6-3.9,8.7
		c-1.3,2.7-2.5,5.2-3.7,7.5c-1.1,2.3-2.1,4.1-3,5.5L500,268.6z"/>
</g>
<g>
	<path class="st4" d="M147.2,327.2l-1.6,0.1c-0.1-1.2-0.2-2.1-0.4-2.9c-0.2-0.8-0.4-1.4-0.7-1.8c-0.3-0.5-0.7-0.8-1.1-1
		c-0.4-0.2-0.9-0.3-1.5-0.3h-2.3v14.5c0,0.8,0.8,1.2,2.3,1.2v1.5h-8.6V337c1.5,0,2.3-0.4,2.3-1.2v-14.5h-2.4c-0.6,0-1.1,0.1-1.5,0.3
		c-0.4,0.2-0.8,0.5-1.1,1c-0.3,0.5-0.5,1.1-0.7,1.8c-0.2,0.8-0.3,1.7-0.4,2.9l-1.6-0.1v-7.9h19.4V327.2z"/>
	<path class="st4" d="M190.3,336.2c0.2,0.5,0.9,0.8,2.1,0.8v1.5h-9.5V337h2.3c0.5,0,0.8-0.2,0.8-0.5c0-0.1,0-0.1-0.1-0.3l-1-2.8h-8
		l-1,2.6c0,0.1-0.1,0.2-0.1,0.3c0,0.4,0.4,0.7,1.1,0.7h1.6v1.5h-7.1V337c0.7,0,1.3-0.1,1.6-0.2c0.3-0.1,0.6-0.3,0.6-0.5l6.5-17h3.8
		L190.3,336.2z M177.5,331.5h6.6l-3.3-9.1L177.5,331.5z"/>
	<path class="st4" d="M230.5,319.3c1.1,0,2.1,0.1,3,0.2c0.9,0.2,1.7,0.5,2.3,0.9c0.6,0.4,1.2,1,1.5,1.7c0.4,0.7,0.5,1.7,0.5,2.8
		c0,1.1-0.2,2.1-0.5,2.9c-0.4,0.8-0.9,1.4-1.5,1.8c-0.6,0.5-1.4,0.8-2.4,1c-0.9,0.2-1.9,0.3-3,0.3h-4v5c0,0.8,1,1.2,2.9,1.2v1.5
		h-9.1V337c1.5,0,2.3-0.4,2.3-1.2V322c0-0.8-0.8-1.2-2.3-1.2v-1.5H230.5z M226.5,321.4v7.3h3.6c1.4,0,2.4-0.3,3-1
		c0.6-0.6,0.9-1.6,0.9-2.8c0-1.1-0.3-1.9-0.9-2.5c-0.6-0.6-1.6-0.9-3-0.9H226.5z"/>
	<path class="st4" d="M285.8,335.7c0,0.9-0.3,1.6-0.8,2.2c-0.5,0.6-1.4,0.9-2.6,0.9c-1.3,0-2.3-0.3-2.9-0.9
		c-0.6-0.6-0.9-1.4-0.9-2.3v-1.9c0-1.5-0.2-2.5-0.6-3.2c-0.4-0.7-1.2-1-2.3-1h-3.9v6.5c0,0.8,1,1.2,2.9,1.2v1.5h-9.1V337
		c1.5,0,2.3-0.4,2.3-1.2V322c0-0.8-0.8-1.2-2.3-1.2v-1.5h11.1c0.8,0,1.7,0.1,2.5,0.2c0.8,0.1,1.5,0.3,2.2,0.7
		c0.6,0.3,1.1,0.8,1.5,1.5c0.4,0.6,0.6,1.5,0.6,2.5c0,0.7-0.1,1.3-0.3,1.8c-0.2,0.5-0.5,0.9-0.8,1.3c-0.3,0.4-0.7,0.7-1.2,0.9
		c-0.4,0.2-0.9,0.4-1.3,0.5c0.4,0.2,0.8,0.4,1.2,0.6c0.4,0.3,0.7,0.6,0.9,1s0.4,0.9,0.6,1.4c0.1,0.6,0.2,1.2,0.2,2v2.4
		c0,0.4,0.1,0.7,0.2,0.8s0.4,0.3,0.6,0.3c0.3,0,0.5-0.1,0.6-0.3c0.2-0.2,0.2-0.5,0.2-0.8v-1.2h1.4V335.7z M271.9,321.4v6.1h4.3
		c1,0,1.8-0.2,2.4-0.7c0.6-0.5,0.8-1.3,0.8-2.4c0-2-1.1-3-3.2-3H271.9z"/>
	<path class="st4" d="M323.4,318.9c1.4,0,2.7,0.2,3.8,0.5c1.2,0.3,2.2,0.9,3.1,1.7c0.9,0.8,1.5,1.8,2,3.1c0.5,1.3,0.7,2.8,0.7,4.7
		c0,1.5-0.2,2.9-0.6,4.2c-0.4,1.2-1,2.3-1.9,3.2c-0.8,0.9-1.9,1.5-3.1,2c-1.3,0.5-2.7,0.7-4.4,0.7c-1.4,0-2.6-0.2-3.8-0.5
		c-1.2-0.3-2.2-0.9-3-1.6c-0.9-0.8-1.5-1.8-2-3c-0.5-1.2-0.7-2.7-0.7-4.5c0-1.6,0.2-3.1,0.6-4.3c0.4-1.3,1-2.4,1.8-3.3
		c0.8-0.9,1.8-1.6,3.1-2.1C320.1,319.1,321.6,318.9,323.4,318.9z M323.5,321c-1.1,0-2,0.2-2.8,0.5c-0.8,0.3-1.4,0.8-1.9,1.4
		c-0.5,0.6-0.9,1.3-1.1,2.2c-0.2,0.9-0.3,1.9-0.3,3c0,1.7,0.1,3.2,0.4,4.3c0.3,1.1,0.6,2,1.1,2.6c0.5,0.6,1.1,1.1,1.8,1.3
		c0.7,0.3,1.5,0.4,2.3,0.4c1.1,0,2.1-0.2,2.9-0.5c0.8-0.3,1.4-0.8,1.9-1.5c0.5-0.6,0.8-1.5,1-2.4c0.2-1,0.3-2.1,0.3-3.3
		c0-1.6-0.1-2.9-0.4-4c-0.3-1-0.6-1.9-1.1-2.5c-0.5-0.6-1.1-1-1.7-1.3C325.1,321.1,324.3,321,323.5,321z"/>
	<path class="st4" d="M370.8,318.9c1.4,0,2.7,0.2,3.8,0.5c1.2,0.3,2.2,0.9,3.1,1.7c0.9,0.8,1.5,1.8,2,3.1c0.5,1.3,0.7,2.8,0.7,4.7
		c0,1.5-0.2,2.9-0.6,4.2c-0.4,1.2-1,2.3-1.9,3.2c-0.8,0.9-1.9,1.5-3.1,2c-1.3,0.5-2.7,0.7-4.4,0.7c-1.4,0-2.6-0.2-3.8-0.5
		c-1.2-0.3-2.2-0.9-3-1.6c-0.9-0.8-1.5-1.8-2-3c-0.5-1.2-0.7-2.7-0.7-4.5c0-1.6,0.2-3.1,0.6-4.3c0.4-1.3,1-2.4,1.8-3.3
		c0.8-0.9,1.8-1.6,3.1-2.1C367.6,319.1,369.1,318.9,370.8,318.9z M371,321c-1.1,0-2,0.2-2.8,0.5c-0.8,0.3-1.4,0.8-1.9,1.4
		c-0.5,0.6-0.9,1.3-1.1,2.2c-0.2,0.9-0.3,1.9-0.3,3c0,1.7,0.1,3.2,0.4,4.3c0.3,1.1,0.6,2,1.1,2.6c0.5,0.6,1.1,1.1,1.8,1.3
		c0.7,0.3,1.5,0.4,2.3,0.4c1.1,0,2.1-0.2,2.9-0.5c0.8-0.3,1.4-0.8,1.9-1.5s0.8-1.5,1-2.4c0.2-1,0.3-2.1,0.3-3.3c0-1.6-0.1-2.9-0.4-4
		c-0.3-1-0.6-1.9-1.1-2.5c-0.5-0.6-1.1-1-1.7-1.3C372.5,321.1,371.8,321,371,321z"/>
</g>
<g>
	<path class="st4" d="M433.7,320.8c-1.6,0-2.3,0.4-2.3,1.2v13.9c0,0.8,0.8,1.2,2.3,1.2v1.5h-8.5V337c1.5,0,2.3-0.4,2.3-1.2v-13.6
		l-5.7,16.2h-3.4l-5.7-16.2v13.6c0,0.8,0.8,1.2,2.3,1.2v1.5h-6.8V337c1.5,0,2.3-0.4,2.3-1.2V322c0-0.8-0.8-1.2-2.3-1.2v-1.5h7.7
		l5.1,15.1l5.1-15.1h7.4V320.8z"/>
</g>
<path class="st5" d="M297.5,120.2c0.4,1.4,0.7,2.6,1.1,3.8c2,7.3,3.6,14.6,4.8,22.1c0.5,3.3,0.9,6.6,1.2,9.9
	c0.3,3.2,0.4,6.4,0.5,9.6c0.2,8.4-0.6,16.8-2.7,25c-2.2,8.3-5.6,16-11,22.8c-4.1,5.3-9,9.6-14.9,12.8c-0.4,0.2-0.7,0.2-1-0.2
	c-6.1-7.5-10.4-15.9-12.3-25.4c-0.6-2.9-0.9-5.8-1-8.8c-0.2-7.1,0.9-14,2.9-20.7c1.5-5,3.5-9.8,5.8-14.5c3.9-7.9,8.8-15.2,14.2-22.1
	c3.4-4.3,6.9-8.5,10.8-12.4C296.2,121.5,296.8,120.9,297.5,120.2"/>
<path class="st5" d="M316.5,43.7c0.2,1,0.3,1.9,0.5,2.9c0.6,4.4,1.2,8.7,1.7,13.1c0.3,3,0.5,6.1,0.7,9.2c0.4,5.3,0.4,10.5,0.3,15.8
	c-0.1,3.4-0.4,6.8-0.6,10.2c-0.5,5.9-1.5,11.8-3,17.5c-0.6,2.2-1.3,4.4-1.9,6.6c-0.1,0.2-0.3,0.5-0.5,0.6c-2.5,1.3-5,2.5-7.5,3.8
	c-0.1,0-0.2,0.1-0.3,0.1c-1.6-5.3-3.2-10.7-4.9-16.1c-4.4,3.6-8.3,7.4-12.2,11.5c0-0.7,0-1.3,0-1.9c0-2,0.1-4.1-0.1-6.1
	c-0.2-2.7-0.5-5.3-1-8c-1.1-6.2-3.1-12.1-5.6-17.8c-0.3-0.7-0.6-1.4-1-2.1c-0.2-0.4-0.2-0.7,0.1-1.1c2.3-3.3,4.5-6.7,6.9-9.9
	c3.1-4.2,6.6-8.1,10.2-11.9c5.6-5.8,11.5-11.1,17.8-16.1C316.2,43.8,316.4,43.8,316.5,43.7"/>
<path class="st5" d="M255.3,181.7c-0.4-0.2-0.8-0.4-1.1-0.6c-3.4-1.8-6.8-3.5-10.4-4.9c-0.4-0.1-0.7-0.5-0.9-0.8
	c-3.7-6-6.3-12.4-8.4-19.1c-1.8-6.2-3.1-12.5-3.9-18.9c-0.4-2.8-0.6-5.5-0.8-8.3c-0.2-3.3-0.4-6.7-0.5-10c-0.1-2.1-0.1-4.3-0.1-6.4
	c0.1-3.5,0.3-7,0.4-10.5c0-0.1,0.1-0.2,0.1-0.4c0.2,0.1,0.3,0.1,0.4,0.2c7.3,4.6,14.3,9.5,20.9,15.1c3.4,3,6.7,6,9.9,9.2
	c4,4,7.5,8.3,10.8,12.9c0.3,0.4,0.3,0.7,0,1.1c-4.8,7.2-8.8,14.8-11.8,22.9c-2.1,5.7-3.7,11.5-4.5,17.5
	C255.4,181,255.4,181.3,255.3,181.7"/>
<path class="st5" d="M276.3,133.7c-1-1.3-2-2.6-3-3.9c-3.8-4.7-7.9-9-12.3-13.2c-4.2-4-8.7-7.6-13.3-11.1c-0.8-0.6-1.7-1.2-2.5-1.9
	c-0.2-0.2-0.5-0.5-0.5-0.8c-0.4-2.8-0.9-5.5-1.2-8.3c-0.4-3.7-0.6-7.5-0.4-11.3c0.1-3.4,0.3-6.7,0.6-10.1c0.7-7.6,2.1-15,4-22.3
	c0.1-0.2,0.1-0.4,0.2-0.7c0.2,0.2,0.3,0.3,0.4,0.4c5.6,5.5,10.8,11.3,15.5,17.6c4,5.4,7.6,11,10.6,17.1c3.3,6.8,5.7,13.9,6.8,21.3
	c0.5,3.2,0.7,6.5,0.6,9.8c-0.2,4.2-0.7,8.4-1.9,12.5c-0.1,0.2-0.1,0.4-0.2,0.6C278.6,130.7,277.5,132.2,276.3,133.7"/>
<path class="st5" d="M284.8,9.7c0.7,1.2,1.4,2.3,2.1,3.5c4.6,7.7,8.8,15.7,12,24.1c1.1,2.8,2,5.7,3.1,8.6c0.2,0.5,0.1,0.7-0.3,1
	c-2.9,2.8-5.8,5.5-8.6,8.4c-5.7,5.9-10.8,12.3-15.4,19.1c-0.1,0.1-0.2,0.2-0.4,0.5c0-0.3,0-0.5,0-0.7c0.2-2.4,0.5-4.8,0.6-7.3
	c0.2-2.8,0.3-5.7,0.2-8.5c-0.1-3.5-0.3-7-0.6-10.4c-0.5-5.9-1.5-11.8-2.7-17.7c-0.3-1.6-0.7-3.2-1.1-4.8c-0.1-0.3,0-0.7,0.1-0.9
	c3.2-5,6.7-9.8,10.4-14.4C284.5,10,284.6,9.9,284.8,9.7"/>
<path class="st5" d="M344.5,167c-0.2,0.3-0.3,0.6-0.5,0.9c-3.7,7.1-7.9,13.9-12.7,20.3c-3.1,4-6.4,7.8-10.1,11.2
	c-4.1,3.8-8.5,7.2-13.6,9.5c-2,0.9-4.1,1.6-6.1,2.4c-0.1,0.1-0.3,0.1-0.6,0.1c0.1-0.3,0.2-0.5,0.3-0.6c4.4-7.5,7.3-15.6,9-24.2
	c0.8-3.9,1.3-7.9,1.5-12c0.1-1.1,0.2-2.3,0.2-3.4c0-0.4,0.2-0.5,0.6-0.6c3.4-1.1,6.8-1.9,10.3-2.5c3.7-0.6,7.4-1,11.1-1.2
	c2-0.1,4-0.2,6-0.2c1.3,0,2.7,0.1,4,0.1C344.2,167,344.3,167,344.5,167"/>
<path class="st5" d="M337.2,118.4c-0.1,0.7-0.2,1.3-0.3,1.8c-1.6,9-3.6,17.9-6.5,26.6c-1.5,4.5-3.2,8.9-4.8,13.4
	c-0.1,0.4-0.3,0.6-0.8,0.7c-4.2,0.6-8.4,1.5-12.5,2.7c-0.1,0-0.2,0-0.4,0c-0.1-1-0.1-1.9-0.2-2.8c-0.2-3-0.4-6.1-0.7-9.1
	c-0.5-3.9-1.1-7.8-1.7-11.7c-0.5-2.9-1.2-5.8-1.8-8.6c-0.1-0.4,0-0.5,0.3-0.7c4.8-2.7,9.7-5,14.8-7.1c4.4-1.8,8.9-3.4,13.5-4.8
	C336.5,118.5,336.8,118.5,337.2,118.4"/>
<path class="st5" d="M236.5,97.5c-4.1-2.5-8.2-5-12.5-7.6c-0.9,5.7-1.5,11.3-1.7,16.9c-0.3,5.6-0.3,11.2,0,16.9
	c-0.2-0.1-0.4-0.2-0.5-0.3c-1.6-0.9-3.1-1.8-4.7-2.7c-0.3-0.2-0.5-0.5-0.6-0.8c-0.8-3.5-1.3-7.1-1.4-10.7c-0.1-2.9-0.1-5.8,0-8.6
	c0.4-7.1,1.7-14.1,3.6-20.9c2.4-8.8,5.6-17.2,9.4-25.4c0.1-0.2,0.2-0.4,0.4-0.7c0.2,0.2,0.3,0.4,0.4,0.5c2.7,4.4,5.4,8.8,8.1,13.3
	c0.1,0.2,0.2,0.6,0.2,0.9c-0.2,2.5-0.6,5-0.7,7.5c-0.2,3.4-0.4,6.7-0.4,10.1C236,89.7,236.3,93.6,236.5,97.5"/>
<path class="st5" d="M211.5,175c2.8,0.5,5.4,1,8.1,1.5c7.3,1.5,14.4,3.5,21.3,6.3c4.6,1.9,9.1,4.1,13.3,6.7c0.4,0.2,0.6,0.5,0.6,1
	c0.1,6.2,1,12.4,3,18.3c0.1,0.2,0.1,0.4,0.2,0.6c-0.7-0.1-1.3-0.2-1.9-0.3c-6.5-1.2-12.5-3.8-18-7.3c-4.1-2.6-7.9-5.7-11.5-9
	c-5.6-5.2-10.4-11.1-14.7-17.4C211.7,175.4,211.7,175.3,211.5,175"/>
<path class="st5" d="M208.4,124.3c0.9,0.4,1.6,0.8,2.4,1.2c3.8,2.1,7.5,4.3,11.3,6.4c0.5,0.3,0.7,0.7,0.8,1.3
	c0.6,4.1,1,8.3,1.7,12.3c1.5,8.3,3.8,16.5,7.3,24.2c0.4,0.9,0.8,1.7,1.2,2.7c-1.1-0.3-2-0.6-3-0.8c-3.8-0.9-7.6-1.7-11.4-2.6
	c-0.6-0.1-0.9-0.4-1.1-0.9c-2.8-6.1-4.9-12.5-6.2-19.1c-0.8-4.1-1.5-8.2-2-12.3c-0.4-3-0.5-6-0.7-9c-0.1-0.9-0.1-1.8-0.1-2.7
	C208.4,124.8,208.4,124.7,208.4,124.3"/>
<path class="st5" d="M322.6,115.6c0.7-3.1,1.4-6.1,2-9.1c0.6-3.7,1.2-7.5,1.6-11.3c0.3-2.9,0.5-5.9,0.6-8.8
	c0.1-4.1,0.1-8.2,0.1-12.4c0-2.4-0.3-4.9-0.4-7.3c0-0.2,0.1-0.5,0.3-0.6c1.5-1.6,2.9-3.2,4.5-4.8c0.8-0.8,1.6-1.5,2.5-2.3
	c0,0,0.1,0.2,0.1,0.3c1.4,5.4,2.5,10.9,3.2,16.5c0.5,3.9,0.8,7.8,1,11.7c0.2,2.7,0.2,5.4,0.1,8.1c-0.2,5-0.7,10-1.8,14.9
	c-0.1,0.4-0.3,0.7-0.7,0.8c-4.1,1.4-8.3,2.7-12.4,4.1C323,115.5,322.8,115.6,322.6,115.6"/>
<path class="st5" d="M265.1,20.1c4.1,15,6.7,30.1,6.1,45.8c-0.1-0.1-0.2-0.2-0.3-0.3c-3.6-5-7.4-9.8-11.7-14.2
	c-3.4-3.5-6.9-7-10.3-10.4c-0.4-0.4-0.4-0.6-0.1-1.1c3.3-4.7,6.8-9.3,10.6-13.6c1.8-2,3.6-4,5.4-5.9
	C264.8,20.4,264.9,20.3,265.1,20.1"/>
<path class="st5" d="M333.9,159.9c0.4-1.1,0.8-2.2,1.2-3.2c1.9-5.3,3.6-10.7,4.9-16.2c0.8-3.4,1.6-6.8,2.4-10.1
	c0.1-0.3,0.3-0.6,0.5-0.7c3.1-1,6.2-2,9.3-3.1c0.1,0,0.1,0,0.3,0c-0.1,0.6-0.2,1.1-0.3,1.7c-1.9,8.5-4.4,16.8-7.9,24.8
	c-0.9,2.1-2,4.2-3,6.2c-0.1,0.2-0.4,0.4-0.6,0.4C338.4,159.8,336.2,159.8,333.9,159.9"/>
</svg>
