<?xml version="1.0" encoding="UTF-8"?>
<svg width="145px" height="106px" viewBox="0 0 145 106" version="1.1" xmlns="http://www.w3.org/2000/svg" xmlns:xlink="http://www.w3.org/1999/xlink">
    <!-- Generator: Sketch 43.1 (39012) - http://www.bohemiancoding.com/sketch -->
    <title>StutzmanExcavating Logo_Plain</title>
    <desc>Created with Sketch.</desc>
    <defs>
        <polygon id="path-1" points="0.259651163 105.168837 126.488013 105.168837 126.488013 0.259274091 0.259651163 0.259274091 0.259651163 105.168837"></polygon>
    </defs>
    <g id="Page-1" stroke="none" stroke-width="1" fill="none" fill-rule="evenodd">
        <g id="StutzmanExcavating-Logo_Plain">
            <g id="Group-3" transform="translate(9.441860, 0.000000)">
                <mask id="mask-2" fill="white">
                    <use xlink:href="#path-1"></use>
                </mask>
                <g id="Clip-2"></g>
                <path d="M33.0626977,5.10332558 C33.1362093,4.99204651 33.2899767,4.959 33.4005814,5.03251163 C33.4005814,5.03251163 33.5583953,5.13569767 33.8564884,5.3285814 C34.153907,5.50123256 34.5733953,5.86339535 35.0967442,6.30986047 C35.3415581,6.54725581 35.6126744,6.80960465 35.9073953,7.09623256 C36.183907,7.39297674 36.473907,7.72546512 36.7861628,8.0802093 C37.3877442,8.80251163 38.0372093,9.64486047 38.6752093,10.5998372 C39.0157907,11.069907 39.3246744,11.5770698 39.6443488,12.1064884 C39.9653721,12.6352326 40.3147209,13.1767907 40.6222558,13.7520698 C40.9324884,14.3273488 41.254186,14.9194884 41.5806047,15.5251163 C41.8908372,16.1361395 42.2037674,16.7599767 42.5153488,17.4033721 C43.1425581,18.6820698 43.7306512,20.0234884 44.3436977,21.3831163 C44.9176279,22.7548837 45.5441628,24.1387907 46.0783023,25.5503488 C46.623907,26.9544884 47.1964884,28.3579535 47.6935349,29.7519767 C48.2027209,31.1466744 48.7146047,32.5164186 49.1624186,33.8531163 C50.0944651,36.5204419 50.8970233,39.0265814 51.5572791,41.1860698 C52.2330465,43.3347674 52.7334651,45.1442326 53.1077674,46.4053953 C53.4625116,47.6712791 53.6655116,48.392907 53.6655116,48.392907 L53.6722558,48.4178605 C54.0512791,49.809186 53.2271395,51.2443488 51.8344651,51.6206744 C50.4404419,51.9983488 49.0046047,51.1728605 48.6309767,49.7828837 L48.6228837,49.7484884 C48.6228837,49.7484884 48.4266279,49.0322558 48.0887442,47.7778372 C47.7495116,46.5254419 47.3145116,44.7173256 46.7176512,42.5753721 C46.4316977,41.5010233 46.1234884,40.3349535 45.7943721,39.1021163 C45.455814,37.874 45.0983721,36.5811395 44.7294651,35.2410698 C44.3747209,33.8935814 43.955907,32.525186 43.5553023,31.1244186 C43.1702093,29.7148837 42.7230698,28.3066977 42.2914419,26.8890698 C42.0830465,26.1809302 41.8530698,25.4775116 41.6244419,24.7794884 C41.4018837,24.0794419 41.1766279,23.3814186 40.9554186,22.6894651 C40.4846744,21.3183721 40.0301163,19.9580698 39.5411628,18.6699302 C39.2929767,18.0285581 39.0616512,17.3898837 38.8350465,16.7633488 C38.5875349,16.1489535 38.346093,15.5466977 38.1147674,14.9626512 C37.8928837,14.3671395 37.6446977,13.812093 37.4167442,13.2644651 C37.190814,12.7154884 36.9642093,12.1907907 36.734907,11.6937442 C36.291814,10.6841395 35.835907,9.79727907 35.4346279,8.99876744 C35.2201628,8.61367442 35.0178372,8.25218605 34.8357442,7.90890698 C34.6347674,7.58113953 34.4472791,7.28439535 34.2800233,7.01395349 C33.93,6.49262791 33.6629302,6.08595349 33.4235116,5.81146512 C33.196907,5.53697674 33.0802326,5.38927907 33.0802326,5.38927907 C33.018186,5.31037209 33.0040233,5.19234884 33.0626977,5.10332558 Z M47.2484186,5.56327907 C47.3124884,5.44593023 47.4615349,5.40681395 47.5795581,5.47493023 C47.5795581,5.47493023 47.7400698,5.56732558 48.0395116,5.74537209 C48.1892326,5.8364186 48.3753721,5.93623256 48.5898372,6.07583721 C48.7982326,6.23634884 49.0423721,6.41372093 49.3114651,6.6194186 C49.5940465,6.82106977 49.8489767,7.07869767 50.1524651,7.34644186 C50.302186,7.48604651 50.4579767,7.62767442 50.6191628,7.77672093 C50.7634884,7.93453488 50.9138837,8.09976744 51.0743953,8.27106977 C51.7238605,8.9427907 52.3652326,9.76827907 53.0396512,10.6854884 C53.3640465,11.1474651 53.699907,11.6357442 54.0337442,12.1483023 C54.3500465,12.6682791 54.6764651,13.2064651 55.0156977,13.7594884 C55.6294186,14.8871163 56.3045116,16.0673488 56.8946279,17.3332326 C57.5191395,18.5869767 58.1011628,19.9014186 58.7047674,21.2347442 C59.2942093,22.570093 59.8694884,23.9384884 60.4258837,25.3116047 C60.9627209,26.6860698 61.525186,28.0564884 62.0323488,29.4194884 C62.5381628,30.781814 63.0439767,32.1205349 63.4992093,33.4268837 C64.4312558,36.0294651 65.2520233,38.4762558 65.9237442,40.579093 C66.6035581,42.6805814 67.1282558,44.4428372 67.512,45.6716279 C67.8795581,46.9051395 68.0879535,47.6078837 68.0879535,47.6078837 C68.4447209,48.8299302 67.7595116,50.1140233 66.5415116,50.489 C65.3174419,50.8646512 64.0185116,50.1767442 63.642186,48.9493023 L63.6354419,48.9304186 C63.6354419,48.9304186 63.4216512,48.2310465 63.0453256,47.0110233 C62.6791163,45.7903256 62.184093,44.0273953 61.5400233,41.9373721 C60.912814,39.8439767 60.1817442,37.397186 59.3973953,34.7757209 C59.0123023,33.4653256 58.5759535,32.1299767 58.161186,30.756186 C57.7457442,29.3830698 57.2817442,28.0079302 56.8453953,26.6199767 C56.3820698,25.2434884 55.9173953,23.8730698 55.4601395,22.516814 C54.9792791,21.1774186 54.5152791,19.8494884 54.0162093,18.5977674 C53.534,17.3278372 53.041,16.1246744 52.5648605,14.9862558 C52.3166744,14.4217674 52.0792791,13.8687442 51.8486279,13.3393256 C51.6044884,12.8146279 51.3643953,12.3108372 51.1377907,11.8272791 C50.9206279,11.330907 50.6609767,10.8986047 50.4411163,10.4636047 C50.2253023,10.0225349 49.9872326,9.63339535 49.7693953,9.25639535 C49.6581163,9.0695814 49.5535814,8.88816279 49.4524186,8.71146512 C49.3397907,8.5442093 49.2325581,8.38234884 49.1286977,8.22723256 C48.9209767,7.91902326 48.7375349,7.61216279 48.5446512,7.38555814 C48.3578372,7.13872093 48.1932791,6.91751163 48.0482791,6.72665116 C47.8810233,6.53781395 47.7407442,6.37595349 47.6281163,6.24713953 C47.3974651,5.98613953 47.2760698,5.84653488 47.2760698,5.84653488 C47.2072791,5.771 47.1931163,5.65567442 47.2484186,5.56327907 Z M60.4467907,5.99153488 C60.5074884,5.87283721 60.6531628,5.82495349 60.7725349,5.88767442 C60.7725349,5.88767442 60.9310233,5.97130233 61.2345116,6.12372093 C61.5393488,6.26197674 61.9635581,6.54186047 62.5213023,6.89390698 C63.0433023,7.27697674 63.6853488,7.74232558 64.342907,8.36009302 C65.0072093,8.97044186 65.7247907,9.70151163 66.426186,10.5519535 C66.6035581,10.7603488 66.7890233,10.9775116 66.9765116,11.1980465 C67.1457907,11.4266744 67.3197907,11.6586744 67.4978372,11.8953953 C67.8458372,12.3762558 68.2336279,12.8591395 68.5728605,13.385186 C68.9161395,13.9125814 69.2641395,14.4534651 69.6236047,15.005814 C69.9614884,15.5696279 70.3034186,16.1462558 70.6426512,16.7390698 C70.9946977,17.3271628 71.3076279,17.9415581 71.6374186,18.5573023 C71.9611395,19.1764186 72.3118372,19.798907 72.624093,20.4362326 C73.2445581,21.7149302 73.9156047,23.0057674 74.4834651,24.3289767 C75.0762791,25.6461163 75.6751628,26.9592093 76.2106512,28.2709535 C76.7488372,29.5833721 77.2883721,30.872186 77.7624884,32.1313256 C78.2480698,33.3911395 78.7208372,34.6071163 79.1369535,35.769814 C79.5456512,36.9338605 79.9341163,38.0358605 80.2875116,39.0515349 C80.9956512,41.0862558 81.5156279,42.8006279 81.9094884,43.9936744 C82.2837907,45.1894186 82.4948837,45.8732791 82.4948837,45.8732791 C82.8260233,46.9442558 82.2426512,48.0867209 81.1736977,48.4394419 C80.0959767,48.7948605 78.9339535,48.2101395 78.5751628,47.1276977 L78.5657209,47.0980233 C78.5657209,47.0980233 78.3458605,46.4249535 77.9546977,45.2467442 C77.5682558,44.0678605 77.0678372,42.3669767 76.3846512,40.3585581 C76.0413721,39.3523256 75.6920233,38.2570698 75.3123256,37.1011163 C74.923186,35.9512326 74.513814,34.7372791 74.0842093,33.482186 C73.6734884,32.2210233 73.1919535,30.9423256 72.7259302,29.6312558 C72.2713721,28.316814 71.7642093,27.0057442 71.2597442,25.6899535 C70.7701163,24.3640465 70.2103488,23.0799535 69.699814,21.7911395 C69.4442093,21.1477442 69.148814,20.5313256 68.8797209,19.9081628 C68.6038837,19.2917442 68.344907,18.6739767 68.0508605,18.0906047 C67.7615349,17.5018372 67.4870465,16.9184651 67.2213256,16.347907 C66.9313256,15.7908372 66.6487442,15.2432093 66.3708837,14.7137907 C66.1112326,14.1668372 65.8144884,13.6731628 65.5453953,13.178814 C65.4064651,12.9319767 65.2756279,12.6905349 65.1414186,12.4517907 C65.0024884,12.221814 64.8655814,11.9985814 64.7300233,11.774 C64.4629535,11.3282093 64.2134186,10.891186 63.9396047,10.5128372 C63.6691628,10.1284186 63.4472791,9.72646512 63.182907,9.40072093 C62.9279767,9.06755814 62.7033953,8.73911628 62.4707209,8.45451163 C62.2393953,8.17327907 62.0269535,7.91295349 61.8327209,7.67893023 C61.4287442,7.23718605 61.1097442,6.87637209 60.8575116,6.64167442 C60.6160698,6.40293023 60.4899535,6.27613953 60.4899535,6.27613953 C60.4191395,6.20397674 60.3975581,6.09 60.4467907,5.99153488 Z M73.3895581,6.12574419 C73.4664419,6.01513953 73.6134651,5.98344186 73.7267674,6.05762791 C73.7267674,6.05762791 73.8724419,6.15069767 74.1455814,6.32806977 C74.4227674,6.49397674 74.8159535,6.78330233 75.3231163,7.14546512 C75.5625349,7.33969767 75.8275814,7.55888372 76.1223023,7.79290698 C76.406907,8.033 76.7002791,8.31355814 77.0219767,8.61030233 C77.641093,9.21188372 78.3155116,9.92946512 78.987907,10.7515814 C79.3453488,11.1508372 79.6609767,11.6047209 80.0042558,12.0606279 C80.1742093,12.2933023 80.3495581,12.5266512 80.5255814,12.7653953 C80.6914884,13.0068372 80.8573953,13.2550233 81.0280233,13.5079302 C81.7037907,14.5148372 82.3620233,15.6080698 83.0229535,16.749186 C83.3486977,17.3224419 83.6542093,17.9125581 83.9772558,18.5080698 C84.3003023,19.1022326 84.6260465,19.7058372 84.924814,20.3215814 C85.541907,21.5544186 86.1731628,22.806814 86.7349535,24.0814651 C87.0236047,24.7147442 87.3149535,25.3507209 87.6036047,25.9846744 C87.8774186,26.6233488 88.1485349,27.2579767 88.4183023,27.8878837 C88.9571628,29.1503953 89.4656744,30.3994186 89.9323721,31.6167442 C90.4024419,32.8313721 90.8826279,34.0001395 91.2899767,35.1230465 C91.7040698,36.241907 92.1006279,37.2987209 92.4466047,38.28 C93.1473256,40.2432326 93.6807907,41.8935349 94.0733023,43.0427442 C94.4516512,44.1980233 94.6654419,44.8562558 94.6654419,44.8562558 C94.9770233,45.8058372 94.4637907,46.8316279 93.5142093,47.1492791 C92.5626047,47.4696279 91.5273721,46.9563953 91.2083721,46.0041163 L91.1982558,45.9737674 C91.1982558,45.9737674 90.9797442,45.3236279 90.5973488,44.1852093 C90.2149535,43.0447674 89.7138605,41.4005349 89.042814,39.4555116 C88.702907,38.4823256 88.3582791,37.422814 87.9893721,36.3039535 C87.6272093,35.1783488 87.1955814,34.0176744 86.7747442,32.8010233 C86.5589302,32.1953953 86.341093,31.5783023 86.121907,30.9564884 C85.8892326,30.3373721 85.6558837,29.7128605 85.417814,29.0822791 C85.185814,28.4496744 84.953814,27.8096512 84.7184419,27.1703023 C84.4682326,26.5363488 84.2186977,25.9010465 83.9691628,25.2657442 C83.4741395,23.9870465 82.9420233,22.7339767 82.426093,21.4943953 C82.1725116,20.8725814 81.8939767,20.2676279 81.618814,19.6714419 C81.345,19.0779535 81.0853488,18.4817674 80.8074884,17.9071628 C80.2342326,16.7734651 79.7162791,15.6525814 79.1463953,14.6429767 C79.008814,14.384 78.8786512,14.1290698 78.747814,13.8795349 C78.6075349,13.6333721 78.4706279,13.3973256 78.3323721,13.1606047 C78.0578837,12.6898605 77.8022791,12.2238372 77.529814,11.7996279 C77.003093,10.9356977 76.4770465,10.1769767 76.0015814,9.50593023 C75.7506977,9.17816279 75.5200465,8.87130233 75.3055814,8.58872093 C75.0769535,8.31153488 74.8692326,8.05930233 74.6790465,7.83134884 C74.2865349,7.38555814 73.979,7.03553488 73.7530698,6.79409302 C73.5305116,6.554 73.4145116,6.42248837 73.4145116,6.42248837 C73.3470698,6.3435814 73.3275116,6.22151163 73.3895581,6.12574419 Z M83.4498605,5.91734884 C83.5240465,5.81146512 83.6757907,5.78651163 83.7843721,5.86474419 C83.7843721,5.86474419 83.9233023,5.96455814 84.187,6.15069767 C84.4567674,6.33413953 84.8351163,6.61739535 85.3227209,6.98090698 C85.5675349,7.16097674 85.8305581,7.37544186 86.1158372,7.60204651 C86.4125814,7.82662791 86.7147209,8.08627907 87.0343953,8.37493023 C87.3527209,8.65616279 87.6933023,8.96032558 88.0291628,9.30832558 C88.3677209,9.64755814 88.7298837,10.0029767 89.0724884,10.4022326 C89.7961395,11.1784884 90.4968605,12.0795116 91.2225349,13.041907 C91.5678372,13.5382791 91.9252791,14.0447674 92.2854186,14.5640698 C92.6286977,15.092814 92.9692791,15.6397674 93.3172791,16.1954884 C93.6726977,16.7478372 93.989,17.3278372 94.324186,17.913907 C94.6519535,18.4999767 95.0073721,19.0826744 95.3209767,19.6923488 C95.9461628,20.9056279 96.619907,22.1303721 97.208,23.3841163 C97.5114884,24.0086279 97.8122791,24.6324651 98.1171163,25.2536047 C98.4158837,25.876093 98.6896977,26.506 98.9783488,27.1251163 C99.5374419,28.370093 100.074953,29.5982093 100.564581,30.798 C101.055558,31.9971163 101.559349,33.1496977 101.988953,34.2557442 C102.418558,35.3617907 102.821186,36.4084884 103.201558,37.3735814 C103.946116,39.3091628 104.506558,40.9405814 104.927395,42.0729302 C105.330023,43.2106744 105.559326,43.8614884 105.559326,43.8614884 L105.562023,43.8675581 C105.85,44.6896744 105.415674,45.5927209 104.591535,45.8813721 C103.76807,46.1693488 102.866372,45.7377209 102.579744,44.912907 L102.569628,44.8879535 C102.569628,44.8879535 102.345047,44.2418605 101.94714,43.1128837 C101.551256,41.9859302 101.024535,40.3572093 100.325837,38.4310698 C99.9798605,37.4659767 99.6089302,36.4199535 99.2137209,35.3132326 C98.8259302,34.2031395 98.3733953,33.0559535 97.9289535,31.8534651 C97.489907,30.6489535 96.9942093,29.4262326 96.4951395,28.1792326 C96.2469535,27.5574186 96.006186,26.9241395 95.7472093,26.2969302 C95.484186,25.6744419 95.2211628,25.0472326 94.9534186,24.4193488 C94.4381628,23.1561628 93.8493953,21.9354651 93.2970465,20.7181395 C93.0266047,20.1037442 92.7062558,19.5264419 92.4216512,18.937 C92.1276047,18.3529535 91.8477209,17.7702558 91.532093,17.2219535 C91.2286047,16.6655581 90.9284884,16.1199535 90.6357907,15.5851395 C90.3248837,15.0617907 90.0213953,14.5526047 89.7233023,14.0548837 C89.1156512,13.070907 88.5187907,12.1557209 87.919907,11.3437209 C87.6339535,10.9255814 87.3324884,10.5519535 87.0458605,10.1904651 C86.768,9.8235814 86.4867674,9.48772093 86.2183488,9.18018605 C85.6855581,8.55297674 85.189186,8.02827907 84.7791395,7.59125581 C83.9448837,6.72395349 83.470093,6.22825581 83.470093,6.22825581 C83.391186,6.14327907 83.3797209,6.0137907 83.4498605,5.91734884 Z M6.19453488,49.2345814 C10.7165116,54.4276047 19.1629302,63.4789767 24.0389767,64.583 C27.8130233,65.4374884 33.5954884,68.5937674 36.962186,73.7038372 C40.3167442,78.8112093 42.2084884,81.6370233 43.2875581,83.3163256 C43.4015349,83.4984186 43.5249535,83.6926512 43.6557907,83.8916047 C45.6709535,86.9946047 49.3438372,91.9266279 49.5643721,92.5639535 C49.8530233,93.4002326 53.2999767,103.440977 53.2999767,103.440977 C53.4557674,103.895535 53.6183023,104.125512 53.811186,104.325814 C54.6690465,105.133093 55.6759535,105.396791 56.6322791,105.067 L57.8698372,104.644814 C58.824814,104.316372 59.4587674,103.48886 59.5997209,102.555465 C59.6685116,102.046953 59.6536744,101.766395 59.5633023,101.495953 C59.4978837,101.31386 56.1790698,91.6467442 55.7622791,90.4368372 C55.4823953,89.6201163 55.3879767,84.8405116 55.1768837,81.2849767 L60.813,80.0224651 C62.4255349,82.7228372 66.8557907,88.6246744 67.0952093,89.3159535 C67.3717209,90.1212093 70.6837907,99.7721395 70.6837907,99.7721395 C70.8362093,100.210512 70.9899767,100.430372 71.1828605,100.62393 C72.0009302,101.40086 72.9700698,101.655791 73.8913256,101.339488 L75.0789767,100.930116 C75.9995581,100.613814 76.6072093,99.8206977 76.7461395,98.9196744 C76.8061628,98.4320698 76.7953721,98.165 76.7036512,97.904 C76.6456512,97.7273023 73.4516047,88.4344884 73.0516744,87.2684186 C72.7542558,86.3977442 72.6773721,80.8445814 72.4163721,77.409093 L75.329186,76.7555814 C75.8869302,78.3816047 81.6484884,85.985 81.9182558,86.7626047 C82.1853256,87.534814 85.3773488,96.8424651 85.3773488,96.8424651 C85.5236977,97.2619535 85.674093,97.4743953 85.856186,97.6618837 C86.6479535,98.4084651 87.58,98.6546279 88.4641628,98.351814 L89.6147209,97.9572791 C90.4988837,97.6517674 91.0876512,96.8822558 91.217814,96.0203488 C91.2805349,95.5475814 91.2677209,95.2933256 91.1834186,95.0390698 C91.1233953,94.8684419 88.0473721,85.9101395 87.6609302,84.7906047 C87.3358605,83.8450698 87.2812326,77.1696744 86.9494186,74.1422093 L89.5715581,73.5507442 C90.4260465,75.4445116 95.7094419,82.4355349 95.9630233,83.1699767 C96.2260465,83.9354419 99.3695116,93.09 99.3695116,93.09 C99.5091163,93.5020698 99.6595116,93.7138372 99.8382326,93.8932326 C100.616512,94.6317209 101.535744,94.8758605 102.404395,94.5703488 L103.537419,94.1866047 C104.406744,93.885814 104.980674,93.131814 105.111512,92.278 C105.171535,91.8173721 105.162767,91.5624419 105.077116,91.3169535 C105.018442,91.1503721 101.991651,82.3330233 101.612628,81.2283256 C101.30307,80.3246047 101.243047,74.0747674 100.93686,70.9940233 L101.655116,70.834186 C101.91207,71.5814419 102.145419,72.2673256 102.293791,72.6915349 C102.786791,74.1219767 107.994651,80.9949767 108.231372,81.6963721 C108.474163,82.397093 111.36,90.8010233 111.36,90.8010233 C111.488814,91.1834186 111.623698,91.3756279 111.790279,91.5442326 C112.504488,92.2186512 113.346837,92.439186 114.149395,92.1660465 L115.188,91.8106279 C115.987186,91.5334419 116.51593,90.8428372 116.633953,90.0571395 C116.68993,89.6363023 116.677116,89.4002558 116.601581,89.1763488 C116.552349,89.0198837 113.770372,80.9275349 113.422372,79.9118605 C113.075047,78.9002326 113.068977,70.5920698 112.574628,69.1596047 C112.503814,68.9444651 112.416814,68.6969535 112.327791,68.4325814 C112.988047,69.272907 113.456093,70.6298372 113.706977,71.3683256 C114.133884,72.6126279 118.464326,78.0140465 119.144814,79.994814 C119.356581,80.6058372 121.860023,87.9165349 121.860023,87.9165349 C121.979395,88.2449767 122.095395,88.4122326 122.24107,88.5572326 C122.861535,89.1433023 123.592605,89.3388837 124.289953,89.0994651 L125.192326,88.7905814 C125.887651,88.5504884 126.348953,87.9475581 126.451465,87.2677442 C126.500698,86.896814 126.490581,86.6931395 126.423814,86.4982326 C126.378628,86.3653721 123.96286,79.3271395 123.658698,78.4463488 C123.357233,77.5648837 123.348465,70.3418605 122.921558,69.0975581 C122.678767,68.3853721 122.310535,67.3164186 121.952419,66.2670233 L116.674419,50.903093 C116.674419,50.903093 116.436349,50.2043953 116.341256,49.9285581 C115.562977,47.6685814 113.71507,46.0223256 111.36,45.1833488 C105.983535,30.2416047 93.7563256,4.05797674 81.3834419,3.54137209 C80.6179767,3.51034884 79.8626279,3.50630233 79.1207674,3.52586047 L20.9501395,0.294046512 C20.9501395,0.294046512 16.509093,0.12544186 14.4035581,0.530767442 C12.2986977,0.938116279 9.9254186,2.85009302 8.87332558,4.32437209 C7.82527907,5.80134884 6.3435814,8.66627907 6.13113953,10.5006977 C2.72465116,22.446 0.385093023,44.4765581 0.259651163,44.9533721 L6.19453488,49.2345814 Z" id="Fill-1" fill="#85BF43" mask="url(#mask-2)"></path>
            </g>
            <polygon id="Fill-4" fill="#FFFFFF" points="1.64355814 75.5672558 143.272814 75.5672558 143.272814 28.6418837 1.64355814 28.6418837"></polygon>
            <path d="M3.28644186,73.9243721 L141.62993,73.9243721 L141.62993,30.2854419 L3.28644186,30.2854419 L3.28644186,73.9243721 Z M0,77.210814 L144.916372,77.210814 L144.916372,26.9983256 L0,26.9983256 L0,77.210814 Z" id="Fill-5" fill="#85BF43"></path>
            <polyline id="Fill-6" fill="#828582" points="9.03923256 68.775186 9.03923256 59.1296512 18.9127209 59.1296512 18.9127209 60.7725349 11.2836977 60.7725349 11.2836977 62.9259535 15.7368837 62.9259535 15.7368837 64.5688372 11.2836977 64.5688372 11.2836977 66.9589767 19.0037674 66.9589767 19.0037674 68.775186 9.03923256 68.775186"></polyline>
            <polyline id="Fill-7" fill="#828582" points="21.6778372 68.775186 26.2490465 63.8202326 21.5955581 59.1296512 24.5704186 59.1296512 27.6545349 62.4059767 30.5835349 59.1296512 33.1658837 59.1296512 28.9588605 63.5646279 34.1606512 68.775186 31.1129535 68.775186 27.5810233 65.0335116 24.3235814 68.775186 21.6778372 68.775186"></polyline>
            <path d="M44.2445581,60.854814 L38.1943488,60.854814 L38.1943488,66.9589767 L44.2445581,66.9589767 L44.2445581,64.8878372 L46.4890233,65.353186 L46.4890233,66.4936279 C46.4890233,67.3757674 46.3237907,67.9766744 45.9913023,68.2956744 C45.6601628,68.6153488 45.0295814,68.775186 44.0982093,68.775186 L38.3406977,68.775186 C37.4032558,68.775186 36.7706512,68.6153488 36.4422093,68.2956744 C36.1137674,67.9766744 35.9498837,67.3757674 35.9498837,66.4936279 L35.9498837,61.4112093 C35.9498837,60.5351395 36.1137674,59.9362558 36.4422093,59.6138837 C36.7706512,59.2915116 37.4032558,59.1296512 38.3406977,59.1296512 L44.0982093,59.1296512 C45.0295814,59.1296512 45.6601628,59.2915116 45.9913023,59.6138837 C46.3237907,59.9362558 46.4890233,60.5351395 46.4890233,61.4112093 L46.4890233,62.3236977 L44.2445581,62.6797907 L44.2445581,60.854814" id="Fill-8" fill="#828582"></path>
            <path d="M53.2595116,64.9242558 L57.4840698,64.9242558 L55.4034884,61.0004884 L53.2595116,64.9242558 Z M48.9432326,68.775186 L54.3999535,59.1296512 L56.562814,59.1296512 L62.0923721,68.775186 L59.574093,68.775186 L58.4147674,66.6669535 L52.3018372,66.6669535 L51.1796047,68.775186 L48.9432326,68.775186 L48.9432326,68.775186 Z" id="Fill-9" fill="#828582"></path>
            <polyline id="Fill-10" fill="#828582" points="67.7864884 68.775186 62.2110698 59.1296512 64.7752093 59.1296512 68.6807674 66.1011163 72.4028837 59.1296512 74.6392558 59.1296512 69.3376512 68.775186 67.7864884 68.775186"></polyline>
            <path d="M79.0641163,64.9242558 L83.2893488,64.9242558 L81.2087674,61.0004884 L79.0641163,64.9242558 Z M74.7485116,68.775186 L80.2052326,59.1296512 L82.368093,59.1296512 L87.8976512,68.775186 L85.3793721,68.775186 L84.2200465,66.6669535 L78.1064419,66.6669535 L76.9842093,68.775186 L74.7485116,68.775186 L74.7485116,68.775186 Z" id="Fill-11" fill="#828582"></path>
            <polyline id="Fill-12" fill="#828582" points="94.221 60.854814 94.221 68.775186 91.9765349 68.775186 91.9765349 60.854814 87.5503256 60.854814 87.5503256 59.1296512 98.6654186 59.1296512 98.6654186 60.854814 94.221 60.854814"></polyline>
            <polygon id="Fill-13" fill="#828582" points="101.411651 68.775186 103.656116 68.775186 103.656116 59.1296512 101.411651 59.1296512"></polygon>
            <path d="M108.565884,68.775186 L108.565884,59.1296512 L110.098837,59.1296512 L116.887535,64.815 C117.11886,65.0038372 117.322535,65.1812093 117.499233,65.3484651 C117.675256,65.5157209 117.837116,65.6876977 117.982116,65.8643953 C117.946372,65.3228372 117.922093,64.9397674 117.909279,64.7145116 C117.89714,64.4892558 117.891744,64.3159302 117.891744,64.1945349 L117.891744,59.1296512 L119.908256,59.1296512 L119.908256,68.775186 L118.374628,68.775186 L111.293907,62.8166977 C111.123953,62.6642791 110.974907,62.5273721 110.846767,62.4059767 C110.719302,62.283907 110.600605,62.159814 110.490674,62.0316744 C110.521698,62.3297674 110.543953,62.611 110.559465,62.8760465 C110.574302,63.1404186 110.582395,63.3703953 110.582395,63.5646279 L110.582395,68.775186 L108.565884,68.775186" id="Fill-14" fill="#828582"></path>
            <path d="M133.878837,60.854814 L126.870279,60.854814 L126.870279,66.9589767 L133.878837,66.9589767 L133.878837,64.815 L130.21,64.815 L130.21,63.1721163 L136.059233,63.1721163 L136.059233,66.4936279 C136.059233,67.3757674 135.895349,67.9766744 135.566907,68.2956744 C135.237791,68.6153488 134.605186,68.775186 133.668419,68.775186 L127.016628,68.775186 C126.079186,68.775186 125.447256,68.6153488 125.118814,68.2956744 C124.789698,67.9766744 124.625814,67.3757674 124.625814,66.4936279 L124.625814,61.4112093 C124.625814,60.5351395 124.789698,59.9362558 125.118814,59.6138837 C125.447256,59.2915116 126.079186,59.1296512 127.016628,59.1296512 L133.668419,59.1296512 C134.593047,59.1296512 135.222953,59.2881395 135.557465,59.6044419 C135.891977,59.9207442 136.059233,60.4926512 136.059233,61.3201628 L136.059233,61.5386744 L133.878837,61.931186 L133.878837,60.854814" id="Fill-15" fill="#828582"></path>
            <path d="M18.7663721,38.1626512 L11.5028837,38.1626512 L11.5028837,40.5453721 L18.4203953,40.5453721 C19.5048605,40.5453721 20.2379535,40.7315116 20.619,41.1024419 C21.0007209,41.4726977 21.1915814,42.1619535 21.1915814,43.1695349 L21.1915814,44.6916977 C21.1915814,45.6992791 21.0007209,46.3885349 20.619,46.7601395 C20.2379535,47.1303953 19.5048605,47.3158605 18.4203953,47.3158605 L11.5656047,47.3158605 C10.4811395,47.3158605 9.74804651,47.1303953 9.367,46.7601395 C8.98527907,46.3885349 8.7944186,45.6992791 8.7944186,44.6916977 L8.7944186,44.3875349 L11.0726047,43.9147674 L11.0726047,45.227186 L18.9133953,45.227186 L18.9133953,42.6974419 L11.9958837,42.6974419 C10.9181628,42.6974419 10.1904651,42.5119767 9.8127907,42.1410465 C9.43511628,41.7701163 9.24627907,41.0808605 9.24627907,40.0732791 L9.24627907,38.8451628 C9.24627907,37.8375814 9.43511628,37.1483256 9.8127907,36.7773953 C10.1904651,36.4064651 10.9181628,36.221 11.9958837,36.221 L18.2942791,36.221 C19.3369302,36.221 20.0558605,36.3990465 20.4510698,36.7564884 C20.8462791,37.1132558 21.0445581,37.7465349 21.0445581,38.6563256 L21.0445581,38.8869767 L18.7663721,39.4224651 L18.7663721,38.1626512" id="Fill-16" fill="#0A0A08"></path>
            <polyline id="Fill-17" fill="#0A0A08" points="31.709814 38.2051395 31.709814 47.3158605 29.1267907 47.3158605 29.1267907 38.2051395 24.0362791 38.2051395 24.0362791 36.221 36.8212326 36.221 36.8212326 38.2051395 31.709814 38.2051395"></polyline>
            <path d="M42.5625581,36.221 L42.5625581,45.227186 L49.9211395,45.227186 L49.9211395,36.221 L52.4926977,36.221 L52.4926977,44.6916977 C52.4926977,45.7066977 52.3038605,46.3979767 51.9255116,46.7648605 C51.5485116,47.1324186 50.820814,47.3158605 49.7424186,47.3158605 L42.7304884,47.3158605 C41.6595116,47.3158605 40.9338372,47.1324186 40.5527907,46.7648605 C40.1710698,46.3979767 39.9802093,45.7066977 39.9802093,44.6916977 L39.9802093,36.221 L42.5625581,36.221" id="Fill-18" fill="#0A0A08"></path>
            <polyline id="Fill-19" fill="#0A0A08" points="63.336 38.2051395 63.336 47.3158605 60.7536512 47.3158605 60.7536512 38.2051395 55.6624651 38.2051395 55.6624651 36.221 68.4474186 36.221 68.4474186 38.2051395 63.336 38.2051395"></polyline>
            <polyline id="Fill-20" fill="#0A0A08" points="70.084907 47.3158605 70.084907 46.1086512 77.8420698 38.2051395 70.8618372 38.2051395 70.8618372 36.221 81.999186 36.221 81.999186 37.323 74.1260233 45.227186 81.999186 45.227186 81.999186 47.3158605 70.084907 47.3158605"></polyline>
            <path d="M86.2500465,47.3158605 L86.2500465,36.221 L88.3387209,36.221 L93.5661395,42.9287674 L98.6782326,36.221 L100.746,36.221 L100.746,47.3158605 L98.3531628,47.3158605 L98.3531628,40.4617442 C98.3531628,40.3288837 98.3619302,40.1609535 98.3787907,39.9579535 C98.3963256,39.7549535 98.4199302,39.5276744 98.4475814,39.2754419 C98.3073023,39.5627442 98.1852326,39.7987907 98.0800233,39.9842558 C97.974814,40.1697209 97.8803953,40.3214651 97.7967674,40.4408372 L93.6295349,45.9832093 L93.1149535,45.9832093 L88.9369302,40.4199302 C88.7838372,40.2095116 88.6516512,40.011907 88.5437442,39.8264419 C88.4351628,39.6416512 88.3454651,39.460907 88.276,39.2862326 C88.296907,39.5168837 88.3124186,39.7273023 88.3232093,39.9161395 C88.334,40.1043023 88.3387209,40.2870698 88.3387209,40.4617442 L88.3387209,47.3158605 L86.2500465,47.3158605" id="Fill-21" fill="#0A0A08"></path>
            <path d="M109.01707,42.8862791 L113.878279,42.8862791 L111.484767,38.3730698 L109.01707,42.8862791 Z M104.052674,47.3158605 L110.330163,36.221 L112.817419,36.221 L119.178535,47.3158605 L116.281233,47.3158605 L114.947907,44.8913256 L107.915744,44.8913256 L106.624907,47.3158605 L104.052674,47.3158605 L104.052674,47.3158605 Z" id="Fill-22" fill="#0A0A08"></path>
            <path d="M122.726651,47.3158605 L122.726651,36.221 L124.490256,36.221 L132.300023,42.7608372 C132.565744,42.9773256 132.799767,43.1823488 133.002767,43.3745581 C133.206442,43.5667674 133.391233,43.7650465 133.559163,43.9680465 C133.517349,43.3448837 133.489698,42.903814 133.475535,42.6448372 C133.461372,42.3858605 133.454628,42.186907 133.454628,42.0466279 L133.454628,36.221 L135.773953,36.221 L135.773953,47.3158605 L134.010349,47.3158605 L125.865395,40.4617442 C125.66914,40.2870698 125.497837,40.1292558 125.350814,39.9896512 C125.203791,39.8493721 125.066884,39.7057209 124.941442,39.5586977 C124.976512,39.9019767 125.002814,40.2256977 125.020349,40.5298605 C125.037209,40.8346977 125.046651,41.0983953 125.046651,41.3223023 L125.046651,47.3158605 L122.726651,47.3158605" id="Fill-23" fill="#0A0A08"></path>
            <polygon id="Fill-24" fill="#86BF43" points="8.44574419 53.525907 135.930419 53.525907 135.930419 52.0057674 8.44574419 52.0057674"></polygon>
        </g>
    </g>
</svg>