<?xml version="1.0" encoding="utf-8"?>
<!-- Generator: Adobe Illustrator 19.2.1, SVG Export Plug-In . SVG Version: 6.00 Build 0)  -->
<svg version="1.1" id="Layer_1" xmlns="http://www.w3.org/2000/svg" xmlns:xlink="http://www.w3.org/1999/xlink" x="0px" y="0px"
	 viewBox="0 0 899.5 55.7" style="enable-background:new 0 0 899.5 55.7;" xml:space="preserve">
<style type="text/css">
	.st0{fill:#222222;}
	.st1{fill:#2ECC71;}
</style>
<g>
	<path class="st0" d="M7.6,44.7c3.4,4,9,7.8,16.6,7.8c11,0,14.1-6.1,14.1-10.6c0-7.5-7.1-9.6-14.6-11.6C15.3,28,6.3,25.6,6.3,15.7
		C6.3,7,14.1,1.5,23.8,1.5c8,0,13.9,2.8,18.1,7.5l-3,3.4c-3.8-4.6-9.3-6.7-15.3-6.7c-7.1,0-12.5,4.1-12.5,9.8
		c0,6.3,6.6,8.2,13.9,10.1c8.6,2.5,18.1,5.2,18.1,16c0,6.9-4.6,15.1-19,15.1c-8.8,0-15.4-3.5-19.5-8.5L7.6,44.7z"/>
	<path class="st0" d="M67.5,6.5H50V2.3h39.5v4.2H72.1v49.2h-4.6V6.5z"/>
	<path class="st0" d="M99,2.3h4.6v32.8c0,10.8,5.7,17.4,16.2,17.4c10.6,0,16.2-6.6,16.2-17.4V2.3h4.6v32.9c0,13.2-7,21.4-20.8,21.4
		c-13.7,0-20.8-8.3-20.8-21.4V2.3z"/>
	<path class="st0" d="M167.5,6.5H150V2.3h39.5v4.2h-17.4v49.2h-4.6V6.5z"/>
	<path class="st0" d="M196.4,51.7l32.2-45.2h-32.2V2.3h37.9v3.9l-32.2,45.3h32.7v4.2h-38.5v-4H196.4z"/>
	<path class="st0" d="M290.8,8.3l-19.4,47.4h-1.8L250,8.3v47.4h-4.6V2.3h6.8l18.2,44.2l18.1-44.2h6.9v53.4h-4.6V8.3z"/>
	<path class="st0" d="M342.1,42.5h-28.4l-5.4,13.1h-5.1L325,2.2h5.7l21.8,53.4h-5.1L342.1,42.5z M315.2,38.4h25.5L327.9,6.8
		L315.2,38.4z"/>
	<path class="st0" d="M365,9.6v46.1h-4.6V2.3h4.6l33.4,45.4V2.3h4.6v53.4h-4.5L365,9.6z"/>
	<path class="st1" d="M415,55.7V2.3h37.8v10h-26.4v11.3h25.8v10h-25.8v12.1h26.4v10C452.8,55.7,415,55.7,415,55.7z"/>
	<path class="st1" d="M496.4,55.7L483,36.2l-13.4,19.5h-13.5l19.4-27.4l-18.2-26h13.5L483,20.5l12.1-18.2h13.7l-18.2,25.9L510,55.7
		H496.4z"/>
	<path class="st1" d="M510.1,29c0-16.4,12.4-27.6,28.4-27.6c11.8,0,18.6,6.4,22.3,13l-9.8,4.8c-2.2-4.3-7-7.8-12.6-7.8
		c-9.7,0-16.7,7.4-16.7,17.5s7,17.5,16.7,17.5c5.5,0,10.3-3.4,12.6-7.8l9.8,4.7c-3.8,6.6-10.6,13.1-22.3,13.1
		C522.5,56.6,510.1,45.4,510.1,29z"/>
	<path class="st1" d="M603.9,55.7l-3.3-9h-22.9l-3.4,9h-13L582,2.3h14.2l20.6,53.4H603.9z M589.2,13.7l-8.3,23h16.6L589.2,13.7z"/>
	<path class="st1" d="M633,55.7L612.4,2.3h13l14.8,41l14.7-41h13l-20.6,53.4H633z"/>
	<path class="st1" d="M705.8,55.7l-3.3-9h-22.9l-3.4,9h-13L684,2.3h14.2l20.6,53.4H705.8z M691.1,13.7l-8.3,23h16.6L691.1,13.7z"/>
	<path class="st1" d="M730.9,55.7V12.3h-15.6v-10h42.6v10h-15.5v43.4H730.9z"/>
	<path class="st1" d="M765.2,55.7V2.3h11.4v53.4H765.2z"/>
	<path class="st1" d="M823.9,55.7l-25.4-34.8v34.8h-11.4V2.3h11.7l24.7,33.5V2.3h11.4v53.4H823.9z"/>
	<path class="st1" d="M842.8,29c0-16.9,12.8-27.6,28.4-27.6c11.1,0,18.1,5.6,22.1,11.9l-9.4,5.1c-2.4-3.8-7-7-12.6-7
		c-9.7,0-16.7,7.4-16.7,17.5s7,17.5,16.7,17.5c4.7,0,9.2-2.1,11.4-4.1v-6.4h-14.1V26H894v20.5c-5.4,6.1-13,10.1-22.7,10.1
		C855.6,56.7,842.8,45.8,842.8,29z"/>
</g>
</svg>
