<?xml version="1.0" encoding="utf-8"?>
<!-- Generator: Adobe Illustrator 19.2.1, SVG Export Plug-In . SVG Version: 6.00 Build 0)  -->
<svg version="1.1" id="Layer_1" xmlns="http://www.w3.org/2000/svg" xmlns:xlink="http://www.w3.org/1999/xlink" x="0px" y="0px"
	 viewBox="0 0 1767 511.9" style="enable-background:new 0 0 1767 511.9;" xml:space="preserve">
<style type="text/css">
	.st0{fill:#ED1C24;}
	.st1{opacity:0.55;fill:#ED1C24;enable-background:new    ;}
	.st2{opacity:0.65;fill:#ED1C24;enable-background:new    ;}
	.st3{opacity:0.6;fill:#ED1C24;enable-background:new    ;}
	.st4{opacity:0.7;fill:#ED1C24;enable-background:new    ;}
	.st5{opacity:0.9;fill:#ED1C24;enable-background:new    ;}
	.st6{opacity:0.85;fill:#ED1C24;enable-background:new    ;}
	.st7{opacity:0.8;fill:#ED1C24;enable-background:new    ;}
	.st8{opacity:0.75;fill:#ED1C24;enable-background:new    ;}
	.st9{opacity:0.5;fill:#ED1C24;enable-background:new    ;}
</style>
<path class="st0" d="M172.2,234.7v48.8c0,58.8-29.4,92.4-86.1,92.4S0,342.3,0,283.5V92.4C0,33.6,29.4,0,86.1,0
	c56.7,0,86.1,33.6,86.1,92.4v35.7h-54.6V88.7c0-26.2-11.6-36.2-29.9-36.2s-29.9,10-29.9,36.2v198.4c0,26.2,11.5,35.7,29.9,35.7
	s29.9-9.5,29.9-35.7v-52.5L172.2,234.7L172.2,234.7z"/>
<path class="st0" d="M252,371.7h-57.7V4.2H252v157.5h65.6V4.2h58.8v367.5h-58.8V214.2H252V371.7z"/>
<path class="st0" d="M463,159.1h79.3v52.5H463v107.6h99.7v52.5H405.3V4.2h157.5v52.5H463V159.1z"/>
<path class="st0" d="M643.1,159.1h79.3v52.5h-79.3v107.6h99.7v52.5H585.4V4.2h157.5v52.5h-99.7V159.1z"/>
<path class="st0" d="M886.2,371.7c-3.2-9.5-5.2-15.2-5.2-45.1v-57.7c0-34.1-11.5-46.7-37.8-46.7h-20v149.6h-57.7V4.2h87.1
	c59.8,0,85.6,27.8,85.6,84.5v28.9c0,37.8-12.1,61.9-37.8,74v1.1c28.9,12.1,38.3,39.4,38.3,77.7v56.7c0,17.9,0.5,31,6.3,44.6
	L886.2,371.7L886.2,371.7z M823.2,56.7v112.9h22.6c21.5,0,34.7-9.4,34.7-38.8V94.5c0-26.2-8.9-37.8-29.4-37.8H823.2z"/>
<path class="st0" d="M1041.1,0c56.2,0,85,33.6,85,92.4v11.6h-54.6V88.7c0-26.2-10.5-36.2-28.9-36.2c-18.4,0-28.9,10-28.9,36.2
	c0,26.8,11.6,46.7,49.3,79.8c48.3,42.5,63.5,73,63.5,115c0,58.8-29.4,92.4-86.1,92.4s-86.1-33.6-86.1-92.4v-22.6h54.6v26.2
	c0,26.2,11.5,35.7,29.9,35.7c18.4,0,29.9-9.5,29.9-35.7c0-26.8-11.6-46.7-49.3-79.8c-48.3-42.5-63.5-73-63.5-115
	C956,33.6,984.9,0,1041.1,0z"/>
<polygon class="st0" points="1362.4,94.1 1362.4,94.1 1360.4,88.1 "/>
<path class="st1" d="M1552.4,155.9l68.8-49.9c-31.6-43.5-76.7-76.5-129-93.2l-26.3,80.8C1501,104.6,1531.2,126.8,1552.4,155.9z"/>
<path class="st2" d="M1336.1,13.3l24.3,74.8L1336.1,13.3c-51.7,16.8-96.2,49.6-127.5,92.6l68.8,50c20.9-28.7,50.5-50.6,84.9-61.8
	l-1.9-6L1336.1,13.3z"/>
<path class="st3" d="M1414.9,0.8c-27.5,0-54,4.4-78.8,12.4l24.3,74.8l1.9,6c16.5-5.4,34.2-8.3,52.5-8.3c17.8,0,34.9,2.7,51,7.8
	l26.3-80.8C1467.8,5,1441.8,0.8,1414.9,0.8z"/>
<path class="st4" d="M1277.4,155.9l-68.8-50c-30.6,42.1-48.7,93.8-48.7,149.8h85C1245,218.4,1257,183.9,1277.4,155.9z"/>
<polygon class="st0" points="1467.4,417.4 1467.4,417.4 1476.4,444.9 "/>
<path class="st5" d="M1621.2,405.6l-68.8-49.9c-20.9,28.7-50.5,50.6-85,61.8l8.9,27.5l17.3,53.3l-17.3-53.3l17.3,53.3
	C1545.4,481.4,1589.9,448.6,1621.2,405.6z"/>
<path class="st6" d="M1493.7,498.2l-17.3-53.3l-8.9-27.5c-16.5,5.4-34.2,8.3-52.5,8.3c-18.3,0-36-2.9-52.5-8.3l-26.2,80.8l26.2-80.8
	l0,0l-26.3,80.8c24.8,8.1,51.3,12.4,78.8,12.4C1442.4,510.7,1468.9,506.3,1493.7,498.2z"/>
<path class="st7" d="M1277.4,355.6l-68.7,49.9c31.3,43,75.8,75.9,127.5,92.6l26.3-80.8C1327.9,406.2,1298.3,384.3,1277.4,355.6z"/>
<path class="st8" d="M1245,255.8h-85c0,56,18.1,107.8,48.7,149.8l68.7-49.9C1257,327.6,1245,293.1,1245,255.8z"/>
<path class="st9" d="M1669.9,255.8c0-56-18.1-107.8-48.7-149.8l-68.8,49.9c20.4,28,32.5,62.6,32.5,99.9l42.5-39.7L1669.9,255.8z"/>
<path class="st0" d="M1627.4,216l-42.5,39.7c0,37.3-12,71.8-32.5,99.9l68.8,49.9c30.6-42.1,48.7-93.8,48.7-149.8L1627.4,216z"/>
<path class="st6" d="M1305.8,254.7c26.7,6.4,54.3-6.2,50.8-32.2c-25.6,5.6-45.7-11-69.4-2.8C1282.2,236.2,1291.3,251.2,1305.8,254.7
	z"/>
<path class="st6" d="M1461,204.6c4.8-17.4,2.7-32.6,1.4-39.1c-1.4-6.5-2.4-20.9-2.4-20.9h-39.7h-3.7h-39.7c0,0-1,14.4-2.4,20.9
	c-1.4,6.5-3.4,21.7,1.4,39.1c4.8,17.4,17.5,62.9,18.2,89.2c0,0,0.7,21.2-4.5,33.4c-5.2,12.2-9.3,17.4-10.6,20.1
	c-1.4,2.7-1.4,6.5,5.5,8.4c6.8,1.9,22.7,3,34,2.7c11.3,0.2,27.2-0.8,34-2.7c6.9-1.9,6.9-5.7,5.5-8.4c-1.4-2.7-5.5-7.9-10.6-20.1
	c-5.1-12.2-4.5-33.4-4.5-33.4C1443.4,267.5,1456.1,221.9,1461,204.6z M1444.5,328.5c3.9,9.2,7.2,14.6,9.2,17.8
	c0.7,1.1,1.2,1.9,1.5,2.5c0.2,0.3,0.5,1.1,0.3,1.6c-0.2,0.6-1.3,1.4-3.6,2c-5.4,1.5-18.2,2.6-29.8,2.6c-1.1,0-2.2,0-3.2,0h-0.1h-0.1
	c-1,0-2.1,0-3.2,0c-11.6,0-24.4-1.1-29.8-2.6c-2.3-0.6-3.4-1.5-3.6-2c-0.2-0.5,0.1-1.3,0.3-1.6c0.3-0.6,0.8-1.4,1.5-2.5
	c2-3.2,5.4-8.6,9.2-17.8c5.4-12.8,4.8-33.9,4.7-34.8c-0.7-26.4-12.9-70.5-18.1-89.4l-0.2-0.7c-4.7-17.1-2.5-31.9-1.3-37.5
	c1-4.8,1.8-13.5,2.2-18.2h36.6h3.7h36.6c0.4,4.7,1.2,13.4,2.2,18.2c1.2,5.6,3.4,20.4-1.3,37.5l-0.2,0.7c-5.2,18.9-17.4,63-18.1,89.4
	C1439.7,294.6,1439.1,315.7,1444.5,328.5z"/>
<path class="st6" d="M1363.8,225c-1-14.1-5.4-26.9-10.8-39.3c-0.5-1.3-2.8-0.8-4.5-0.9c3.4,12.8,11.1,26.6,11.3,41.1
	c0.3,23.1-16.9,33.5-38.5,34.4c-21.7-1-38.8-11.3-38.6-34.4c0.2-14.5,7.9-28.4,11.3-41.1c-1.7,0.1-4-0.4-4.5,0.9
	c-5.5,12.5-9.8,25.3-10.8,39.3c-0.2,3-0.4,6.8,0,9.9c2.4,21.2,24,23.2,34.3,36.1c6.1,7.7,6.4,62.4,3.6,70.9
	c-2.2,6.6-11.1,8.5-18.5,9.5c-2.7,0.4-7.2-0.5-8.6,2.7c7.6,1.6,19.8,2.2,31.8,2.1c12,0,24.2-0.5,31.8-2.1c-1.4-3.2-5.9-2.3-8.6-2.7
	c-7.5-1-16.4-2.9-18.5-9.5c-2.8-8.6-2.5-63.3,3.6-70.9c10.3-12.9,32-15,34.3-36.1C1364.2,231.8,1364,228,1363.8,225z"/>
<path class="st6" d="M1560.9,239.9c0.9-1,1.2-2.4,0.7-3.7c-0.5-1.2-1.8-2-3.1-2h-25.7l3.9-8.4c3.7,1.2,7.7-0.3,9.3-3.7
	c1.6-3.4,0.2-7.4-3.1-9.5l0.8-1.8c0.3-0.6,0-1.2-0.5-1.5c-0.6-0.3-1.2,0-1.5,0.5l-0.8,1.8c-3.7-1.2-7.7,0.3-9.3,3.7
	c-1.6,3.4-0.2,7.4,3.1,9.5l-4.3,9.3h-64.4c-1.3,0-2.6,0.8-3.1,2.1c-0.5,1.2-0.3,2.7,0.7,3.6l45.7,47.7v0.2h6.1v-0.2L1560.9,239.9z
	 M1473.8,241h53.4l-4.4,9.4h-35.1l24.5,25.6l24.5-25.6h-11.4l4.4-9.4h20.9l-38.4,40.1L1473.8,241z"/>
<path class="st6" d="M1533.6,352.1c-6.9-1-15.2-2.9-17.2-9.5c-1.5-4.9-2-24.8-1.2-42.4v-12.3h-6.1v16.9c0.6,16.3,0,33.3-1.4,37.8
	c-2,6.6-10.3,8.5-17.2,9.5c-2.5,0.4-6.6-0.5-8,2.7c7.1,1.6,18.3,2.2,29.5,2.1c11.1,0,22.4-0.5,29.4-2.1
	C1540.2,351.6,1536.1,352.5,1533.6,352.1z"/>
<rect x="1292.4" y="184.8" class="st6" width="57.6" height="4.4"/>
<path class="st6" d="M1415.7,195c-28.4,0-35.7-5.1-35.7-5.1c0.4,3.9,1.1,8.1,2.3,12.4l0.2,0.7c5.2,19,17.5,63.4,18.2,90.1
	c0,0.9,0.7,22.8-5,36.3c-4,9.5-7.4,15-9.5,18.3c-0.2,0.3-0.3,0.6-0.5,0.8c0.1,0,0.3,0.1,0.4,0.1c5.1,1.4,17.8,2.5,28.9,2.5
	c1.1,0,2.1,0,3.1,0h0.3c1,0,2.1,0,3.1,0c11.1,0,23.8-1.1,28.9-2.5c0.1,0,0.3-0.1,0.4-0.1c-0.1-0.2-0.3-0.5-0.5-0.7l-0.1-0.1
	c-2.1-3.3-5.5-8.8-9.5-18.3c-5.7-13.5-5-35.3-5-36.2c0.7-26.8,13-71.2,18.3-90.2l0.2-0.7c1.2-4.3,1.9-8.5,2.3-12.4
	C1456.7,190,1444.2,195,1415.7,195z"/>
<path class="st0" d="M16.4,441.2h21.1v14H16.4v28.7H43v14H1v-98h42v14H16.4V441.2z"/>
<path class="st0" d="M99.6,497.9c-0.8-2.5-1.4-4.1-1.4-12v-15.4c0-9.1-3.1-12.5-10.1-12.5h-5.3v39.9H67.4v-98h23.2
	c16,0,22.8,7.4,22.8,22.5v7.7c0,10.1-3.2,16.5-10.1,19.7v0.3c7.7,3.2,10.2,10.5,10.2,20.7V486c0,4.8,0.1,8.3,1.7,11.9L99.6,497.9
	L99.6,497.9z M82.8,413.9V444h6c5.7,0,9.2-2.5,9.2-10.4V424c0-7-2.4-10.1-7.8-10.1L82.8,413.9L82.8,413.9z"/>
<path class="st0" d="M184.3,424.1v12.7c0,15.7-7.6,24.2-23,24.2h-7.3v36.8h-15.4v-98h22.7C176.8,399.9,184.3,408.4,184.3,424.1z
	 M154.1,413.9v33.2h7.3c4.9,0,7.6-2.2,7.6-9.2v-14.7c0-7-2.7-9.2-7.6-9.2L154.1,413.9L154.1,413.9z"/>
<path class="st0" d="M279.6,398.8c15,0,22.7,9,22.7,24.6v3.1h-14.6v-4.1c0-7-2.8-9.7-7.7-9.7s-7.7,2.7-7.7,9.7
	c0,7.1,3.1,12.5,13.2,21.3c12.9,11.3,16.9,19.5,16.9,30.7c0,15.7-7.8,24.6-23,24.6s-23-9-23-24.6v-6H271v7c0,7,3.1,9.5,8,9.5
	s8-2.5,8-9.5c0-7.1-3.1-12.5-13.2-21.3c-12.9-11.3-16.9-19.5-16.9-30.7C256.9,407.7,264.6,398.8,279.6,398.8z"/>
<path class="st0" d="M324.9,423.4c0-15.7,8.3-24.6,23.4-24.6s23.4,9,23.4,24.6v51c0,15.7-8.3,24.6-23.4,24.6s-23.4-9-23.4-24.6
	V423.4z M340.3,475.3c0,7,3.1,9.7,8,9.7s8-2.7,8-9.7v-52.9c0-7-3.1-9.7-8-9.7s-8,2.7-8,9.7V475.3z"/>
<path class="st0" d="M396.6,399.9H412v84h25.3v14h-40.7V399.9z"/>
<path class="st0" d="M473.8,399.9v75.6c0,7,3.1,9.5,8,9.5s8-2.5,8-9.5v-75.6h14.6v74.6c0,15.7-7.8,24.6-23,24.6s-23-9-23-24.6v-74.6
	H473.8z"/>
<path class="st0" d="M525.3,399.9h47.6v14h-16.1v84h-15.4v-84h-16.1V399.9z"/>
<path class="st0" d="M594.6,399.9H610v98h-15.4V399.9z"/>
<path class="st0" d="M634.9,423.4c0-15.7,8.3-24.6,23.4-24.6s23.4,9,23.4,24.6v51c0,15.7-8.3,24.6-23.4,24.6s-23.4-9-23.4-24.6
	V423.4z M650.3,475.3c0,7,3.1,9.7,8,9.7s8-2.7,8-9.7v-52.9c0-7-3.1-9.7-8-9.7s-8,2.7-8,9.7V475.3z"/>
<path class="st0" d="M720.6,426.9h-0.3v71h-13.9v-98h19.3l15.5,58.7h0.3v-58.7h13.7v98h-15.8L720.6,426.9z"/>
<path class="st0" d="M802.1,398.8c15,0,22.7,9,22.7,24.6v3.1h-14.6v-4.1c0-7-2.8-9.7-7.7-9.7s-7.7,2.7-7.7,9.7
	c0,7.1,3.1,12.5,13.2,21.3c12.9,11.3,16.9,19.5,16.9,30.7c0,15.7-7.8,24.6-23,24.6s-23-9-23-24.6v-6h14.6v7c0,7,3.1,9.5,8,9.5
	s8-2.5,8-9.5c0-7.1-3.1-12.5-13.2-21.3c-12.9-11.3-16.9-19.5-16.9-30.7C779.4,407.7,787.1,398.8,802.1,398.8z"/>
<path class="st0" d="M848,497.9V483h14.8v13.3l-6.7,15.5h-6.3l4.1-14H848z"/>
<path class="st0" d="M925.7,399.9h15.4v98h-15.4V399.9z"/>
<path class="st0" d="M981.3,426.9H981v71h-13.9v-98h19.3l15.5,58.7h0.3v-58.7h13.7v98h-15.8L981.3,426.9z"/>
<path class="st0" d="M1086.7,461.3v13c0,15.7-7.8,24.6-23,24.6s-23-9-23-24.6v-51c0-15.7,7.8-24.6,23-24.6s23,9,23,24.6v9.5h-14.6
	v-10.5c0-7-3.1-9.7-8-9.7s-8,2.7-8,9.7v52.9c0,7,3.1,9.5,8,9.5s8-2.5,8-9.5v-14L1086.7,461.3L1086.7,461.3z"/>
<path class="st0" d="M1125,483v14.8h-14.8V483H1125z"/>
</svg>
