<?xml version="1.0" encoding="UTF-8"?>
<svg width="300px" height="110px" viewBox="0 0 300 110" version="1.1" xmlns="http://www.w3.org/2000/svg" xmlns:xlink="http://www.w3.org/1999/xlink">
    <!-- Generator: Sketch 43.1 (39012) - http://www.bohemiancoding.com/sketch -->
    <title>logo</title>
    <desc>Created with Sketch.</desc>
    <defs></defs>
    <g id="Page-1" stroke="none" stroke-width="1" fill="none" fill-rule="evenodd">
        <g id="logo" fill-rule="nonzero" fill="#333333">
            <polygon id="Shape" points="43.4535297 5.63737938 33.7176232 5.63737938 33.7176232 0.63991874 58.6439817 0.63991874 58.6439817 5.63737938 48.9080752 5.63737938 48.9080752 31.3560183 43.4687659 31.3560183"></polygon>
            <polygon id="Shape" points="67.8618588 0.63991874 73.2554596 0.63991874 73.2554596 13.4078212 87.912646 13.4078212 87.912646 0.63991874 93.3062468 0.63991874 93.3062468 31.3560183 87.912646 31.3560183 87.912646 18.4052819 73.2554596 18.4052819 73.2554596 31.3560183 67.8618588 31.3560183"></polygon>
            <polygon id="Shape" points="104.718131 0.63991874 127.496191 0.63991874 127.496191 5.46978162 110.126968 5.46978162 110.126968 13.4535297 125.530726 13.4535297 125.530726 18.2833926 110.126968 18.2833926 110.126968 26.5413916 127.724733 26.5413916 127.724733 31.3560183 104.718131 31.3560183"></polygon>
            <path d="M152.955815,16.0893855 L152.955815,15.9979685 C152.955815,7.26764855 159.492128,0.106653123 168.801422,0.106653123 C174.469274,0.106653123 177.882174,2.08735399 180.822753,4.89080752 L177.348908,8.88268156 C174.895886,6.59725749 172.26003,5.05840528 168.740477,5.05840528 C162.905028,5.05840528 158.608431,9.88826816 158.608431,15.9065515 L158.608431,15.9979685 C158.608431,22.0162519 162.859319,26.8765871 168.740477,26.8765871 C172.519045,26.8765871 174.926359,25.3834434 177.562214,22.9304215 L181.036059,26.4347384 C177.836465,29.7714576 174.316912,31.8740477 168.57288,31.8740477 C159.629253,31.8892839 152.955815,24.9111224 152.955815,16.0893855 Z" id="Shape"></path>
            <polygon id="Shape" points="190.528187 0.63991874 195.921788 0.63991874 195.921788 31.3560183 190.528187 31.3560183"></polygon>
            <polygon id="Shape" points="215.195531 5.63737938 205.459624 5.63737938 205.459624 0.63991874 230.370747 0.63991874 230.370747 5.63737938 220.63484 5.63737938 220.63484 31.3560183 215.195531 31.3560183"></polygon>
            <polygon id="Shape" points="248.638903 19.2432707 236.434738 0.63991874 242.849162 0.63991874 251.411884 14.2001016 260.096496 0.63991874 266.282377 0.63991874 254.078212 19.1213814 254.078212 31.3712544 248.638903 31.3712544"></polygon>
            <path d="M46.2569832,93.6262062 L46.2569832,93.5347892 C46.2569832,84.8044693 52.7932961,77.6434738 62.1025901,77.6434738 C67.7704418,77.6434738 71.1833418,79.6241747 74.1239208,82.4276282 L70.6500762,86.4195023 C68.1970543,84.1340782 65.5611986,82.595226 62.0416455,82.595226 C56.206196,82.595226 51.9095988,87.4250889 51.9095988,93.4433723 L51.9095988,93.5347892 C51.9095988,99.5530726 56.1604876,104.413408 62.0416455,104.413408 C65.8202133,104.413408 68.2275267,102.920264 70.8633824,100.467242 L74.337227,103.971559 C71.1376333,107.308278 67.6180802,109.410868 61.8740477,109.410868 C52.9304215,109.426105 46.2569832,102.447943 46.2569832,93.6262062 Z" id="Shape"></path>
            <polygon id="Shape" points="83.5246318 78.1767395 88.9182326 78.1767395 88.9182326 90.944642 103.575419 90.944642 103.575419 78.1767395 108.96902 78.1767395 108.96902 108.892839 103.575419 108.892839 103.575419 95.9421026 88.9182326 95.9421026 88.9182326 108.892839 83.5246318 108.892839"></polygon>
            <path d="M119.908583,95.8659218 L119.908583,78.1767395 L125.302184,78.1767395 L125.302184,95.6526155 C125.302184,101.35094 128.242763,104.382936 133.072626,104.382936 C137.85678,104.382936 140.797359,101.533773 140.797359,95.8659218 L140.797359,78.1767395 L146.19096,78.1767395 L146.19096,95.6069071 C146.19096,104.779076 141.010665,109.380396 132.981209,109.380396 C124.997461,109.380396 119.908583,104.779076 119.908583,95.8659218 Z" id="Shape"></path>
            <path d="M157.130523,78.1767395 L170.827831,78.1767395 C174.697816,78.1767395 177.714576,79.3194515 179.695277,81.2544439 C181.325546,82.9151854 182.239716,85.2006094 182.239716,87.8821737 L182.239716,87.9735907 C182.239716,93.0167598 179.20772,96.0487557 174.956831,97.2828847 L183.245302,108.908075 L176.830879,108.908075 L169.273743,98.1970543 L162.508888,98.1970543 L162.508888,108.908075 L157.115287,108.908075 L157.130523,78.1767395 Z M170.431691,93.4128999 C174.301676,93.4128999 176.754698,91.4017268 176.754698,88.2783139 L176.754698,88.1868969 C176.754698,84.8958862 174.377857,83.0980193 170.385983,83.0980193 L162.524124,83.0980193 L162.524124,93.4128999 L170.431691,93.4128999 Z" id="Shape"></path>
            <path d="M191.015744,93.6262062 L191.015744,93.5347892 C191.015744,84.8044693 197.552057,77.6434738 206.861351,77.6434738 C212.529203,77.6434738 215.942103,79.6241747 218.882682,82.4276282 L215.408837,86.4195023 C212.955815,84.1340782 210.319959,82.595226 206.800406,82.595226 C200.964957,82.595226 196.66836,87.4250889 196.66836,93.4433723 L196.66836,93.5347892 C196.66836,99.5530726 200.919248,104.413408 206.800406,104.413408 C210.578974,104.413408 212.986287,102.920264 215.622143,100.467242 L219.095988,103.971559 C215.896394,107.308278 212.376841,109.410868 206.632809,109.410868 C197.673946,109.426105 191.015744,102.447943 191.015744,93.6262062 Z" id="Shape"></path>
            <polygon id="Shape" points="228.268156 78.1767395 233.661757 78.1767395 233.661757 90.944642 248.318944 90.944642 248.318944 78.1767395 253.712544 78.1767395 253.712544 108.892839 248.318944 108.892839 248.318944 95.9421026 233.661757 95.9421026 233.661757 108.892839 228.268156 108.892839"></polygon>
            <rect id="Rectangle-path" x="0.121889284" y="53.7836465" width="299.756221" height="2.25495175"></rect>
        </g>
    </g>
</svg>