<svg id="Layer_1" xmlns="http://www.w3.org/2000/svg" viewBox="43 28 185 45"><style>.st0{enable-background:new ;} .st1{fill:#84C441;} .st2{fill:#FFFFFF;}</style><g class="st0"><path class="st1" d="M54.8 60.9c-1.1 0-2.1-.2-2.9-.6-.9-.4-1.6-.9-2.2-1.5-.6-.7-1-1.4-1.4-2.3-.3-.9-.5-1.9-.5-2.9s.2-2 .5-2.9.8-1.7 1.3-2.3c.6-.7 1.3-1.2 2.2-1.5.9-.4 1.8-.5 3-.5 1.8 0 3.2.3 4.3.9l-.4 2.6c-1.2-.6-2.4-1-3.6-1-1.4 0-2.4.4-3.2 1.3-.7.8-1.1 2-1.1 3.5s.4 2.7 1.1 3.5c.7.9 1.8 1.3 3.2 1.3 1.3 0 2.5-.3 3.6-.9L59 60c-1 .5-2.4.9-4.2.9zM66.5 58.5l-.4 2.3h-1c-1.2 0-2.1-.3-2.7-1s-.9-1.5-.9-2.5V39.1h2.9v16.7c0 .6 0 1.1.1 1.4 0 .3.1.6.3.8s.4.3.6.4c.3.1.7.1 1.1.1zM80.4 53.8h-9.8c.3 3 1.9 4.5 4.9 4.5 1.5 0 2.8-.3 4.1-.9l.3 2.4c-1.5.7-3.1 1.1-4.7 1.1-1.2 0-2.3-.2-3.2-.6-1-.4-1.7-.9-2.4-1.6-.6-.7-1.1-1.4-1.5-2.3-.3-.9-.5-1.9-.5-2.9s.2-2 .5-2.8c.3-.9.8-1.7 1.4-2.3s1.3-1.2 2.2-1.5 1.8-.6 2.8-.6c.9 0 1.7.1 2.5.4s1.4.7 1.9 1.2 1 1.2 1.3 1.9.4 1.6.4 2.5v.8c-.1.2-.2.5-.2.7zm-6-5c-2 0-3.2 1-3.7 3.1h6.8c0-.9-.3-1.7-.8-2.2s-1.2-.9-2.3-.9zM95.1 46.5l-5.4 14h-2.9l-5.4-14h3.1l3.8 10.7L92 46.5h3.1zM108.7 53.8h-9.8c.3 3 1.9 4.5 4.9 4.5 1.5 0 2.8-.3 4.1-.9l.3 2.4c-1.5.7-3.1 1.1-4.7 1.1-1.2 0-2.3-.2-3.2-.6-1-.4-1.7-.9-2.4-1.6-.6-.7-1.1-1.4-1.5-2.3-.3-.9-.5-1.9-.5-2.9s.2-2 .5-2.8c.3-.9.8-1.7 1.4-2.3s1.3-1.2 2.2-1.5 1.8-.6 2.8-.6c.9 0 1.7.1 2.5.4s1.4.7 1.9 1.2 1 1.2 1.3 1.9.4 1.6.4 2.5v.8c-.1.2-.1.5-.2.7zm-5.9-5c-2 0-3.2 1-3.7 3.1h6.8c0-.9-.3-1.7-.8-2.2s-1.3-.9-2.3-.9zM119.1 46.1l-.6 3h-1c-.3 0-.6 0-.9.1s-.6.2-.9.4-.5.3-.7.5-.4.4-.5.6v9.8h-3v-14h2.5l.2 2c1.5-1.6 3-2.5 4.4-2.5h.5v.1z"/></g><g class="st0"><path class="st2" d="M133.6 60.6h-11.9V40.7h3.6V57h8.2v3.6h.1zM152.5 60.6h-3.8l-1.7-4.8h-6.6l-1.7 4.8h-3.8l7.1-19.9h3.4l7.1 19.9zm-6.7-8.4l-2.1-5.8-2.1 5.8h4.2zM161.3 60.6h-7.5V40.7h7.5c1.4 0 2.8.2 4 .7s2.2 1.1 3.1 2 1.5 1.9 2 3.1.7 2.6.7 4.1-.2 2.9-.7 4.2c-.5 1.2-1.2 2.3-2 3.1-.9.9-1.9 1.5-3.1 2-1.3.4-2.6.7-4 .7zm0-16.5h-3.8v13h3.8c1.9 0 3.3-.6 4.3-1.7s1.5-2.7 1.5-4.8-.5-3.7-1.5-4.8-2.4-1.7-4.3-1.7zM181.1 60.6h-7.5V40.7h7.5c1.4 0 2.8.2 4 .7s2.2 1.1 3.1 2 1.5 1.9 2 3.1.7 2.6.7 4.1-.2 2.9-.7 4.2c-.5 1.2-1.2 2.3-2 3.1-.9.9-1.9 1.5-3.1 2-1.3.4-2.7.7-4 .7zm0-16.5h-3.8v13h3.8c1.9 0 3.3-.6 4.3-1.7s1.5-2.7 1.5-4.8-.5-3.7-1.5-4.8-2.5-1.7-4.3-1.7z"/></g><path class="st0 st2" d="M223.2 60.6h-3.8l-4.1-7.4h-3.7v7.4H208V40.7h7.3c4.6 0 6.9 1.9 6.9 5.8 0 1.4-.3 2.6-.9 3.5-.6.9-1.4 1.7-2.5 2.3l4.4 8.3zm-8.8-16.9h-2.8v6.1h2.7c1.5 0 2.6-.3 3.2-.8.6-.5.9-1.3.9-2.3s-.3-1.8-.8-2.2c-.7-.6-1.7-.8-3.2-.8z"/><path class="st0 st1" d="M206 60.6h-13.1V40.7h12.8v3.5h-9v4.2h7v3.5h-7V57h9.3v3.6z"/><path class="st1" d="M192.9 36.4h3.8v28.2h-3.8zM202.2 36.4h3.8v28.2h-3.8z"/></svg>