<svg id="Layer_1" data-name="Layer 1" xmlns="http://www.w3.org/2000/svg" viewBox="0 0 75.24 8.4"><title>logo</title><path d="M1.6,8.77l0.3-.2a1.71,1.71,0,0,0,1.56.92A1.49,1.49,0,0,0,5.06,7.81V1.59H5.44V7.84a1.84,1.84,0,0,1-2,2A2.05,2.05,0,0,1,1.6,8.77Z" transform="translate(-1.6 -1.47)"/><path d="M7.73,1.59h4.7V1.92H8.12V6.56H12V6.9H8.12V9.41H12.6V9.74H7.73V1.59Z" transform="translate(-1.6 -1.47)"/><path d="M18.89,1.59h0.44l-3.18,4,3.47,4.11H19.13L15.92,5.9,14.8,7.31V9.74H14.42V1.59H14.8V6.78Z" transform="translate(-1.6 -1.47)"/><path d="M20.43,1.59h0.41l2.88,5.25,2.89-5.25H27L23.91,7.22V9.74H23.52V7.22Z" transform="translate(-1.6 -1.47)"/><path d="M28.58,1.59H29V9.41h3.95V9.74H28.58V1.59Z" transform="translate(-1.6 -1.47)"/><path d="M34.51,1.59h0.38V9.41h3.95V9.74H34.51V1.59Z" transform="translate(-1.6 -1.47)"/><path d="M40.13,1.59H43c1.63,0,2.39.92,2.39,2.09a1.67,1.67,0,0,1-1,1.55A2,2,0,0,1,46,7.28c0,1.38-.87,2.46-2.75,2.46H40.13V1.59ZM43,4.79a1,1,0,0,0,1.19-1.08,1,1,0,0,0-1.19-1H41.4v2.1H43Zm0.22,3.85a1.28,1.28,0,0,0,1.51-1.4,1.34,1.34,0,0,0-1.57-1.42H41.4V8.64h1.76Z" transform="translate(-1.6 -1.47)"/><path d="M46.87,5.66a4.21,4.21,0,0,1,8.42,0A4.21,4.21,0,0,1,46.87,5.66Zm7.09,0a2.88,2.88,0,1,0-5.76,0A2.88,2.88,0,1,0,54,5.66Z" transform="translate(-1.6 -1.47)"/><path d="M57.87,4.38V9.74h-1.2V1.47h0.1L62,6.95V1.59h1.2V9.86H63.1Z" transform="translate(-1.6 -1.47)"/><path d="M65,1.59h5.19V2.73H66.24V6.11h3.47V7.22H66.24V8.6h4.08V9.74H65V1.59Z" transform="translate(-1.6 -1.47)"/><path d="M72.28,7.6a2,2,0,0,0,1.85,1.1,1.21,1.21,0,0,0,1.44-1.07c0-.77-0.58-1-1.3-1.36L73.71,6c-1.2-.53-2-1.15-2-2.42A2.1,2.1,0,0,1,74,1.48a2.52,2.52,0,0,1,2.33,1.28l-1,.64A1.43,1.43,0,0,0,74,2.61a0.93,0.93,0,0,0-1,.95c0,0.65.4,0.9,1.28,1.3L74.79,5.1C76,5.65,76.84,6.22,76.84,7.6s-1.15,2.25-2.7,2.25A3.17,3.17,0,0,1,71.2,8.14Z" transform="translate(-1.6 -1.47)"/></svg>