<svg xmlns="http://www.w3.org/2000/svg" xmlns:xlink="http://www.w3.org/1999/xlink" viewBox="0 0 182.18 90.64">
  <defs>
    <linearGradient id="linear-gradient" x1="4.78" y1="22.19" x2="182.31" y2="22.19" gradientUnits="userSpaceOnUse">
      <stop offset="0" stop-color="#ed0079"/>
      <stop offset="1" stop-color="#fcff00"/>
    </linearGradient>
    <linearGradient id="linear-gradient-7" x1="3.78" y1="70.78" x2="181.31" y2="70.78" xlink:href="#linear-gradient"/>
    <linearGradient id="linear-gradient-8" x1="3.78" y1="65.56" x2="181.31" y2="65.56" xlink:href="#linear-gradient"/>
    <linearGradient id="linear-gradient-9" x1="3.78" y1="68.7" x2="181.31" y2="68.7" xlink:href="#linear-gradient"/>
    <linearGradient id="linear-gradient-10" x1="3.78" y1="62.88" x2="181.31" y2="62.88" xlink:href="#linear-gradient"/>
    <linearGradient id="linear-gradient-11" x1="3.78" y1="63.07" x2="181.31" y2="63.07" xlink:href="#linear-gradient"/>
    <linearGradient id="linear-gradient-12" x1="3.78" y1="66.1" x2="181.31" y2="66.1" xlink:href="#linear-gradient"/>
    <linearGradient id="linear-gradient-13" x1="3.78" y1="65.19" x2="181.31" y2="65.19" xlink:href="#linear-gradient"/>
    <linearGradient id="linear-gradient-14" x1="3.78" y1="57.91" x2="181.31" y2="57.91" xlink:href="#linear-gradient"/>
  </defs>
  <title>Asset 1</title>
  <g id="Layer_2" data-name="Layer 2">
    <g id="Layer_1-2" data-name="Layer 1">
      <g>
        <path d="M20.62,0a4.72,4.72,0,0,1,4.69,4.69v35a4.76,4.76,0,0,1-4.69,4.69H9.21a4.72,4.72,0,0,1-4.69-4.69v-35A4.68,4.68,0,0,1,9.21,0Zm-3,7.61H12.12v29.1h5.52Z" style="fill: url(#linear-gradient)"/>
        <path d="M57,0V39.69a4.76,4.76,0,0,1-4.69,4.69H40.91a4.72,4.72,0,0,1-4.69-4.69V0h7.61V36.71h5.52V0Z" style="fill: url(#linear-gradient)"/>
        <path d="M81.49,7.61V44.38H73.82V7.61H66V0h23.4V7.61Z" style="fill: url(#linear-gradient)"/>
        <path d="M111.41,28l7.67-1.77V39.69a4.76,4.76,0,0,1-4.69,4.69H103a4.72,4.72,0,0,1-4.69-4.69v-35A4.68,4.68,0,0,1,103,0H114.4a4.72,4.72,0,0,1,4.69,4.69v9l-7.67,1.77V7.61H105.9v29.1h5.52Z" style="fill: url(#linear-gradient)"/>
        <path d="M143.62,44.38l-3.11-18.45H137.6V44.38H130V0h16.1a4.67,4.67,0,0,1,4.63,4.69V21.3a4.6,4.6,0,0,1-2.66,4.18l3.17,18.89Zm-.51-36.77H137.6V18.32h5.52Z" style="fill: url(#linear-gradient)"/>
        <path d="M174.44,0h7.73l-7.29,25.68v18.7h-7.67V25.68L159.92,0h7.73l3.42,13.19Z" style="fill: url(#linear-gradient)"/>
      </g>
      <g>
        <path d="M0,89.14C.13,87.71,4.38,80.76,11.56,70c-.13-1.26.66-3.16,1.46-2.37,1.06-1.42,3.05-4.42,4.25-5.84-3.19,2.53-9.7,6.95-10.89,7.74-.27.16-.53,0-.8-.16,0-.32,0-.63.27-.79,4-2.68,8.77-6,13-9.32,1.59-2.05,5.84-8.21,8-8.37a.87.87,0,0,1,.53.16c2.13,1.74-6,7.74-7.7,8.84-1.86,2.53-4.25,6-5.71,8.21l-.4.63L13,70.34c2.79,1.42,7.57-.32,10.76-2.68.27-.16.4-.16.53.16a.49.49,0,0,1-.13.79c-3.59,2.53-8.5,4.11-11.42,2.69A75.44,75.44,0,0,1,8,81.87,63.61,63.61,0,0,1,3.45,89a9.23,9.23,0,0,1-2.13,1.58c-.66.32-1.2-.32-1.33-1.11Zm7.31-7.9c1.59-3,3.05-6.16,4.25-8.84l.53-1.74c-2.79,4.26-5.58,8.69-7.7,12A63.08,63.08,0,0,0,.93,89v.32a.44.44,0,0,0,.4.16,5.32,5.32,0,0,0,1.46-1.26A63.84,63.84,0,0,0,7.31,81.24ZM26.83,52c-.53.16-2.52,1.42-6,6,2-1.74,4.92-4.42,5.45-5.05S26.83,52,26.83,52Z" style="fill: url(#linear-gradient-7)"/>
        <path d="M28.69,62c.28,0,.42.16.42.49s-.14.49-.42.49a7.67,7.67,0,0,0-1.42.14,7.78,7.78,0,0,0-1.36.38,3.22,3.22,0,0,0-1,.59,1,1,0,0,0-.38.7.83.83,0,0,0,.49.8,5.08,5.08,0,0,0,1,.38.37.37,0,0,1,.31.45c0,.25-.15.38-.38.38-.79.09-1.18.3-1.18.63q0,.77,3.47.76a22.19,22.19,0,0,0,3.37-.31q2-.31,4-.83a36.64,36.64,0,0,0,3.89-1.22,13.58,13.58,0,0,0,3-1.53.44.44,0,0,1,.63.14.47.47,0,0,1-.07.69A13.94,13.94,0,0,1,40,66.67,41.48,41.48,0,0,1,36,68a40.53,40.53,0,0,1-4.17.87,23.83,23.83,0,0,1-3.51.31A11.1,11.1,0,0,1,25,68.75c-.81-.26-1.22-.71-1.22-1.36a.8.8,0,0,1,.35-.63,2.76,2.76,0,0,1,.7-.42,1.53,1.53,0,0,1-1.25-1.6,1.57,1.57,0,0,1,.49-1.08,4.51,4.51,0,0,1,1.22-.9A6.9,6.9,0,0,1,27,62.18,7.77,7.77,0,0,1,28.69,62Z" style="fill: url(#linear-gradient-8)"/>
        <path d="M42.66,65.1q-.28-.14-.1-.56c.12-.28.29-.37.52-.28A12.58,12.58,0,0,1,45.65,66a11.22,11.22,0,0,1,2.22,2.4,38.11,38.11,0,0,1,5-2.19q2.82-1,5.25-1.91.49-.14.63.24a.44.44,0,0,1-.21.59l-5.21,2q-2.85,1.11-5,2.08a3,3,0,0,1,.21,1,2.86,2.86,0,0,1-.83,2,3,3,0,0,1-2.29.87A1.43,1.43,0,0,1,44,71.78a2.16,2.16,0,0,1,.8-1.53A10.35,10.35,0,0,1,47,68.72a9.07,9.07,0,0,0-2-2.05A14.65,14.65,0,0,0,42.66,65.1Zm4.93,5.14a2.13,2.13,0,0,0-.07-.63,12.44,12.44,0,0,0-1.84,1.15,1.4,1.4,0,0,0-.66,1,.37.37,0,0,0,.42.42A2.09,2.09,0,0,0,47,71.6,1.92,1.92,0,0,0,47.59,70.25Z" style="fill: url(#linear-gradient-9)"/>
        <path d="M58.64,56.42a.51.51,0,0,1,.63-.35c.32,0,.44.26.35.63l-.21.84q5.42-1.11,10.88-1.81t11.57-.9q.56,0,.56.52t-.56.45q-6.19.28-11.64,1T59.13,58.57q-.14,1-.28,2a14.38,14.38,0,0,0-.14,2A13.41,13.41,0,0,0,59,65.1a6.64,6.64,0,0,0,.87,2.26,5.73,5.73,0,0,0,1.63,1.7,5.9,5.9,0,0,0,2.61.9q.63.07.52.56t-.66.42a6.88,6.88,0,0,1-3-1A6.12,6.12,0,0,1,59,68a7.81,7.81,0,0,1-1-2.57,15,15,0,0,1-.28-2.88,21.24,21.24,0,0,1,.35-3.75l-3.79.83q-1.91.42-3.93.9c-.37.14-.6,0-.69-.35s0-.58.42-.63l4.17-.94q2-.45,4-.87a2.63,2.63,0,0,0,.17-.66A2.45,2.45,0,0,1,58.64,56.42Z" style="fill: url(#linear-gradient-10)"/>
        <path d="M69.76,64.55c.09-.23.29-.3.59-.21s.43.26.38.49A2.27,2.27,0,0,0,71,67a2.47,2.47,0,0,0,2,.84,17.17,17.17,0,0,0,2.92-.28,28,28,0,0,0,3.23-.76,33.15,33.15,0,0,0,3.23-1.15,24.43,24.43,0,0,0,2.92-1.42.45.45,0,0,1,.7.1.49.49,0,0,1-.14.73,23.43,23.43,0,0,1-3.06,1.53,30.82,30.82,0,0,1-6.74,1.95,18.71,18.71,0,0,1-3.06.28,3.61,3.61,0,0,1-2.92-1.15A3.18,3.18,0,0,1,69.76,64.55ZM73,58.78q-.42.14-.56-.35t.28-.63l2-.49q.56-.14.66.35a.48.48,0,0,1-.38.63Z" style="fill: url(#linear-gradient-11)"/>
        <path d="M84.84,63.64c0-.23.09-.37.42-.42a.44.44,0,0,1,.56.42,7.46,7.46,0,0,0,.24,1.81q.24,1,.59,1.95a16.28,16.28,0,0,1,1-1.91c.32-.53.63-1.05.9-1.56a.74.74,0,0,1,1.18-.28,9.55,9.55,0,0,0,2.75,1.18,13.07,13.07,0,0,0,3.37.42,18.54,18.54,0,0,0,5.84-1c.23-.09.39,0,.49.35s0,.53-.21.63a19.31,19.31,0,0,1-6.12,1,11.5,11.5,0,0,1-6.6-1.67q-.42.7-1,1.74a15.9,15.9,0,0,0-1,2.22.73.73,0,0,1-.49.45c-.23.07-.42,0-.56-.31a14.42,14.42,0,0,1-1-2.64A9.18,9.18,0,0,1,84.84,63.64Z" style="fill: url(#linear-gradient-12)"/>
        <path d="M106.59,64.62a.49.49,0,0,1-.56.31.4.4,0,0,1-.42-.45,1,1,0,0,0-.07-.63.6.6,0,0,0-.63-.35,2.65,2.65,0,0,0-1.18.31,5.63,5.63,0,0,0-1.18.8,6.28,6.28,0,0,0-.94,1,1.72,1.72,0,0,0-.38,1c0,.19.09.27.28.24a2.26,2.26,0,0,0,.73-.28,11.59,11.59,0,0,0,1-.63,12.37,12.37,0,0,0,1.11-.87.85.85,0,0,1,.69-.28,1.23,1.23,0,0,1,.56.35,5,5,0,0,0,2.15,1.32,7.65,7.65,0,0,0,2.15.35,10.9,10.9,0,0,0,3.79-.76,22.77,22.77,0,0,0,3.79-1.81c.37-.14.61-.08.73.17a.5.5,0,0,1-.17.66A21.6,21.6,0,0,1,114,67a12.2,12.2,0,0,1-4.1.8,8,8,0,0,1-2.68-.45,7.28,7.28,0,0,1-2.4-1.42,6.21,6.21,0,0,1-3.16,1.88q-1.42.21-1.42-1.18a2.61,2.61,0,0,1,.45-1.36A5.6,5.6,0,0,1,101.87,64a7.67,7.67,0,0,1,1.53-1,3.46,3.46,0,0,1,1.53-.42,1.37,1.37,0,0,1,1.43.76A2.69,2.69,0,0,1,106.59,64.62Z" style="fill: url(#linear-gradient-13)"/>
        <path d="M126.9,49.22a15.37,15.37,0,0,1-.56,3.81,20.76,20.76,0,0,1-1.72,4.37,25.64,25.64,0,0,1-2.87,4.32,18.24,18.24,0,0,1-4,3.65A5.48,5.48,0,0,0,119.09,68a3.48,3.48,0,0,0,2.62,1,8.46,8.46,0,0,0,3.84-1.18A26.78,26.78,0,0,0,130.71,64c.21-.14.37,0,.5.36a.79.79,0,0,1-.13.87,23.33,23.33,0,0,1-5.34,4.06,9.27,9.27,0,0,1-4,1.18,4.15,4.15,0,0,1-4-2.32,11.92,11.92,0,0,1-1.22-5.61,27.36,27.36,0,0,1,.78-6.64,25.4,25.4,0,0,1,2-5.51,14.75,14.75,0,0,1,2.62-3.76,4,4,0,0,1,2.72-1.39,1.81,1.81,0,0,1,1.69,1.08A6.15,6.15,0,0,1,126.9,49.22Zm-9.49,13.38a9.83,9.83,0,0,0,.06,1.34,16.62,16.62,0,0,0,3.78-3.4,24.18,24.18,0,0,0,2.65-4,19.29,19.29,0,0,0,1.59-4,13.22,13.22,0,0,0,.53-3.4q0-2.47-1.37-2.47a3.58,3.58,0,0,0-2.4,1.29,13.47,13.47,0,0,0-2.37,3.45,23,23,0,0,0-1.78,5A26.09,26.09,0,0,0,117.41,62.59Z" style="fill: url(#linear-gradient-14)"/>
      </g>
    </g>
  </g>
</svg>
