<?xml version="1.0" encoding="utf-8"?>
<!-- Generator: Adobe Illustrator 19.1.0, SVG Export Plug-In . SVG Version: 6.00 Build 0)  -->
<svg version="1.1" id="Layer_1" xmlns="http://www.w3.org/2000/svg" xmlns:xlink="http://www.w3.org/1999/xlink" x="0px" y="0px"
	 viewBox="0 0 609 122.5" style="enable-background:new 0 0 609 122.5;" xml:space="preserve">
<style type="text/css">
	.st0{fill:#875C3C;}
</style>
<g>
	<path class="st0" d="M98.5,91.9L97,92l-2.1-0.2l-0.7-0.1l-0.5-0.3l-0.3-0.3l-0.2-0.7l-0.3-1.9v-1.3l0.2-1.4l0.1-1.9L93.1,82v-2.7
		l0.3-1.9l0.2-0.7l0.2-0.4l0.4-0.3l0.7-0.2l1.8-0.2l2.6,0.4l1.8-0.3l0.3-0.2v-0.3l-0.2-0.4l-0.1-0.5v-2.2l-0.2-3l-0.1-2.2l0.2-3.7
		l0.2-1.5v-2.2l0.1-2.2l0.1-3l0.1-2.2l-0.1-2.2l-0.2-3l-0.1-2.2l0.1-2.2V41l0.1-1.5l0.1-2.7l0.1-0.5v-0.4l-0.3-0.2l-1.9-0.2
		l-2.5,0.2l-1.9-0.2l-0.6-0.1l-0.4-0.2l-0.2-0.4l-0.1-0.6l-0.1-1.9l0.1-2.6v-1.9l-0.1-1.9L93,23.2l0.2-1.8l0.2-0.7l0.3-0.4l0.5-0.3
		l0.7-0.2l2.1-0.2l2.9,0.4l4.3,0.1l2.9-0.4l2.2-0.1l2.1,0.1l2.9,0.4l2.2,0.1l2.1-0.1h2.9l2.2-0.1l3.5-0.1l1.5-0.1l4.3,0.1l5-0.1h2
		l3.7,0.3l3.7,0.6l1.9,0.4l3.4,1.2l3.4,1.8l2.9,2.3l2.4,2.8l1.9,3.3l0.9,3.5l0.3,3.9l-0.1,1.8l-0.7,3.6l-1.4,3.3l-1,1.5l-1.2,1.4
		l-1.5,1.2l-0.5,0.6l-0.2,0.6l0.2,0.6l0.5,0.5l1.7,1.6l1.5,1.7l1.3,1.8l2,4.1l1.1,4.3l0.1,2.2l-0.1,2.2l-0.2,2l-0.4,1.8l-0.6,1.8
		l-0.9,1.8l-1,1.7l-1.3,1.5l-1.3,1.4l-1.5,1.3l-1.6,1.2l-1.7,1.1l-1.8,0.9l-1.8,0.6l-2,0.5l-1.9,0.4l-2,0.4l-4,0.6l-2,0.2l-2,0.1
		H131l-3.6-0.2l-5.8-0.2h-2.9l-4.3-0.1l-2.9,0.1h-4.3l-2.9-0.2l-4.3,0.1L98.5,91.9z M170.7,73.8l-0.1,2.5l-0.3,2.1l-0.4,2l-0.6,1.9
		l-1,2.2l-1.4,2.1l-1.4,1.7l-1.3,1.4l-1.6,1.4l-1.7,1.3l-1.9,1.2l-2.3,1.2l-1.9,0.6l-2.1,0.6l-2.1,0.4l-2,0.3l-2,0.4l-2.1,0.3
		l-2.1,0.2l-1.7,0.1h-4.2l-2.1-0.1l-3-0.2l-2.1-0.1h-16.6l-2.9-0.2h-2.2l-2.1,0.1l-1.5,0.2l-1.5,0.1l-2.1-0.2l-0.7-0.1l-0.5-0.3
		l-0.3-0.3l-0.2-0.7l-0.3-1.6h0.3l1.5-0.2l2-0.1h2l2.9,0.2h16.7l2,0.1l3,0.2l2.2,0.1h7.3l2-0.1l2.2-0.2l2.1-0.3l2-0.4l2-0.3l2.1-0.4
		l2-0.5l2.3-0.8l2-1.1l1.9-1.2l1.5-1.2l1.7-1.4l1.4-1.5l1.4-1.7l1.3-2l1-2l0.7-2.1l0.4-2l0.3-2.2l0.1-2.5l-0.2-2.7l-0.4-2.3
		l-0.5-1.6l1,1.5l1,2l0.4,1.1l0.6,2.7L170.7,73.8z M100,83.7l0.1,0.1l0.2-0.1l0.1-0.1l0.1-0.2h-0.3l-0.2,0.1V83.7z M102.6,85.3
		l0.2,0.2l0.2-0.1l0.1-0.2v-0.1L103,85h-0.3l-0.1,0.1V85.3z M103.1,83.9l0.2,0.1h0.2l0.1-0.2v-0.2l-0.1-0.2l-0.2,0.1l-0.2,0.2V83.9z
		 M104.9,81.1l0.3,0.3l-0.1,1l0.7,0.1h0.2l0.1-0.1l0.3,0.2l0.2,0.1h0.8l0.1-0.2v-0.3H107l-0.1,0.1l-0.4,0.1l-0.4-0.1l-0.2-0.4
		l-0.1-0.5h0.1v-0.1l-0.1-0.5v-0.2l-0.1-0.2v0.2h-0.2l-0.6-0.3V81.1z M106.3,84.2l-0.1-0.2l-0.1-0.4l-0.1-0.1v-0.1l-0.1,0.2
		l-0.1,0.1v0.6l0.1,0.3l0.2,0.1l0.1-0.2l0.1-0.1V84.2z M106.3,78.9l0.6,0.2l0.2,0.1h0.1l-0.1-0.1l-0.3-0.1l-0.2-0.1H106.3z
		 M106.9,65.9l0.2,0.4l0.4,0.2l0.3,0.5l-0.1,0.4l-0.5,0.6l-0.2,0.6l0.7-0.3l0.8,0.2l0.2,0.1l0.2-0.1l0.1-0.2v-0.2l-0.8-0.3l0.4-0.8
		v-0.3l-0.4-0.2l-0.6-0.5L106.9,65.9z M106.9,78.3l0.2,0.1l0.3-0.3l-0.5-0.3V78.3z M108.6,81.3h0.2l-0.3-0.2l-0.1-0.1l-0.2-0.1V81
		l0.1,0.1l0.2,0.1L108.6,81.3z M109.1,73.6l-0.3,0.6l0.7,0.2l0.1-0.1l0.2,0.2v0.1l0.1,0.7l-0.3,0.3h-0.2l-0.1,0.2l0.2,0.2h0.3
		l0.5,0.1l0.4,0.1l-0.1-0.4l-0.3-0.3l0.2-0.7l0.4-0.5l-0.1-0.2V74l0.4-0.5l0.7-0.7l0.1-0.3l-0.2-0.2l-0.2,0.1l-0.9,0.4l-0.8,0.6
		l-0.2,0.1l-0.1,0.2l-0.2-0.1H109.1z M110.8,85.8l-0.3,0.1l-0.2,0.1l-0.2-0.1l-0.3-0.1h-0.2l0.2,0.3l0.4,0.1l0.6,0.1V85.8z
		 M110,55.5l0.2,0.7v0.2l0.1,0.2l-0.2,0.5l0.3,0.5h0.1l0.2-0.1l-0.1-0.5l0.1-0.2v-0.7l-0.3-0.8l-0.3-0.3L110,55.5z M111.1,62.9
		l-0.5,0.1l-0.4,0.2l0.6,0.6l0.5,0.1l0.2,0.2l0.2,0.1l0.2,0.2l0.5,0.9v0.6l-0.6,0.7l-0.1,0.8l-0.8,0.5l0.3,0.4l0.6,0.3l0.4-0.5
		l0.3-0.4l-0.4-0.3l0.2-0.5h0.5l0.5,0.1l0.4-0.4l0.2-0.4l-0.1-0.4h-0.3l-0.2,0.3H113l-0.2-0.2v-0.6l-0.2-1l-0.2-0.2l-0.2-0.1
		l-0.1-0.5l-0.1-0.6H111.1z M111.3,56.2l0.3,0.5h0.3v-0.1h0.4l0.2-0.1l-0.2-0.3l-0.4-0.3h-0.6V56.2z M112,78.8l0.4,0.1h0.7l0.1-0.2
		l-0.2-0.2l-0.7-0.3l-0.4,0.3l-0.2,0.2l-0.2,0.1H112z M112.6,84.6l-0.8-0.7l-0.1,0.5l-0.1,0.2l0.1,0.3V85l0.1,0.1l0.3,0.2v-0.5
		l0.1-0.2H112.6z M113.7,86.3l-0.1-0.2l-0.1-0.1l-0.2-0.1h-0.1l-0.1,0.3l0.4,0.3L113.7,86.3z M113.2,52.5l0.2,0.7l0.7,0.1l0.7-0.3
		l0.7-0.2h0.8l-0.2-0.2l-0.2-0.1l-0.4-0.4l-0.3-0.2l-0.3-0.1l-0.9,0.1L113.2,52.5z M115,51.2l0.3,0.1l0.2,0.1l1.1-0.1l0.1-0.1
		l0.2-0.1l0.2-0.3l-0.3-0.1h-0.2v-0.1h-0.3l-1.2,0.2L115,51.2z M116.4,71.9l-0.5,0.5l-0.3,0.4l-0.3-0.2h-0.1l-0.1,0.4h0.5l0.6-0.3
		L116.4,71.9z M116.9,59.8l-0.2-0.4h-0.2v0.2L116.9,59.8L116.9,59.8z M117.2,58.4l-0.2-0.1l-0.2,0.1l0.1,0.3l0.4,0.2l0.1-0.1v-0.2
		L117.2,58.4z M119,55.8l0.8,0.2l0.5,0.1l0.6-0.3l-0.1-0.6H120L119,55.8z M120.8,46.1l0.2,0.6l0.4,0.4l0.6,0.3l0.7,0.1h2.2l2.9,0.1
		h2.2l2.2-0.1l2.9-0.1l2.2-0.1l2.5-0.3l2.2-1l1.5-1.7l0.6-2.5l-0.4-2.3l-1.3-2l-2-1.5l-2.7-0.5h-2.2l-1.5,0.1l-1.6,0.2H128l-3.1-0.1
		l-2.2-0.1l-0.6,0.2l-0.5,0.4l-0.4,0.5l-0.1,0.6l-0.1,2.6v1.8l-0.1,1.8L120.8,46.1z M146.1,69.2l-0.6-3.2l-1.7-2.3l-2.4-1.4
		l-3.1-0.4h-15.6l-0.6,0.1l-0.5,0.3l-0.3,0.5l-0.2,0.6v11.4l0.2,0.6l0.3,0.5l0.5,0.4l0.6,0.1h15.6l3.5-0.6l2.4-1.7l1.4-2.3
		L146.1,69.2z M122.1,51.7l0.1-0.3l-0.1-0.1l-0.5,0.2l-0.1,0.5l0.3,0.3l0.4,0.1l0.1-0.3L122.1,51.7z M122.3,54.6l-0.4,0.6l0.5,0.3
		v-0.4L122.3,54.6z M126.5,45.1h-3.3l0.1-1.5l0.1-1.8V40l0.1-2l1.4,0.1h1.4l1.6,0.1h4.6l1.7-0.2l1.4-0.1h1.9l1.9,0.4l1.2,0.9
		l0.8,1.2l0.1,0.6H141l-1.5,0.1l-1.6,0.2h-4.4l-1.6-0.1h-1.5l-2.2-0.1l-0.6,0.2l-0.5,0.4l-0.4,0.5l-0.1,0.6L126.5,45.1z M143.2,67
		l0.1,0.4h-15.1l-0.6,0.1l-0.5,0.3l-0.3,0.5l-0.2,0.6V74h-3.1v-9.7h14.7l2.4,0.3l1.6,1L143.2,67z M124.1,57.3l-0.2,0.2v0.3l0.4,0.2
		l0.3-0.3l0.4-0.1l0.1-0.3l-0.4-0.2L124.1,57.3z M124.6,52.6l0.8,0.3l0.7-0.5l-0.5-0.3l-0.4-0.3l-0.4-0.1l-0.3,0.2l-0.1,0.3
		L124.6,52.6z M127.7,53.6l0.8-0.4l0.4,0.3h0.6l0.1-0.1v-0.2l-0.4-0.3h-0.8l-0.7-0.6l-0.9,0.3l-0.2,0.5l0.4,0.4L127.7,53.6z
		 M126.7,54.8l0.5,0.6l0.3-0.8L126.7,54.8z M129.9,51.1l-0.2,0.7l0.1,0.5l0.5-0.4l0.2-0.8v-0.5l-0.5-0.1l-0.2,0.2L129.9,51.1z
		 M130.3,56l-0.3,0.2l-0.1,0.2l0.1,0.1l0.4-0.1l0.4-0.2L130.3,56z M132.8,53.2l-0.2-0.2l-0.3,0.3l-0.1,0.4l0.4-0.1L132.8,53.2z
		 M133.3,55.2l-0.3-0.5h-0.4l-0.2,0.1l0.1,0.3l0.4,0.2L133.3,55.2z M133.2,57.9l-0.2,0.5l0.2,0.3l0.6-0.2l0.3-0.5l-0.4-0.3
		L133.2,57.9z M136.5,53.2h0.2l0.1-0.1l0.1-0.2l-0.1-0.2h-0.2l-0.2,0.1V53L136.5,53.2z M137.2,50.1h0.2l0.1-0.2l-0.1-0.2H137v0.2
		L137.2,50.1z M138,53l0.2,0.1l0.2-0.1l0.1-0.1l-0.1-0.2l-0.3-0.1l-0.2,0.1v0.2L138,53z M145.4,30.3l0.1,0.5l0.2,0.1l0.2,0.2
		l0.1,0.2l0.2-0.2l-0.1-0.4l-0.2-0.2l-0.1-0.2l-0.2-0.1L145.4,30.3z M146.4,57l-0.2-0.1l0.1,0.3l-0.1,0.3h0.3l0.3,0.1h0.1l0.3-0.2
		l-0.1-0.3h-0.2l-0.2-0.1H146.4z M147,86.1l-0.1-0.1h-0.2l-0.1,0.1l-0.2,0.1l-0.2,0.2l0.2,0.2l0.2,0.1l0.4-0.2V86.1z M146.8,29.8
		L147,30l0.1-0.1h0.1l0.1-0.2l-0.1-0.2H147l-0.1,0.1L146.8,29.8z M147.5,62.7l-0.1-0.2l-0.2,0.1l-0.3,0.3l-0.1,0.4l0.1,0.1h0.1
		l0.3-0.1l0.2-0.3V62.7z M147,28.9l0.2,0.2l0.1-0.1v-0.3H147V28.9z M147.4,57.8l-0.1,0.2l-0.1,0.1v0.1h0.1v0.3l0.2-0.2l0.2-0.1v-0.1
		l0.1-0.2l0.2-0.3h-0.2l-0.2,0.1h-0.1L147.4,57.8z M147.8,28.5l0.2,0.2l0.1,0.2l0.6,0.1l-0.3-0.5l-0.4-0.4l-0.1,0.1L147.8,28.5z
		 M147.8,48.3l0.2,0.4l0.4,0.3l0.4,0.2l0.1-0.3v-0.2l-0.1-0.3l-0.4-0.4h-0.3l-0.2,0.1L147.8,48.3z M148.1,55.1l-0.1,0.1l0.4,0.5h0.1
		l0.3,0.1l0.4,0.2l-0.2-0.3l-0.1-0.3v-0.1l-0.5-0.3L148.1,55.1z M148.1,26.1l0.4,0.2l0.2-0.4l-0.1-0.1h-0.3l-0.2,0.1V26.1z
		 M148.5,30.7L148.5,30.7l-0.3-0.1l-0.1,0.1v0.2h0.1l0.1,0.1h0.1l0.2-0.1L148.5,30.7z M150.3,85.4l-0.2-0.1l-0.4-0.1l-0.5-0.3
		L149,85h-0.3l-0.4,0.1l-0.2,0.4l0.2,0.2h0.7l0.1-0.1h0.2l0.4-0.1L150.3,85.4z M148.6,54.2l-0.2,0.2l-0.1,0.2l-0.1,0.1h0.4l0.3-0.1
		l0.1-0.3v-0.4l-0.1-0.3v-0.3h-0.1l-0.2-0.1l-0.3-0.2v0.3l0.1,0.4l0.1,0.2L148.6,54.2z M148.7,78v0.4h0.3l0.1-0.1h0.1l0.2-0.3
		l-0.3-0.4l-0.3-0.1l-0.2,0.1v0.2L148.7,78z M148.9,29.1l0.1,0.5l0.2,0.1h0.1l0.1,0.1h0.3l0.2-0.3l-0.1-0.3l-0.1-0.2l-0.2-0.1h-0.3
		L148.9,29.1z M150,33.9l-0.3-0.1l-0.4,0.3l-0.3,0.3l0.3,0.1h0.2l0.5-0.2V33.9z M149.2,71.5v0.8l0.1,0.1l0.1,0.4l0.1,0.3v0.2
		l0.6-0.3l0.2-0.2v-0.1l0.1-0.2v-0.1l0.2-0.2l0.2-0.1h0.1l0.2-0.2l1.4-0.3l0.8,0.1l0.5,0.4l0.5,0.5l0.6,0.2l0.6,0.3l0.1,0.2l0.1,0.4
		l0.1,0.3l0.2,0.4l0.4-0.1l0.2-0.1l0.5-0.5l0.3-0.4l-0.1-0.2l-0.9-0.9l-0.2-0.3l-0.3,0.3l-0.3,0.2l-0.4-0.1l-0.4-0.2l0.1-0.4v-0.4
		l0.2-0.3l0.1-0.3v-0.1l-0.3-0.3l-0.2-0.1l-0.1-0.1l-0.6-0.4l-0.6,0.2l-0.1,0.2v0.2l0.2,0.2l0.2,0.1l0.1,0.4l-0.4,0.2h-1.3l-0.4,0.1
		l-0.7-0.1l-0.2,0.2l-0.2,0.1H149.2z M149.4,48.2v0.5l0.3,0.1h0.6l0.3-0.1l0.4-0.2l-0.2-0.4l-0.4-0.2l-0.4-0.1L149.4,48.2z
		 M149.8,45.3h0.3l0.2,0.1h0.1l0.3,0.3l0.3-0.1v-0.2l-0.1-0.1l-0.3-0.1l-0.1-0.1h-0.1l-0.4-0.2h-0.4l-0.1,0.1v0.1L149.8,45.3z
		 M149.7,51.9l-0.1,0.1l0.1,0.2l0.1,0.1l0.2-0.1v-0.3H149.7z M150.1,43.3l-0.2,0.2l-0.2,0.3l0.3,0.4l0.5-0.1V44l0.1-0.2l0.1-0.1
		v-0.1l0.2-0.1l0.1-0.1h0.1l-0.5-0.1H150.1z M151,61.3l-0.2-0.2h-0.1l-0.2-0.1l-0.3,0.2v0.2l0.1,0.1h0.6L151,61.3z M151.4,78.8
		l-0.1-0.2v-0.2l-0.3-0.1l-0.2-0.1l-0.2,0.2l-0.3,0.1v0.1l-0.1,0.2v0.5h0.3l0.3,0.1h0.1l0.4-0.2v-0.1l0.1-0.1V78.8z M150.5,27.3
		L150.5,27.3l0.1,0.2l0.2-0.2l0.2-0.1l-0.1-0.2l-0.2,0.1L150.5,27.3z M150.5,34.9l0.1,0.1l0.3-0.1l0.1-0.1v-0.2h-0.3L150.5,34.9z
		 M151,81.8l-0.1-0.2l-0.1-0.1l-0.2-0.1l-0.1,0.2v0.2l0.2,0.1l0.2,0.2L151,81.8z M151.2,51.4H151l-0.2,0.2l-0.1,0.2v0.1l-0.1,0.1
		v0.3l0.3,0.2l0.3-0.1h0.2l0.6,0.2l-0.1-0.3v-0.2L151.2,51.4z M151.7,64.5v-0.3l-0.2-0.1l-0.1-0.1h-0.3l-0.2,0.1l-0.2,0.4v0.1
		l0.1,0.2v0.1l0.2,0.2h0.4l0.4-0.4L151.7,64.5z M152.6,74l0.2-0.1l0.3-0.3l0.2-0.3v-0.1l-0.3-0.1l-0.2-0.3h-1.5l-0.1,0.2v0.1
		l-0.3,0.3l-0.1,0.2l-0.1,0.1l0.1,0.1l0.2,0.6h0.8l0.3-0.1l0.2-0.2L152.6,74z M151.2,44.4l0.1,0.2l0.2,0.3l0.1-0.1l0.2-0.1v-0.2
		l-0.3-0.2h-0.2v0.1H151.2z M151.8,75.1L151.8,75.1l-0.3-0.1v0.4l-0.1,0.3V76l-0.1,0.3v0.4l0.3,0.3h0.6l0.2-0.2l-0.1-0.4l-0.1-0.1
		V76l-0.2-0.3l-0.1-0.4L151.8,75.1z M151.4,29.4l0.2,0.1l0.2-0.3v-0.6l-0.4,0.3V29.4z M151.6,40.4l0.2,0.1l0.1,0.1v-0.3l0.2-0.2
		v-0.3h-0.4l-0.1,0.2l-0.1,0.1v0.1L151.6,40.4z M151.6,41.2L151.6,41.2l0.4,0.1l0.1-0.2L152,41l-0.2-0.1l-0.1,0.2L151.6,41.2z
		 M152.3,83.8l-0.1-0.2l-0.3-0.1h-0.2l-0.1,0.2v0.2l0.1,0.4h0.2l0.1-0.1h0.1L152.3,83.8z M151.9,38.3l-0.2,0.2v0.1l0.1,0.2h0.1
		l0.2-0.1l0.1-0.1v-0.2L151.9,38.3z M152.4,56.4v-0.2H152l-0.2,0.3v0.4l0.1,0.2h0.2l0.3-0.3l0.1-0.3L152.4,56.4z M151.8,70l0.2,0.2
		h0.4v-0.5l-0.1-0.1l-0.2,0.2L151.8,70z M153.8,81.9l-0.1-0.3l-0.5-1l-0.3-0.7l-0.1-0.2l-0.3-0.5l-0.4-0.7v0.3l-0.1,0.6l-0.2,0.6
		v1.8l0.2,0.4l0.3,0.3l0.5,0.1h0.5l0.3-0.3L153.8,81.9z M152.6,44.7l-0.4,0.2l-0.1,0.1l-0.1,0.2l0.1,0.1l0.1,0.2v0.3l0.3,0.1h0.3
		l0.6-0.2l0.2-0.1l0.3-0.1v-0.2l-0.2-0.2l-0.3,0.1l-0.2-0.2l-0.3-0.1L152.6,44.7z M152.9,53l-0.2,0.1l-0.3,0.3l0.2,0.2l0.3-0.2V53z
		 M153.4,68.7L153.4,68.7l-0.3-0.2h-0.2l-0.4,0.1v0.3l0.1,0.3l0.3,0.1h0.6l0.1-0.2l0.1-0.1L153.4,68.7z M152.6,76.4l0.1,0.2l0.1,0.4
		l0.8,0.2v-0.1l0.3-0.6l0.2-0.2l0.1-0.3l0.1-0.1l0.4-0.3l0.3-0.3h-0.2l-0.5-0.1l-0.8-0.1l-0.1,0.1l-0.3,0.4l-0.4,0.4h-0.1V76.4z
		 M153.5,54.3h-0.4l-0.2,0.1l-0.1,0.1v0.3h0.3l0.2-0.1l0.2-0.2V54.3z M152.9,30.7l0.1,0.1v0.1h0.5l0.4-0.3l-0.3-0.1h-0.3L152.9,30.7
		z M152.9,32.9l0.2,0.4l0.6,0.2l-0.1-0.5l-0.2-0.2l-0.2-0.1H153L152.9,32.9z M153.5,58.7l-0.4,0.1l0.1,0.3l0.1,0.4v0.1l0.2,0.2
		l0.2,0.3l-0.2,0.6v0.6l0.6-0.6l0.5-0.6l-0.1-0.1l-0.3-0.4l-0.2-0.4L153.5,58.7z M154,41.1l-0.1-0.2l-0.1-0.1l-0.3-0.2l-0.1,0.2
		l-0.1,0.1V41l0.1,0.3l0.3,0.1h0.1l0.1-0.1L154,41.1z M157.2,61.1l-2.2,1.2l-0.3,0.3l-0.2,0.3l-0.3-0.1l-0.3-0.2l-0.3,0.1h-0.3
		l0.2,0.4l0.1,0.3v0.2h0.4l0.5,0.1l0.6-0.6l0.4-0.2l0.3-0.3l0.3-0.1h0.4l0.3-0.1h0.4l0.6-0.3l0.1-0.1v-0.3l0.1-0.4l-0.1-0.2
		l-0.2-0.2L157.2,61.1z M153.7,50.8v0.4l-0.1,0.1l-0.1,0.9l0.2,0.4l0.5,0.4v-0.1l0.3-0.1l0.6-0.6l0.3-0.4v-0.1l0.2-0.4l0.1-0.4
		l-0.1-0.5l-0.3,0.2l-0.2,0.1H155l-0.1,0.3l-0.3,0.3l-0.4-0.2l-0.1-0.3l-0.3-0.2L153.7,50.8z M154,43.5l0.1-0.1l0.2-0.1v-0.1
		l-0.3-0.1l-0.4-0.1v0.3L154,43.5z M154,46.2l-0.2,0.2l-0.1,0.4v0.3l0.2-0.2l0.3-0.2l0.2-0.1l0.2-0.2h0.2l0.1-0.2l-0.1-0.2l-0.3-0.3
		h-0.2l-0.2,0.2L154,46.2z M154.2,79.3l0.5-0.2l-0.2-1l1.2-0.4l-0.6-0.1l-0.6-0.2v0.1l-0.1,0.2l-0.1,0.3l-0.1,0.4l-0.3,0.7l-0.1,0.3
		L154.2,79.3z M154.1,39.2l0.1,0.5v0.2l0.2,0.2l0.3-0.3l-0.1-0.3v-0.3l-0.1-0.2L154.1,39.2z M154.4,33.9l0.3,0.2l0.2,0.1l0.1,0.1
		l0.2,0.1l0.2-0.1v-0.1l-0.1-0.3l-0.2-0.3l-0.3-0.3l-0.1-0.3l-0.1-0.1v0.2l-0.1,0.3v0.3L154.4,33.9z M155.5,53.6l-0.1,0.3l-0.1,0.1
		l-0.5,0.3l-0.3,0.3l-0.1,0.2h0.2l0.3-0.1l0.4-0.2l0.1-0.2v-0.1l0.2-0.1l0.2-0.2l0.3-0.1l0.2-0.1l0.1-0.5v-0.6l-0.3,0.4L155.5,53.6z
		 M155.8,85.2l-0.1-0.5v-0.3l-0.1-0.2l-0.4-0.1l-0.5-0.1l-0.1,0.1l-0.1,0.2l-0.1,0.4l0.5,0.5H155.8z M156.2,81.3l0.5-0.2l0.4-0.3
		l0.2-0.2v-1.7l-0.1,0.2l-0.6,0.8l-0.1,0.2l-0.1,0.1l-0.3,0.4l-0.3,0.6l-0.4,0.3l-0.3,0.1l-0.1,0.1l-0.3,0.5l-0.2,0.3v0.2l0.8-0.4
		h0.1l0.2-0.1l0.3-0.2v-0.1l0.1-0.1v-0.3L156.2,81.3z M155.1,35.8l0.2-0.4v-0.3h-0.2l-0.1,0.3v0.2L155.1,35.8z M155.5,37.9l-0.1,0.2
		l0.1,0.2l0.1,0.1h0.3l0.3-0.1l0.1-0.1l0.2-0.1l-0.3-0.3l-0.4-0.1L155.5,37.9z M155.7,30.5h0.2l0.1,0.1l0.2-0.1v-0.3l-0.3-0.1
		l-0.2,0.2V30.5z M156.8,44.8h-0.6L156,45l-0.3,0.2l0.2,0.1l0.1,0.2h0.5l0.3-0.3V44.8z M156.2,75.2L156.2,75.2l0.1,0.3l0.4-0.1h0.3
		l0.1-0.3l0.1-0.2l0.1-0.1l-0.7-0.1l-0.2,0.2l-0.3,0.2L156.2,75.2z M156.9,57.3l-0.3-0.2l-0.3,0.1l-0.1,0.2v0.3l0.2,0.2l0.3-0.1
		l0.2-0.2V57.3z M158,83l-0.4-0.3l-0.5-0.4l-0.2,0.4l-0.2,0.3l0.1,0.3l0.2,0.4l0.4-0.1l0.4-0.2L158,83z M158,72.8l0.1,0.4l0.1,0.3
		v0.1l0.1,0.4v0.4l0.2,0.3l0.1,0.3l0.6,0.1l0.4-0.2l0.2-0.5l-0.1-0.1v-0.1l-0.2-0.3h-0.4l-0.3-0.2l-0.2-0.1v-0.7l-0.1-0.2l-0.1-0.3
		l-0.3-0.6l-1-0.6l-0.2,0.2l-0.1,0.2l0.3,0.4l0.2,0.3l0.4,0.3L158,72.8z M157.3,45.8l0.1,0.4v0.5l0.2,0.5l0.4,0.1l0.6-0.4h0.1
		l0.1-0.4l0.1-0.3l0.1-0.1l-0.3-0.3l-0.3,0.1h-0.2l-0.5,0.1L157.3,45.8z M157.3,48.5l0.3,0.2h0.2l0.2-0.1l-0.3-0.3l-0.3-0.1
		l-0.1,0.1V48.5z M157.9,63.5l-0.1,0.1v0.1l-0.1,0.3l0.2,0.2l0.1,0.2l0.3,0.1h0.2l0.3-0.1V64l-0.1-0.2l-0.2-0.2l-0.3-0.1H157.9z
		 M158.5,50.2l-0.1-0.3h-0.1l-0.2,0.1v0.3l0.1,0.2l0.2,0.1v-0.1h0.1V50.2z M158.5,77.7l0.1-0.2l0.1-0.1l0.2-0.5l-0.2-0.3l-0.3,0.1
		l-0.1,0.1l-0.2,0.4v0.2l0.1,0.3H158.5z M158.9,48.6l-0.5-0.1v0.2l0.1,0.3l0.2,0.4l0.2-0.2V48.6z M159.5,65.6l-0.9,0.6l-0.2,0.2
		l1.2,0.6l0.4,0.5l0.5,0.5l-0.1,0.3l-0.1,0.2l0.4,0.4l0.2-0.2l0.2-0.1l-0.1-0.3v-0.2l-0.1-0.1l0.1-0.3l0.1-0.4v-0.7l0.2-0.2l0.3-0.2
		v-0.4l0.1-0.4l-0.2-0.4l-0.1-0.3l-0.1-0.2l-0.3-0.2l-0.3-0.3l-0.2,0.2l-0.3,0.2l0.1,0.4v0.3l0.1,0.1l-0.3,0.1l-0.2,0.2L159.5,65.6z
		 M159.6,68.4l-0.1-0.1l-0.1-0.2l-0.3,0.1h-0.4l-0.1,0.2l-0.1,0.1l0.1,0.3v0.1l0.1,0.1l0.4,0.2l0.4-0.2l0.1-0.3V68.4z M159.3,70.7
		l-0.3,0.2l-0.3,0.3l-0.1,0.3v0.2l0.3,0.2l0.3,0.1l0.3-0.2l0.2-0.2h0.3l0.2-0.1l0.6,0.4l0.1-0.1l0.1-0.2l0.3-0.2l-0.2-0.3l-0.2-0.4
		l-0.6,0.2l-0.1-0.1l-0.2-0.1H159.3z M159.7,78.4l-0.1,0.1l-0.3,0.2l-0.4,0.3v0.1l-0.2,0.6l-0.1,0.1l0.2,0.3l0.3,0.1V80l0.3-0.6
		v-0.1l0.1-0.4l0.1-0.3L159.7,78.4z M162.2,76.8l-0.1-0.4l-0.1-0.6l-0.1,0.5v0.1l-0.1,0.2l-0.1,0.3l-0.5-0.2l-0.7-0.1h-0.2l-0.2,0.1
		h-0.3l-0.2,0.1l0.3,0.5l0.3,0.6l0.1,0.1l0.2,0.4l0.2,0.6l0.3-0.2l0.3-0.3l0.1-0.3l0.1-0.2v-0.2l0.4-0.4l0.2-0.3l0.1-0.1V76.8z
		 M160.2,40.3h0.2l0.1-0.1l0.1-0.2v-0.2l-0.2-0.1l-0.2,0.2V40.3z M161.3,72.3L161.3,72.3l-0.1,0.3l-0.1,0.3L161,73l-0.3,0.2
		l-0.3,0.3v1l0.1,0.3l0.2,0.3h0.3l0.3-0.1l1,0.2l0.1,0.3l0.2,0.2l0.5-0.1v-0.2l0.1-0.3l-0.2-0.5l-0.1-0.2l-0.1-0.4l-0.2-0.4v-0.2
		l-0.4-0.5l-0.2-0.3l-0.1-0.1L161.3,72.3z M160.9,47.4l0.1,0.1v0.1h0.3l0.1-0.3l-0.1-0.1V47L160.9,47.4z M164.5,49.7l0.7-1.6l0.7-2
		l0.6-2.1l0.3-1.9l0.1-2.1l-0.1-2.2l-0.2-2.3l-0.4-1.8l0.7,1l1,1.6l0.7,1.4l0.3,1.4l0.2,2l0.1,2.3l-0.1,2.1l-0.3,1.9l-0.5,1.9
		l-0.7,2.1l-0.8,1.7l-1.1,1.7l-1.5,1.7l-0.4,0.4l-0.2-0.2l-1.4-1.7l-0.3-0.3l-0.9-0.8l0.9-0.8l1.5-1.7L164.5,49.7z"/>
	<path class="st0" d="M179.7,92.1l-3.1-0.1l-2.2-0.4l-0.8-0.1l-0.5-0.1l-0.4-0.4l-0.2-0.6l-0.3-1.9l0.2-2.7l0.1-3.9l0.1-2.6l0.3-1.9
		l0.1-0.7l0.3-0.5l0.3-0.4l0.6-0.2l1.5-0.1l2.1,0.6l1.4-0.1l0.6-0.2l0.4-0.3l0.2-0.5l0.2-0.7l0.3-2.2l0.1-3l-0.1-4.4l-0.3-3
		l-0.1-4.4v-7.4l0.2-3l0.1-4.4l0.2-3l-0.2-2.2l-0.2-0.7l-0.3-0.4l-0.5-0.3l-0.6-0.2l-1.4-0.2l-2,0.2l-1.4-0.2l-0.6-0.1l-0.4-0.3
		l-0.2-0.3l-0.1-0.6l-0.3-1.9l-0.3-2.6v-3.8l0.2-2.6l0.3-1.9l0.1-0.7l0.2-0.6l0.3-0.4l0.7-0.2l2.2-0.2l3.1,0.6l2.2,0.2h5.3l2.3,0.1
		l3.7-0.2l1.5-0.2l6-0.1h3.8l3.8,0.1h1.5l4.4,0.1l1.6,0.1l3.7,0.1l3.8-0.1h3.8l2.2-0.2l3.1-0.4l2.2,0.2l0.6,0.2l0.3,0.4l0.2,0.5
		l0.6,4.2v5.6l0.1,2.8v5.6l-0.5,3.5l-0.2,0.7l-0.1,0.6l-0.4,0.4l-0.6,0.2l-1.8,0.3l-2.6-0.2l-1.9-0.1h-1.8l-2.5-0.1l-2.5-0.4
		l-0.4-0.3l-0.3-0.3l-0.2-0.6l-0.3-1.3l0.3-1.8l0.1-1.3v-1l-0.1-0.5l-0.3-0.2l-2.6-0.2l-3.7,0.4l-2.6,0.2l-6.3-0.2l-2.6,0.1
		l-0.7,0.1l-0.4,0.4l-0.3,0.4l-0.1,0.6v2.4l-0.1,3.2l0.3,2.3l0.2,0.7l0.2,0.5l0.4,0.2l0.7,0.2l2,0.3h1.5l1.4-0.1h2.1l2.1-0.1
		l1.4-0.1l1.4,0.1l2.8,0.4l0.6,0.2l0.4,0.3l0.2,0.6l0.3,1.9l-0.3,2.6l-0.1,2l0.1,1.9l0.1,2.6l-0.2,1.9l-0.2,0.7l-0.8,0.8l-0.7,0.2
		l-1.9,0.2l-2.7-0.4l-2-0.2l-1.9,0.1l-1.3,0.2l-3.3,0.2l-1.1,0.1l-0.9,0.5l-0.7,0.8l-0.2,1l0.1,2.1l0.1,1.5l0.2,1.4v2.1l0.1,0.5
		l0.1,0.4l0.3,0.3l0.4,0.1l2.7-0.1l3.6-0.2h7.2l1.9,0.1h2.6l0.5,0.1l0.4,0.1h0.3l0.3-0.3l0.3-1.6l-0.1-1.2l-0.2-1.2l0.3-1.7l0.2-0.6
		l0.2-0.4l0.5-0.2l0.7-0.1l1.8-0.1l2.5-0.1h1.9l3.1-0.3l1.3-0.1l1.9,0.2l0.7,0.2l0.5,0.4l0.3,0.5l0.2,0.7l0.2,2.1l-0.6,2.9l-0.2,2.2
		l0.1,2.1l0.2,2.8v2.2l0.2,2.1l0.2,2.9l-0.2,2.1l-0.2,0.7l-0.3,0.5l-0.5,0.3l-0.7,0.2l-2.2,0.3h-1.6l-1.6-0.1l-2.3-0.1h-17.6
		l-3.2-0.3l-2.2-0.1l-2.3,0.1l-3.1,0.3h-2.3l-5.4-0.1h-4.6l-3.1-0.1L179.7,92.1z M176.5,86.3l-0.3-0.4l-0.4-0.1l-0.1,0.1V86l0.3,0.3
		H176.5z M243.1,92.2l0.1,1.5l-0.2,2.1l-0.2,0.7l-0.3,0.5l-0.5,0.3l-0.7,0.2l-2.2,0.3h-1.6l-1.6-0.1l-2.3-0.1H216l-1.6-0.2l-3.8-0.2
		l-2.3,0.1l-3.1,0.3H199l-6.1-0.1l-3.1-0.1h-2.3l-2.3,0.1h-1.5l-4.6-0.6l-0.5-0.1l-0.4-0.4l-0.2-0.6l-0.2-1.4h2l2.2-0.1l3.8,0.1h6.1
		l1.6,0.1h6.2l3.2-0.3l2.2-0.1l3.6,0.2l1.6,0.2l20,0.1l1.7,0.1h1.9l2.4-0.3l0.9-0.3l0.7-0.3l0.5-0.4l0.4-0.3l0.3-0.4l0.3-0.5
		l0.2-0.6l0.2-1l0.3-2.1l-0.1-1.9l-0.2-1.5l-0.1-4.1l-0.2-3l-0.1-1.9l0.2-1.8l0.3-1.4l0.1-0.4l1.4,0.1l0.7,0.2l0.5,0.4l0.3,0.5
		l0.2,0.7l0.2,2.1l-0.6,2.9l-0.2,2.2l0.1,2.1l0.2,2.8v2.2l0.2,2.1L243.1,92.2z M179,24.6l-0.1-0.1h-0.4v0.1l0.1,0.2l0.2,0.1l0.2-0.2
		V24.6z M180.6,26.1l-0.1-0.9l-0.5-0.3h-0.2l-0.1,0.2l0.3,0.4L180.6,26.1z M180.6,85.2l0.3,0.4l0.4-0.1l0.2-0.4l0.2-0.1l0.3-0.1
		l-0.4-0.3l-0.5,0.1H181l-0.2-0.2l-0.2,0.2V85.2z M181.6,26.6l0.1,0.1h0.3l0.1-0.2v-0.1l-0.1-0.2l-0.3,0.1l-0.1,0.2V26.6z
		 M181.6,28.8l0.1,0.5l0.6-0.4v-0.6h-0.4L181.6,28.8z M182.5,81.5l-0.2-0.1h-0.1l-0.1,0.2v0.1l0.2,0.1h0.2l0.1-0.2L182.5,81.5z
		 M182.7,29.7l0.1,0.5h0.3l0.2-0.3l0.2-0.4l-0.5-0.2L182.7,29.7z M182.8,25.3h0.2l0.1-0.1v-0.3H183l-0.2,0.1V25.3z M182.8,26.4
		L183,27l0.4,0.2l0.4-0.3l0.8-0.7l0.9-0.7h-1.3l-1.1,0.3L182.8,26.4z M185.5,29.2l-0.7-0.5l-0.7-0.3l-0.4-0.4l-0.7-0.2l0.4,0.5
		l0.2,0.3h0.3l0.6,0.8L185.5,29.2z M184.6,24.6l0.3,0.4h0.3l0.3-0.1v-0.4l-0.3-0.3l-0.3-0.1l-0.3,0.1V24.6z M185.1,30.7l0.6,0.1
		l-0.3-0.5l-0.4-0.1l-0.3,0.1v0.2L185.1,30.7z M184.8,22.9l0.2,0.4l0.3,0.1l0.3-0.3v-0.2l-0.2-0.1h-0.3L184.8,22.9z M186.6,27.1
		l-1.5-0.4l0.3,0.6l0.7-0.2l0.1,0.5l0.1,0.4L186.6,27.1z M186.7,32.1l0.3-0.2l0.2-0.2l0.2-0.1v-0.2l0.1-0.1v-0.2h-0.2l-0.2,0.1
		l-0.1,0.1l-0.2,0.4l-0.2,0.3l-0.5,0.5l0.1-0.2l0.1-0.1l0.2-0.4v-0.1l0.1-0.1V31l0.1-0.3l-0.7,0.4l-0.7,0.5l0.2,0.3l0.3,0.2l0.3,0.3
		v0.2v0.1v-0.1l0.2-0.2l0.2-0.1L186.7,32.1z M186.7,29.7h-0.3l-0.2,0.1V30l0.2,0.1l0.3,0.1l0.2-0.1v-0.2L186.7,29.7z M186.7,25.5
		l0.2,0.1l0.3-0.1l0.6-0.1l0.6-0.2l-0.1-0.1V25l-0.6-0.1l-0.5-0.1h-0.3l-0.2,0.2V25.5z M186.7,26.4l0.4,0.2l0.6,0.4l0.4,0.6l0.2-1.1
		l-0.8-0.7h-0.2l-0.5,0.1L186.7,26.4z M187.2,78.7l-0.2-0.1l0.1,0.1H187.2z M188.4,32.5h0.3l0.3-0.1h0.2l0.4-0.2l-0.4-0.1h-0.4
		l-0.2-0.1l-0.3-0.1v-0.1h-0.1l-0.2,0.1h-0.1v0.2l-0.1,0.1l-0.1,0.2h-0.2l-0.2,0.1l-0.1,0.1h-0.1l0.2,0.1l0.3,0.4l0.4-0.2v-0.3h0.2
		L188.4,32.5z M187.8,29.9l-0.1,0.1l-0.2,0.4v0.1l-0.1,0.1l0.1,0.1h0.1l0.2-0.1l0.2-0.3l0.1-0.1l0.2-0.1h0.3L189,30h0.4l0.4-0.2
		l0.5-0.3v-0.1l-0.1-0.1l-0.3,0.1h-0.4l-0.6,0.4h-0.7l-0.2,0.1H187.8z M189.1,30.7l0.2-0.4v-0.1h-0.2l-0.2,0.2l-0.2,0.1l-0.1,0.2
		l-0.4,0.4l-0.4,0.2l-0.1,0.1l-0.1,0.2l0.2-0.1h0.2l0.1-0.2l0.4-0.2l0.1-0.1L189.1,30.7z M187.9,29h0.1l0.1,0.2l0.1-0.3l0.1-0.2
		l-0.1-0.1l-0.1-0.2H188l-0.2,0.1v0.4L187.9,29z M188.4,37.1H188l-0.2,0.1l0.1,0.2l0.3,0.1l0.2-0.2V37.1z M188.6,28.9l0.2,0.2
		l0.1,0.3l0.4-0.2l0.4-0.1l0.6-0.2l-0.1-0.2v-0.2l0.6-0.4l0.2,0.1l-0.4,0.3l-0.3,0.5l0.5,0.4l0.4,0.3l0.3-0.4l0.5,0.2V30l-0.2,0.5
		l0.8,0.6l0.3-0.2l0.1-0.3l-0.3-0.2v-0.2l0.2-0.2h0.4v0.2l0.4,0.2l0.3-0.2v-0.4h0.4l0.1-0.4l0.5-0.1l0.4-0.1l-0.1-0.8l-0.3-0.9
		l-0.4,0.6v0.5l-0.3,0.4l-0.2,0.4l-0.1,0.1l-0.1-0.2l-0.2-0.1h-0.1l-0.3,0.2v0.2h-0.4l-0.6-0.5l-0.8-0.2l-0.5-0.7l0.4,0.2l0.5,0.4
		h0.2l0.4,0.1l0.2,0.1h0.2l0.5-0.5V28l-0.6,0.1l-0.5-0.2l0.1-0.1v-0.2l0.2-0.2l0.2-0.3l0.1-0.2l0.1-0.3l0.4-0.4l-0.6-0.5l0.1-0.2
		l0.1-0.3l0.1-0.2l0.1-0.3l-1.9-0.7l-0.6-0.2h-0.8l0.2,0.3l0.1,0.1v0.1h0.1l0.1,0.2l0.9,0.4l0.9,0.9l0.2,0.3l0.1,0.2l0.1,0.1
		l-0.4,0.5l-0.5,0.4l-0.6,0.1l-0.6,0.2l-0.8,0.6l-0.6,0.1h-0.5V28.9z M192.2,34.9l-0.5-0.3l-1.2,0.2l-0.4-0.1l-0.5-0.1H189l-0.3,0.4
		l0.1,0.3h2.2l0.2-0.2l0.3-0.1l0.2,0.4l0.5,0.2V34.9z M188.9,25.3l0.4,0.8l0.6,0.6l0.4-0.1l0.3-0.1l0.1-0.5v-0.6L190,25l-0.1-0.1
		h-0.1v-0.1l-0.2-0.1l-0.1-0.1l-0.6,0.1V25.3z M188.9,31.6h0.4l0.3-0.1l0.1-0.1v-0.2l-0.1-0.1h-0.2l-0.2,0.2l-0.2,0.1L188.9,31.6z
		 M189.5,33.2l-0.3-0.1h-0.3v0.2l0.1,0.3l0.4,0.2l0.1-0.1l0.1-0.2L189.5,33.2z M190.1,39.7l0.3-0.3l-0.1-0.1h-0.5l-0.1,0.2l0.2,0.2
		H190.1z M191.5,36.4l-1.1,0.2l-0.1,1l0.1,0.3l0.2,0.1l0.3-0.5V37l0.4-0.2L191.5,36.4z M190.9,42.1l0.1,0.1h0.1l0.2-0.4l-0.2-0.5
		l-0.3,0.4L190.9,42.1z M193.4,37.8l-0.1-0.2l-0.2-0.1l-0.1,0.1v0.1l0.1,0.3h0.2l0.1-0.1V37.8z M193.2,29.8l0.1-0.2l0.7-0.1v0.2v0.1
		h-0.1l-0.5,0.2h-0.1L193.2,29.8z M194.5,35.1l-0.1-0.4l-0.3-0.2l-0.3,0.2l-0.1,0.4l0.1,0.4l0.3,0.1l0.3-0.2L194.5,35.1z M194,28.4
		l0.1,0.2l0.2-0.4l0.1-0.4v-0.2l-0.1-0.1l-0.3,0.3V28.4z M195.8,33l-0.4,0.1h-0.3l-0.3-0.2h-0.2v0.3l0.3,0.1l0.5,0.1L195.8,33z
		 M194.6,82.2L194.6,82.2l0.3,0.2l0.1-0.1l0.1-0.2l-0.1-0.2h-0.1l-0.2,0.1L194.6,82.2z M196,87.2l-1-0.4l-0.2,0.1l-0.1,0.2l0.4,0.3
		h0.5l0.2,0.1L196,87.2z M195.6,73.7l0.2-0.4l-0.4-0.2l-0.3,0.1l-0.1,0.5l0.1,0.4l0.3-0.2L195.6,73.7z M195.1,26l0.2,0.3l0.3-0.1
		l0.1,0.1h0.6l0.4-0.4v-0.1l-0.4-0.1l-0.3,0.2h-0.3l-0.4-0.1L195.1,26z M195.4,84.8l-0.2,0.2l0.2,0.2h0.2V85L195.4,84.8z
		 M195.9,38.4l-0.2,0.1l-0.2,0.3v0.1l0.1,0.1h0.3l0.2-0.2v-0.3L195.9,38.4z M196.1,85.8l-0.1-0.2l-0.1-0.1l-0.2,0.1l-0.1,0.2
		l0.1,0.1l0.2,0.1L196.1,85.8z M196.9,84.3l-0.5-0.3h-0.6v0.1l0.1,0.2l0.5,0.2L196.9,84.3z M196.3,34.8l0.1-0.2l0.1-0.1l-0.5-0.1
		l0.1,0.4l0.2,0.6l0.8,0.2l-0.5-0.4L196.3,34.8z M196.9,26.8l-0.3,0.1l-0.2,0.3l0.2,0.3l0.3,0.1l0.3-0.1l0.1-0.3l-0.1-0.3
		L196.9,26.8z M198.2,83.9l-0.3-0.2h-0.4l-0.3,0.2v0.3l0.3,0.3l0.4-0.1l0.3-0.1V83.9z M197.2,82h0.1l0.1-0.1v-0.4h-0.2V82z
		 M198.1,85.7l-0.2-0.1h-0.3l-0.1,0.1v0.2l0.1,0.1h0.2l0.2-0.1L198.1,85.7z M197.6,32.6h0.5l0.4,0.1l0.3,0.4l0.1-0.7l-0.6-0.2
		l-0.4-0.1l-0.3,0.1V32.6z M197.6,75.9l0.4,0.4v-0.4l-0.1-0.3l0.3-0.2l-0.1-0.3h-0.2l-0.2,0.3L197.6,75.9z M198.3,33.9l-0.2-0.3
		l-0.3-0.1v0.4l0.3,0.2h0.1L198.3,33.9z M198.3,30.7l0.2,0.3l0.1-0.1v-0.1l0.1-0.3h-0.3L198.3,30.7z M199,82.1l-0.1,0.4l0.2,0.4h0.1
		l0.2-0.1l-0.1-0.4L199,82.1z M199.1,24.3l0.3,0.3l-0.1,0.9l0.9,0.1h0.7l0.7,0.3h1.5l0.6-0.5H203l-0.6,0.1l-0.7,0.1l-0.8-0.1
		l-0.2-0.4l-0.1-0.5l0.5-0.1V24l-0.2-0.3l-0.3,0.1H200l-0.5-0.3h-0.4V24.3z M199.6,30l0.1,0.2L200,30v-0.3l-0.2-0.1l-0.2,0.1
		l-0.1,0.2L199.6,30z M200,34l0.4-0.6l-0.6-0.7l-0.1,0.8v0.7h0.2L200,34z M202.3,27.8l-0.8-0.1l0.1,0.3l0.3,0.2v0.1l-0.3-0.2h-0.3
		V28l-0.2-0.1v-0.2l-0.2-0.3v-0.3l0.2-0.2l-0.1-0.1l-0.2-0.1l-0.3,0.2l-0.4,0.1l-0.3,0.1l0.2,0.4h0.4l0.3,0.6l-0.1,0.7l0.2,0.2v0.6
		l-0.1,0.6l-0.1,0.3l0.1,0.2l0.2,0.1l0.1-0.2l0.5-0.8l0.4-0.8v-0.4l0.3-0.1l0.1-0.1V27.8z M200.5,35l-0.2-0.2h-0.2l0.1,0.4l0.3,0.2
		V35z M201,82.7h0.3l0.3-0.3l-0.1-0.5l-0.3,0.4L201,82.7z M201.5,86.9l-0.1,0.5l0.1,0.3l0.3-0.1l0.2-0.2l0.1-0.4l-0.3-0.3
		L201.5,86.9z M201.6,24l0.4,0.1l0.4-0.2l0.4-0.1h0.4l-0.2-0.3l-0.1-0.4l-0.2-0.2l0.2-0.3l-0.6-0.2l-0.5,0.1l-0.1,0.3l0.2,0.2
		l-0.3,0.3V24z M201.9,23l0.2-0.2h0.5l0.1,0.1l-0.2,0.2L201.9,23z M202.3,80.3l0.1,0.1l0.2-0.1l0.1-0.3h-0.1l-0.1-0.1l-0.2,0.1V80.3
		z M203.9,27l-0.6-0.1l-0.9,0.6l0.6,0.2l0.4,0.1l0.6-0.2L203.9,27z M202.8,83.6l-0.1,0.1l0.1,0.2l0.5,0.1l0.5-0.4l-0.5-0.2
		L202.8,83.6z M203.5,86.5l-0.1-0.1l-0.2-0.1l-0.2,0.3V87l0.4-0.1L203.5,86.5z M224.3,56.7l-0.4,4.6l0.1,1.9l0.1,1.3v0.6h-0.9
		l-1.5,0.3l-1,0.5l-0.7,0.9l-0.5,1.3l-0.2,1.4l-0.4-0.1l-1.3-0.2l-2-0.2l-1.9,0.1h-1.3l-1.3-0.1l-2,0.1h-1.2l-1,0.3l-0.6,0.5
		l-0.2,0.9l0.1,1.4l-1.6,0.1l-1.1,0.1v-1.1l-0.2-1.6l-0.2-1.3v-1.9l0.8-0.1l1.9-0.1l2.6-0.3l1.7-0.1l1.7,0.2l1.2,0.2l1.5,0.2h0.5
		l1.9-0.3L218,66l0.4-0.1l0.8-0.6l0.6-0.6l0.7-1.2l0.2-1l0.3-2.2l-0.2-4.5l0.1-1.7l0.1-0.7l1.1,0.2l0.7,0.1l0.6,0.2l0.4,0.3l0.2,0.6
		L224.3,56.7z M218.1,39.1l-0.2,1l0.1,2.1l-1.2,0.1l-2.7-0.1l-1.8-0.1h-1.8l-2.6,0.1l-0.7,0.1l-0.4,0.4l-0.3,0.4l-0.1,0.6v1.9h-1.6
		l-1.4-0.2l-0.2-1.8l0.1-2.9V39h3.4l1.8,0.1l2.7,0.1l2.9-0.2l1.9-0.3l1.6-0.1l0.5,0.1V39.1z M204.1,33.3l-0.4-0.5l-0.1,0.5l0.1,0.5
		l0.1,0.1l0.2-0.1L204.1,33.3z M203.7,82.6l0.7,0.6l0.6-0.4l0.2-0.1v-0.2h-0.7L203.7,82.6z M204.9,24.1l0.2,0.4l0.4,0.1l0.1-0.3
		l-0.1-0.4l0.1-0.2l-0.1-0.2l-0.4,0.1L204.9,24.1z M205.5,27.1l-0.1-0.5l-0.4,0.5l0.4,0.4L205.5,27.1z M205.8,83.1l0.3,0.2h0.3
		l-0.2-0.3l-0.4-0.1V83.1z M206.3,33.8l0.3,0.3l0.3-0.4l-0.4-0.1h-0.1L206.3,33.8z M207.2,31.8l-0.3,0.7l-0.1,0.2l0.1,0.2l0.2,0.1
		h0.2l0.3-0.8l0.7,0.4h0.3l0.3-0.3l0.4-0.6l0.1-0.7l-0.3,0.3l-0.2,0.3l-0.5,0.3l-0.4-0.1l-0.5-0.5l-0.7-0.1L207.2,31.8z M207.6,24.6
		l0.2,0.4l0.6,0.3l0.7-0.4l-0.4-0.3l-0.3-0.3l-0.4-0.2l-0.3,0.2L207.6,24.6z M208.2,86.9l0.1,0.2h0.4l0.2-0.1l-0.1-0.2l-0.2-0.1
		h-0.3L208.2,86.9z M208.5,83.2l0.1,0.3l0.2,0.1l0.3-0.1l0.1-0.3l-0.2-0.3l-0.1-0.3l-0.3,0.3L208.5,83.2z M209.5,27.2l0.4,0.7
		l0.3-0.8L209.5,27.2z M209.5,84.6l0.2,0.4h0.6l0.2-0.1l0.2-0.2l-0.2-0.2h-0.8L209.5,84.6z M209.6,25.6l0.3,0.5l-0.1,0.1h0.8
		l0.7-0.3l0.4,0.4h0.5l0.2-0.2l-0.4-0.4h-0.7l-0.6-0.7l-0.9,0.2L209.6,25.6z M211.3,87.2h-0.5l-0.3-0.3h-0.3v0.4l0.5,0.2l0.3-0.1
		L211.3,87.2z M210.6,79.1l0.1,0.1l0.2,0.1l0.2-0.2l-0.1-0.2l-0.2-0.1l-0.1,0.1L210.6,79.1z M211.3,85.6l0.3,0.2h0.2l0.3-0.1
		l0.2-0.3l-0.2-0.1l-0.2-0.2l-0.4,0.2L211.3,85.6z M212.3,87.2l-0.1-0.2H212l-0.1,0.1l-0.2,0.1l0.4,0.2L212.3,87.2z M212.5,27.4
		l-0.3,0.1l0.1,0.3l0.3,0.2l0.3-0.2l0.4-0.1l0.1-0.2l-0.4-0.3L212.5,27.4z M213.1,28.9l-0.3-0.2l-0.4,0.1v0.3h0.4L213.1,28.9z
		 M212.6,25.2l0.5-0.3l0.3-0.8v-0.5l-0.4-0.1l-0.2,0.2v0.4l-0.2,0.6V25.2z M214.1,85.3h0.4l0.1-0.4l-0.3-0.3l-0.2,0.1V85.3z
		 M214.7,26.7l0.4-0.1l0.2-0.3v-0.1l-0.1-0.1l-0.3,0.3L214.7,26.7z M215.4,27.8l-0.4-0.1l-0.2,0.1l0.1,0.2l0.3,0.3l0.4-0.1
		L215.4,27.8z M215.7,30.6l-0.4,0.1l-0.2,0.5l0.1,0.3l0.5-0.1l0.4-0.5L215.7,30.6z M215.1,82l0.2,0.5l0.5,0.4l0.2-0.4l-0.1-0.4
		l-0.4-0.2L215.1,82z M216.9,88.3l-0.2-0.4h-0.9l-0.5-0.3l0.2,0.9l0.8,0.2h0.1l0.1-0.1L216.9,88.3z M215.5,80l0.3,0.4l0.1,0.4v0.4
		l0.3-0.2l0.4-0.1l0.3-0.3v-0.4l-0.5-0.5h-0.7L215.5,80z M215.8,77.3l0.4,0.2l0.1-0.1l-0.1-0.2l-0.2-0.1L215.8,77.3z M217.7,85.4
		l-0.4-0.4l-0.5-0.4l-0.2-0.2h-0.2l-0.1,0.3l0.2,0.2v0.3l-0.2,0.6l0.4,0.3l0.4,0.1l0.3-0.3l0.3-0.1V85.4z M217,86.8l-0.2-0.1
		l-0.1-0.1h-0.3l-0.1,0.3l0.1,0.2h0.2l0.2-0.1L217,86.8z M217,83.3l-0.2,0.2l-0.2,0.3l0.2,0.2l0.2,0.1h0.6l0.7-0.1l-1-0.5l-0.1-0.2
		H217z M217.6,79.4l0.4-0.3l0.2-0.3l-0.2-0.1h-0.1l-0.3,0.2V79.4z M217.9,79.7l-0.2,0.3l0.1,0.3l0.1,0.1l0.1-0.1l0.1-0.3L217.9,79.7
		z M218.4,88.1l-0.2-0.3v-0.3l0.1-0.4l-0.2-0.2l-0.3,0.2l0.1,0.3l-0.1,0.1v0.6l0.3,0.3h0.3V88.1z M218.7,26.5l0.1,0.1l0.2,0.1
		l0.1-0.1v-0.3l-0.2-0.1l-0.2,0.1V26.5z M218.7,78.9l0.1,0.1l0.2-0.1l0.1-0.2v-0.2H219l-0.3,0.1V78.9z M219.6,23.8l0.2,0.1l0.2-0.2
		l-0.1-0.2l-0.1-0.1h-0.2V23.8z M220.1,26.5l0.1,0.2h0.4l0.1-0.1l-0.1-0.2l-0.3-0.1h-0.1L220.1,26.5z M220.1,80.8l0.3,0.2l0.2,0.1
		h0.3l0.4,0.1v0.4l-0.1,0.2v0.3h0.2l0.1-0.1l0.6-0.2h0.2l0.1-0.4l0.2-0.4v-0.5l-0.5-0.2h-0.9l-0.8,0.2L220.1,80.8z M222.5,86.5
		l-0.3-0.4l-0.6-0.4l-0.5-0.3l-0.2,0.5l0.3,0.8l0.8,0.1L222.5,86.5z M221.2,79l0.7,0.1l0.7-0.1l0.4,0.2l0.6-0.1l-0.4-0.2l-0.3-0.2
		l-0.1,0.1h-0.2l-0.7-0.3L221.2,79z M223.8,87.5l-0.1-0.5l-0.2-0.4l-0.4,0.1l-0.3,0.5l-0.1,0.5L223,88l0.6-0.1L223.8,87.5z
		 M223.9,81.4v-0.2l-0.3-0.1l-0.3,0.3H223.9z M224.4,83.3l-0.1-0.3l-0.4-0.2l-0.2-0.6l-0.3,0.5l0.1,0.4v0.1l-0.1,0.3l0.2,0.2
		l0.4-0.1L224.4,83.3z M223.8,80.1l0.1,0.2l0.2,0.1h0.2l0.1-0.2l-0.2-0.2l-0.2-0.1h-0.2V80.1z M224.6,84l0.2,0.2l0.2-0.1l0.1-0.2
		l-0.1-0.1h-0.2v0.1L224.6,84z M235.9,46.6l1.2-0.5l0.4-0.4l0.2-0.6l0.3-1l0.1-0.8l0.1-0.9l0.5-3.5v-3.6l-0.1-3.6v-6.8L240,25
		l0.6,0.2l0.3,0.4l0.2,0.5l0.6,4.2v5.6l0.1,4.9v2.1l-0.2,2.9l-0.3,1.7l-0.2,0.7l-0.1,0.6l-0.4,0.4l-0.6,0.2l-1.8,0.3h-6.3l-2.5-0.1
		l-2.5-0.4l-0.4-0.3l-0.3-0.3L226,48l-0.3-1.4h2.5l4.4,0.3l2.3-0.3H235.9z M226.5,83.5l0.3,0.6l0.2-0.6l0.2-0.5l0.2-0.1l0.3-0.2
		l-0.6-0.2l-0.4,0.5L226.5,83.5z M228.9,80.3L228.9,80.3l0.2,0.1h0.1l0.2-0.1l0.2-0.2v-0.4l-0.3,0.2L228.9,80.3z M229.7,80.6
		l-0.2,0.1l-0.1,0.4l0.4,0.1l0.3,0.3v-0.3l0.1-0.2l-0.2-0.1l-0.2-0.2l0.1-0.1H229.7z"/>
	<path class="st0" d="M253.3,92.1l-3.1-0.1l-2.2-0.4l-0.8-0.1l-0.5-0.1l-0.4-0.4l-0.2-0.6l-0.3-1.9l0.2-2.7l0.1-3.9l0.1-2.6l0.3-1.9
		l0.1-0.7l0.3-0.5l0.3-0.4l0.6-0.2l1.5-0.1l2.1,0.6l1.4-0.1l0.6-0.2l0.4-0.3L254,75l0.2-0.7l0.3-2.2l0.1-3l-0.1-4.4l-0.3-3l-0.1-4.4
		v-7.4l0.2-3l0.1-4.4l0.2-3l-0.2-2.2l-0.2-0.7l-0.3-0.4l-0.5-0.3l-0.6-0.2l-1.4-0.2l-2,0.2l-1.4-0.2l-0.6-0.1l-0.4-0.3l-0.2-0.3
		l-0.1-0.6l-0.3-1.9l-0.3-2.6v-3.8l0.2-2.6l0.3-1.9l0.1-0.7l0.2-0.6l0.3-0.4l0.7-0.2l2.2-0.2l3.1,0.6l2.2,0.2h5.3l2.3,0.1l3.7-0.2
		l1.5-0.2l6-0.1h3.8l3.8,0.1h1.5l4.4,0.1l1.6,0.1l3.7,0.1l3.8-0.1h3.8l2.2-0.2l3.1-0.4l2.2,0.2l0.6,0.2l0.3,0.4l0.2,0.5l0.6,4.2v5.6
		l0.1,2.8v5.6l-0.5,3.5l-0.2,0.7l-0.1,0.6l-0.4,0.4l-0.6,0.2l-1.8,0.3l-2.6-0.2l-1.9-0.1H300l-2.5-0.1l-2.5-0.4l-0.4-0.3l-0.3-0.3
		l-0.2-0.6l-0.3-1.3l0.3-1.8l0.1-1.3v-1l-0.1-0.5l-0.3-0.2l-2.6-0.2l-3.7,0.4l-2.6,0.2l-6.3-0.2l-2.6,0.1l-0.7,0.1l-0.4,0.4
		l-0.3,0.4l-0.1,0.6v2.4l-0.1,3.2l0.3,2.3l0.2,0.7l0.2,0.5l0.4,0.2l0.7,0.2l2,0.3h1.5l1.4-0.1h2.1l2.1-0.1l1.4-0.1l1.4,0.1l2.8,0.4
		l0.6,0.2l0.4,0.3l0.2,0.6l0.3,1.9l-0.3,2.6l-0.1,2l0.1,1.9l0.1,2.6l-0.2,1.9l-0.2,0.7l-0.8,0.8l-0.7,0.2l-1.9,0.2l-2.7-0.4l-2-0.2
		l-1.9,0.1l-1.3,0.2l-3.3,0.2l-1.1,0.1l-0.9,0.5l-0.7,0.8l-0.2,1l0.1,2.1l0.1,1.5l0.2,1.4v2.1l0.1,0.5l0.1,0.4l0.3,0.3l0.4,0.1
		l2.7-0.1l3.6-0.2h7.2l1.9,0.1h2.6l0.5,0.1l0.4,0.1h0.3l0.3-0.3l0.3-1.6l-0.1-1.2l-0.2-1.2l0.3-1.7l0.2-0.6l0.2-0.4l0.5-0.2l0.7-0.1
		l1.8-0.1l2.5-0.1h1.9l3.1-0.3l1.3-0.1l1.9,0.2l0.7,0.2l0.5,0.4l0.3,0.5l0.2,0.7l0.2,2.1l-0.6,2.9l-0.2,2.2l0.1,2.1l0.2,2.8v2.2
		l0.2,2.1l0.2,2.9l-0.2,2.1l-0.2,0.7l-0.3,0.5l-0.5,0.3l-0.7,0.2l-2.2,0.3h-1.6l-1.6-0.1l-2.3-0.1h-17.6l-3.2-0.3l-2.2-0.1l-2.3,0.1
		l-3.1,0.3H271l-5.4-0.1H261l-3.1-0.1L253.3,92.1z M250.1,86.3l-0.3-0.4l-0.4-0.1l-0.1,0.1V86l0.3,0.3H250.1z M316.6,92.2l0.1,1.5
		l-0.2,2.1l-0.2,0.7L316,97l-0.5,0.3l-0.7,0.2l-2.2,0.3H311l-1.6-0.1l-2.3-0.1h-17.6l-1.6-0.2l-3.8-0.2l-2.3,0.1l-3.1,0.3h-6.2
		l-6.1-0.1l-3.1-0.1H261l-2.3,0.1h-1.5l-4.6-0.6l-0.5-0.1l-0.4-0.4l-0.2-0.6l-0.2-1.4h2l2.2-0.1l3.8,0.1h6.1l1.6,0.1h6.2l3.2-0.3
		l2.2-0.1l3.6,0.2l1.6,0.2l20,0.1l1.7,0.1h1.9l2.4-0.3l0.9-0.3l0.7-0.3l0.5-0.4l0.4-0.3l0.3-0.4l0.3-0.5l0.2-0.6l0.2-1l0.3-2.1
		l-0.1-1.9l-0.2-1.5l-0.1-4.1l-0.2-3l-0.1-1.9l0.2-1.8l0.3-1.4l0.1-0.4l1.4,0.1l0.7,0.2l0.5,0.4l0.3,0.5l0.2,0.7l0.2,2.1l-0.6,2.9
		l-0.2,2.2l0.1,2.1l0.2,2.8v2.2l0.2,2.1L316.6,92.2z M252.6,24.6l-0.1-0.1h-0.4v0.1l0.1,0.2l0.2,0.1l0.2-0.2V24.6z M254.2,26.1
		l-0.1-0.9l-0.5-0.3h-0.2l-0.1,0.2l0.3,0.4L254.2,26.1z M254.2,85.2l0.3,0.4l0.4-0.1l0.2-0.4l0.2-0.1l0.3-0.1l-0.4-0.3l-0.5,0.1
		h-0.1l-0.2-0.2l-0.2,0.2V85.2z M255.2,26.6l0.1,0.1h0.3l0.1-0.2v-0.1l-0.1-0.2l-0.3,0.1l-0.1,0.2V26.6z M255.2,28.8l0.1,0.5
		l0.6-0.4v-0.6h-0.4L255.2,28.8z M256.1,81.5l-0.2-0.1h-0.1l-0.1,0.2v0.1l0.2,0.1h0.2l0.1-0.2L256.1,81.5z M256.3,29.7l0.1,0.5h0.3
		l0.2-0.3l0.2-0.4l-0.5-0.2L256.3,29.7z M256.4,25.3h0.2l0.1-0.1v-0.3h-0.1l-0.2,0.1V25.3z M256.4,26.4l0.2,0.6l0.4,0.2l0.4-0.3
		l0.8-0.7l0.9-0.7h-1.3l-1.1,0.3L256.4,26.4z M259.1,29.2l-0.7-0.5l-0.7-0.3l-0.4-0.4l-0.7-0.2l0.4,0.5l0.2,0.3h0.3l0.6,0.8
		L259.1,29.2z M258.2,24.6l0.3,0.4h0.3l0.3-0.1v-0.4l-0.3-0.3l-0.3-0.1l-0.3,0.1V24.6z M258.7,30.7l0.6,0.1l-0.3-0.5l-0.4-0.1
		l-0.3,0.1v0.2L258.7,30.7z M258.4,22.9l0.2,0.4l0.3,0.1l0.3-0.3v-0.2l-0.2-0.1h-0.3L258.4,22.9z M260.2,27.1l-1.5-0.4l0.3,0.6
		l0.7-0.2l0.1,0.5l0.1,0.4L260.2,27.1z M260.3,32.1l0.3-0.2l0.2-0.2l0.2-0.1v-0.2l0.1-0.1v-0.2h-0.2l-0.2,0.1l-0.1,0.1l-0.2,0.4
		l-0.2,0.3l-0.5,0.5l0.1-0.2l0.1-0.1l0.2-0.4v-0.1l0.1-0.1V31l0.1-0.3l-0.7,0.4l-0.7,0.5l0.2,0.3l0.3,0.2l0.3,0.3v0.2v0.1v-0.1
		l0.2-0.2l0.2-0.1L260.3,32.1z M260.3,29.7H260l-0.2,0.1V30l0.2,0.1l0.3,0.1l0.2-0.1v-0.2L260.3,29.7z M260.3,25.5l0.2,0.1l0.3-0.1
		l0.6-0.1l0.6-0.2l-0.1-0.1V25l-0.6-0.1l-0.5-0.1h-0.3l-0.2,0.2V25.5z M260.3,26.4l0.4,0.2l0.6,0.4l0.4,0.6l0.2-1.1l-0.8-0.7h-0.2
		l-0.5,0.1L260.3,26.4z M260.8,78.7l-0.2-0.1l0.1,0.1H260.8z M262,32.5h0.3l0.3-0.1h0.2l0.4-0.2l-0.4-0.1h-0.4l-0.2-0.1l-0.3-0.1
		v-0.1h-0.1l-0.2,0.1h-0.1v0.2l-0.1,0.1l-0.1,0.2h-0.2l-0.2,0.1l-0.1,0.1h-0.1l0.2,0.1l0.3,0.4l0.4-0.2v-0.3h0.2L262,32.5z
		 M261.4,29.9l-0.1,0.1l-0.2,0.4v0.1l-0.1,0.1l0.1,0.1h0.1l0.2-0.1l0.2-0.3l0.1-0.1l0.2-0.1h0.3l0.4-0.1h0.4l0.4-0.2l0.5-0.3v-0.1
		l-0.1-0.1l-0.3,0.1h-0.4l-0.6,0.4h-0.7l-0.2,0.1H261.4z M262.7,30.7l0.2-0.4v-0.1h-0.2l-0.2,0.2l-0.2,0.1l-0.1,0.2l-0.4,0.4
		l-0.4,0.2l-0.1,0.1l-0.1,0.2l0.2-0.1h0.2l0.1-0.2l0.4-0.2l0.1-0.1L262.7,30.7z M261.5,29h0.1l0.1,0.2l0.1-0.3l0.1-0.2l-0.1-0.1
		l-0.1-0.2h-0.1l-0.2,0.1v0.4L261.5,29z M262,37.1h-0.4l-0.2,0.1l0.1,0.2l0.3,0.1l0.2-0.2V37.1z M262.2,28.9l0.2,0.2l0.1,0.3
		l0.4-0.2l0.4-0.1l0.6-0.2l-0.1-0.2v-0.2l0.6-0.4l0.2,0.1l-0.4,0.3l-0.3,0.5l0.5,0.4l0.4,0.3l0.3-0.4l0.5,0.2V30l-0.2,0.5l0.8,0.6
		l0.3-0.2l0.1-0.3l-0.3-0.2v-0.2l0.2-0.2h0.4v0.2l0.4,0.2l0.3-0.2v-0.4h0.4l0.1-0.4l0.5-0.1l0.4-0.1l-0.1-0.8l-0.3-0.9l-0.4,0.6v0.5
		l-0.3,0.4l-0.2,0.4l-0.1,0.1l-0.1-0.2l-0.2-0.1h-0.1l-0.3,0.2v0.2h-0.4l-0.6-0.5l-0.8-0.2l-0.5-0.7l0.4,0.2l0.5,0.4h0.2l0.4,0.1
		l0.2,0.1h0.2l0.5-0.5V28l-0.6,0.1l-0.5-0.2l0.1-0.1v-0.2l0.2-0.2l0.2-0.3l0.1-0.2l0.1-0.3l0.4-0.4l-0.6-0.5l0.1-0.2l0.1-0.3
		l0.1-0.2l0.1-0.3l-1.9-0.7l-0.6-0.2h-0.8l0.2,0.3l0.1,0.1v0.1h0.1l0.1,0.2l0.9,0.4l0.9,0.9l0.2,0.3l0.1,0.2l0.1,0.1l-0.4,0.5
		l-0.5,0.4l-0.6,0.1l-0.6,0.2l-0.8,0.6l-0.6,0.1h-0.5V28.9z M265.8,34.9l-0.5-0.3l-1.2,0.2l-0.4-0.1l-0.5-0.1h-0.6l-0.3,0.4l0.1,0.3
		h2.2l0.2-0.2l0.3-0.1l0.2,0.4l0.5,0.2V34.9z M262.5,25.3l0.4,0.8l0.6,0.6l0.4-0.1l0.3-0.1l0.1-0.5v-0.6l-0.7-0.4l-0.1-0.1h-0.1
		v-0.1l-0.2-0.1l-0.1-0.1l-0.6,0.1V25.3z M262.5,31.6h0.4l0.3-0.1l0.1-0.1v-0.2l-0.1-0.1H263l-0.2,0.2l-0.2,0.1L262.5,31.6z
		 M263.1,33.2l-0.3-0.1h-0.3v0.2l0.1,0.3l0.4,0.2l0.1-0.1l0.1-0.2L263.1,33.2z M263.7,39.7l0.3-0.3l-0.1-0.1h-0.5l-0.1,0.2l0.2,0.2
		H263.7z M265.1,36.4l-1.1,0.2l-0.1,1l0.1,0.3l0.2,0.1l0.3-0.5V37l0.4-0.2L265.1,36.4z M264.5,42.1l0.1,0.1h0.1l0.2-0.4l-0.2-0.5
		l-0.3,0.4L264.5,42.1z M267,37.8l-0.1-0.2l-0.2-0.1l-0.1,0.1v0.1l0.1,0.3h0.2l0.1-0.1V37.8z M266.8,29.8l0.1-0.2l0.7-0.1v0.2v0.1
		h-0.1L267,30h-0.1L266.8,29.8z M268.1,35.1l-0.1-0.4l-0.3-0.2l-0.3,0.2l-0.1,0.4l0.1,0.4l0.3,0.1l0.3-0.2L268.1,35.1z M267.6,28.4
		l0.1,0.2l0.2-0.4l0.1-0.4v-0.2l-0.1-0.1l-0.3,0.3V28.4z M269.4,33l-0.4,0.1h-0.3l-0.3-0.2h-0.2v0.3l0.3,0.1l0.5,0.1L269.4,33z
		 M268.2,82.2l0.1,0.1l0.2,0.1l0.1-0.1l0.1-0.2l-0.1-0.2h-0.1l-0.2,0.1L268.2,82.2z M269.6,87.2l-1-0.4l-0.2,0.1l-0.1,0.2l0.4,0.3
		h0.5l0.2,0.1L269.6,87.2z M269.2,73.7l0.2-0.4l-0.4-0.2l-0.3,0.1l-0.1,0.5l0.1,0.4l0.3-0.2L269.2,73.7z M268.7,26l0.2,0.3l0.3-0.1
		l0.1,0.1h0.6l0.4-0.4v-0.1l-0.4-0.1l-0.3,0.2h-0.3l-0.4-0.1L268.7,26z M269,84.8l-0.2,0.2l0.2,0.2h0.2V85L269,84.8z M269.5,38.4
		l-0.2,0.1l-0.2,0.3v0.1l0.1,0.1h0.3l0.2-0.2v-0.3L269.5,38.4z M269.7,85.8l-0.1-0.2l-0.1-0.1l-0.2,0.1l-0.1,0.2l0.1,0.1l0.2,0.1
		L269.7,85.8z M270.4,84.3l-0.5-0.3h-0.6v0.1l0.1,0.2l0.5,0.2L270.4,84.3z M269.9,34.8l0.1-0.2l0.1-0.1l-0.5-0.1l0.1,0.4l0.2,0.6
		l0.8,0.2l-0.5-0.4L269.9,34.8z M270.5,26.8l-0.3,0.1l-0.2,0.3l0.2,0.3l0.3,0.1l0.3-0.1l0.1-0.3l-0.1-0.3L270.5,26.8z M271.7,83.9
		l-0.3-0.2H271l-0.3,0.2v0.3l0.3,0.3l0.4-0.1l0.3-0.1V83.9z M270.8,82h0.1l0.1-0.1v-0.4h-0.2V82z M271.6,85.7l-0.2-0.1h-0.3
		l-0.1,0.1v0.2l0.1,0.1h0.2l0.2-0.1L271.6,85.7z M271.1,32.6h0.5l0.4,0.1l0.3,0.4l0.1-0.7l-0.6-0.2l-0.4-0.1l-0.3,0.1V32.6z
		 M271.1,75.9l0.4,0.4v-0.4l-0.1-0.3l0.3-0.2l-0.1-0.3h-0.2l-0.2,0.3L271.1,75.9z M271.8,33.9l-0.2-0.3l-0.3-0.1v0.4l0.3,0.2h0.1
		L271.8,33.9z M271.8,30.7L272,31l0.1-0.1v-0.1l0.1-0.3h-0.3L271.8,30.7z M272.5,82.1l-0.1,0.4l0.2,0.4h0.1l0.2-0.1l-0.1-0.4
		L272.5,82.1z M272.6,24.3l0.3,0.3l-0.1,0.9l0.9,0.1h0.7l0.7,0.3h1.5l0.6-0.5h-0.7l-0.6,0.1l-0.7,0.1l-0.8-0.1l-0.2-0.4l-0.1-0.5
		l0.5-0.1V24l-0.2-0.3l-0.3,0.1h-0.6l-0.5-0.3h-0.4V24.3z M273.1,30l0.1,0.2l0.3-0.2v-0.3l-0.2-0.1l-0.2,0.1l-0.1,0.2L273.1,30z
		 M273.5,34l0.4-0.6l-0.6-0.7l-0.1,0.8v0.7h0.2L273.5,34z M275.8,27.8l-0.8-0.1l0.1,0.3l0.3,0.2v0.1l-0.3-0.2h-0.3V28l-0.2-0.1v-0.2
		l-0.2-0.3v-0.3l0.2-0.2l-0.1-0.1l-0.2-0.1l-0.3,0.2l-0.4,0.1l-0.3,0.1l0.2,0.4h0.4l0.3,0.6l-0.1,0.7l0.2,0.2v0.6l-0.1,0.6l-0.1,0.3
		l0.1,0.2l0.2,0.1l0.1-0.2l0.5-0.8l0.4-0.8v-0.4l0.3-0.1l0.1-0.1V27.8z M274,35l-0.2-0.2h-0.2l0.1,0.4l0.3,0.2V35z M274.5,82.7h0.3
		l0.3-0.3l-0.1-0.5l-0.3,0.4L274.5,82.7z M275,86.9l-0.1,0.5l0.1,0.3l0.3-0.1l0.2-0.2l0.1-0.4l-0.3-0.3L275,86.9z M275.1,24l0.4,0.1
		l0.4-0.2l0.4-0.1h0.4l-0.2-0.3l-0.1-0.4l-0.2-0.2l0.2-0.3l-0.6-0.2l-0.5,0.1l-0.1,0.3l0.2,0.2l-0.3,0.3V24z M275.4,23l0.2-0.2h0.5
		l0.1,0.1l-0.2,0.2L275.4,23z M275.8,80.3l0.1,0.1l0.2-0.1l0.1-0.3h-0.1l-0.1-0.1l-0.2,0.1V80.3z M277.4,27l-0.6-0.1l-0.9,0.6
		l0.6,0.2l0.4,0.1l0.6-0.2L277.4,27z M276.3,83.6l-0.1,0.1l0.1,0.2l0.5,0.1l0.5-0.4l-0.5-0.2L276.3,83.6z M277,86.5l-0.1-0.1
		l-0.2-0.1l-0.2,0.3V87l0.4-0.1L277,86.5z M297.8,56.7l-0.4,4.6l0.1,1.9l0.1,1.3v0.6h-0.9l-1.5,0.3l-1,0.5l-0.7,0.9l-0.5,1.3
		l-0.2,1.4l-0.4-0.1l-1.3-0.2l-2-0.2l-1.9,0.1h-1.3l-1.3-0.1l-2,0.1h-1.2l-1,0.3l-0.6,0.5l-0.2,0.9l0.1,1.4l-1.6,0.1l-1.1,0.1v-1.1
		l-0.2-1.6l-0.2-1.3v-1.9l0.8-0.1l1.9-0.1l2.6-0.3l1.7-0.1l1.7,0.2l1.2,0.2l1.5,0.2h0.5l1.9-0.3l1.1-0.2l0.4-0.1l0.8-0.6l0.6-0.6
		l0.7-1.2l0.2-1l0.3-2.2l-0.2-4.5l0.1-1.7l0.1-0.7l1.1,0.2l0.7,0.1l0.6,0.2l0.4,0.3l0.2,0.6L297.8,56.7z M291.6,39.1l-0.2,1l0.1,2.1
		l-1.2,0.1l-2.7-0.1l-1.8-0.1H284l-2.6,0.1l-0.7,0.1l-0.4,0.4l-0.3,0.4l-0.1,0.6v1.9h-1.6l-1.4-0.2l-0.2-1.8l0.1-2.9V39h3.4l1.8,0.1
		l2.7,0.1l2.9-0.2l1.9-0.3l1.6-0.1l0.5,0.1V39.1z M277.6,33.3l-0.4-0.5l-0.1,0.5l0.1,0.5l0.1,0.1l0.2-0.1L277.6,33.3z M277.2,82.6
		l0.7,0.6l0.6-0.4l0.2-0.1v-0.2H278L277.2,82.6z M278.4,24.1l0.2,0.4l0.4,0.1l0.1-0.3l-0.1-0.4l0.1-0.2l-0.1-0.2l-0.4,0.1
		L278.4,24.1z M279,27.1l-0.1-0.5l-0.4,0.5l0.4,0.4L279,27.1z M279.3,83.1l0.3,0.2h0.3l-0.2-0.3l-0.4-0.1V83.1z M279.8,33.8l0.3,0.3
		l0.3-0.4l-0.4-0.1h-0.1L279.8,33.8z M280.7,31.8l-0.3,0.7l-0.1,0.2l0.1,0.2l0.2,0.1h0.2l0.3-0.8l0.7,0.4h0.3l0.3-0.3l0.4-0.6
		l0.1-0.7l-0.3,0.3l-0.2,0.3l-0.5,0.3l-0.4-0.1l-0.5-0.5l-0.7-0.1L280.7,31.8z M281.1,24.6l0.2,0.4l0.6,0.3l0.7-0.4l-0.4-0.3
		l-0.3-0.3l-0.4-0.2l-0.3,0.2L281.1,24.6z M281.7,86.9l0.1,0.2h0.4l0.2-0.1l-0.1-0.2l-0.2-0.1h-0.3L281.7,86.9z M282,83.2l0.1,0.3
		l0.2,0.1l0.3-0.1l0.1-0.3l-0.2-0.3l-0.1-0.3l-0.3,0.3L282,83.2z M283,27.2l0.4,0.7l0.3-0.8L283,27.2z M283,84.6l0.2,0.4h0.6
		l0.2-0.1l0.2-0.2l-0.2-0.2h-0.8L283,84.6z M283.1,25.6l0.3,0.5l-0.1,0.1h0.8l0.7-0.3l0.4,0.4h0.5l0.2-0.2l-0.4-0.4h-0.7l-0.6-0.7
		l-0.9,0.2L283.1,25.6z M284.8,87.2h-0.5l-0.3-0.3h-0.3v0.4l0.5,0.2l0.3-0.1L284.8,87.2z M284.1,79.1l0.1,0.1l0.2,0.1l0.2-0.2
		l-0.1-0.2l-0.2-0.1l-0.1,0.1L284.1,79.1z M284.8,85.6l0.3,0.2h0.2l0.3-0.1l0.2-0.3l-0.2-0.1l-0.2-0.2l-0.4,0.2L284.8,85.6z
		 M285.8,87.2l-0.1-0.2h-0.2l-0.1,0.1l-0.2,0.1l0.4,0.2L285.8,87.2z M286,27.4l-0.3,0.1l0.1,0.3l0.3,0.2l0.3-0.2l0.4-0.1l0.1-0.2
		l-0.4-0.3L286,27.4z M286.6,28.9l-0.3-0.2l-0.4,0.1v0.3h0.4L286.6,28.9z M286.1,25.2l0.5-0.3l0.3-0.8v-0.5l-0.4-0.1l-0.2,0.2v0.4
		l-0.2,0.6V25.2z M287.6,85.3h0.4l0.1-0.4l-0.3-0.3l-0.2,0.1V85.3z M288.2,26.7l0.4-0.1l0.2-0.3v-0.1l-0.1-0.1l-0.3,0.3L288.2,26.7z
		 M288.9,27.8l-0.4-0.1l-0.2,0.1l0.1,0.2l0.3,0.3l0.4-0.1L288.9,27.8z M289.2,30.6l-0.4,0.1l-0.2,0.5l0.1,0.3l0.5-0.1l0.4-0.5
		L289.2,30.6z M288.6,82l0.2,0.5l0.5,0.4l0.2-0.4l-0.1-0.4l-0.4-0.2L288.6,82z M290.4,88.3l-0.2-0.4h-0.9l-0.5-0.3l0.2,0.9l0.8,0.2
		h0.1l0.1-0.1L290.4,88.3z M289,80l0.3,0.4l0.1,0.4v0.4l0.3-0.2l0.4-0.1l0.3-0.3v-0.4l-0.5-0.5h-0.7L289,80z M289.3,77.3l0.4,0.2
		l0.1-0.1l-0.1-0.2l-0.2-0.1L289.3,77.3z M291.2,85.4l-0.4-0.4l-0.5-0.4l-0.2-0.2h-0.2l-0.1,0.3l0.2,0.2v0.3l-0.2,0.6l0.4,0.3
		l0.4,0.1l0.3-0.3l0.3-0.1V85.4z M290.5,86.8l-0.2-0.1l-0.1-0.1h-0.3l-0.1,0.3l0.1,0.2h0.2l0.2-0.1L290.5,86.8z M290.5,83.3
		l-0.2,0.2l-0.2,0.3l0.2,0.2l0.2,0.1h0.6l0.7-0.1l-1-0.5l-0.1-0.2H290.5z M291.1,79.4l0.4-0.3l0.2-0.3l-0.2-0.1h-0.1l-0.3,0.2V79.4z
		 M291.4,79.7l-0.2,0.3l0.1,0.3l0.1,0.1l0.1-0.1l0.1-0.3L291.4,79.7z M291.9,88.1l-0.2-0.3v-0.3l0.1-0.4l-0.2-0.2l-0.3,0.2l0.1,0.3
		l-0.1,0.1v0.6l0.3,0.3h0.3V88.1z M292.2,26.5l0.1,0.1l0.2,0.1l0.1-0.1v-0.3l-0.2-0.1l-0.2,0.1V26.5z M292.2,78.9l0.1,0.1l0.2-0.1
		l0.1-0.2v-0.2h-0.1l-0.3,0.1V78.9z M293.1,23.8l0.2,0.1l0.2-0.2l-0.1-0.2l-0.1-0.1h-0.2V23.8z M293.6,26.5l0.1,0.2h0.4l0.1-0.1
		l-0.1-0.2l-0.3-0.1h-0.1L293.6,26.5z M293.6,80.8l0.3,0.2l0.2,0.1h0.3l0.4,0.1v0.4l-0.1,0.2v0.3h0.2L295,82l0.6-0.2h0.2l0.1-0.4
		l0.2-0.4v-0.5l-0.5-0.2h-0.9l-0.8,0.2L293.6,80.8z M296,86.5l-0.3-0.4l-0.6-0.4l-0.5-0.3l-0.2,0.5l0.3,0.8l0.8,0.1L296,86.5z
		 M294.7,79l0.7,0.1l0.7-0.1l0.4,0.2l0.6-0.1l-0.4-0.2l-0.3-0.2l-0.1,0.1h-0.2l-0.7-0.3L294.7,79z M297.3,87.5l-0.1-0.5l-0.2-0.4
		l-0.4,0.1l-0.3,0.5l-0.1,0.5l0.3,0.3l0.6-0.1L297.3,87.5z M297.4,81.4v-0.2l-0.3-0.1l-0.3,0.3H297.4z M297.9,83.3l-0.1-0.3
		l-0.4-0.2l-0.2-0.6l-0.3,0.5l0.1,0.4v0.1l-0.1,0.3l0.2,0.2l0.4-0.1L297.9,83.3z M297.3,80.1l0.1,0.2l0.2,0.1h0.2l0.1-0.2l-0.2-0.2
		l-0.2-0.1h-0.2V80.1z M298.1,84l0.2,0.2l0.2-0.1l0.1-0.2l-0.1-0.1h-0.2v0.1L298.1,84z M309.4,46.6l1.2-0.5l0.4-0.4l0.2-0.6l0.3-1
		l0.1-0.8l0.1-0.9l0.5-3.5v-3.6l-0.1-3.6v-6.8l1.4,0.1l0.6,0.2l0.3,0.4l0.2,0.5l0.6,4.2v5.6l0.1,4.9v2.1l-0.2,2.9l-0.3,1.7l-0.2,0.7
		l-0.1,0.6l-0.4,0.4l-0.6,0.2l-1.8,0.3h-6.3l-2.5-0.1l-2.5-0.4l-0.4-0.3l-0.3-0.3l-0.2-0.6l-0.3-1.4h2.5l4.4,0.3l2.3-0.3H309.4z
		 M300,83.5l0.3,0.6l0.2-0.6l0.2-0.5l0.2-0.1l0.3-0.2l-0.6-0.2l-0.4,0.5L300,83.5z M302.4,80.3L302.4,80.3l0.2,0.1h0.1l0.2-0.1
		l0.2-0.2v-0.4l-0.3,0.2L302.4,80.3z M303.2,80.6l-0.2,0.1l-0.1,0.4l0.4,0.1l0.3,0.3v-0.3l0.1-0.2l-0.2-0.1l-0.2-0.2l0.1-0.1H303.2z
		"/>
	<path class="st0" d="M394.7,86.8l-0.2,3.3l0.2,1.1l-0.5,0.7l-3.5,0.2l-3.5-0.3l-3.5-0.1l-3.5-0.2l-3.5,0.2l-3.5,0.3l-3.5,0.1
		l-3.5-0.5l-0.7-0.5l-0.2-1l0.1-4.2l0.3-4.2v-0.5l-0.1-0.5l-1.9-2.9l-2-2.8l-4.4-5.4l-0.9-0.8l-1.1-0.3l-1.7-0.1h-1.7l-0.9-0.2
		l-0.9-0.1l-0.5,0.2l-0.3,0.3l-0.2,1.1v5.6l0.2,0.9l0.4,0.3l0.4,0.1l2.7-0.1l2.6,0.3L356,77l0.4,0.4l0.4,0.6l0.3,1.8v1.6l-0.3,2.9
		v2.9l-0.1,2.9l-0.1,0.5l-0.4,0.4l-1.1,0.4l-3.5,0.3l-3.6,0.2l-3.5-0.2l-3.5-0.3l-7.1,0.4h-7.1l-3.6,0.2l-3.5-0.3l-0.4-0.6l0.2-1
		l0.1-3.7l0.2-3.6l-0.2-3.6l0.4-3.6l0.4-0.5l0.8,0.1l2.8,0.3l2.8-0.1l1-0.4l0.2-0.4l0.1-0.6l0.2-3.7l-0.3-3.7l0.3-3.7l0.2-3.7
		l-0.4-7.4l0.3-3.7l0.2-3.7l-0.2-3.7l-0.3-3.7l0.1-1.1l-0.1-0.6l-0.3-0.1l-5.6,0.6l-2-0.2l-0.6-0.6v-1.1l-0.1-3.2v-6.4l0.2-3.2
		l0.2-0.7l0.5-0.5l0.8-0.5l0.9-0.2l6.9,0.4h7l3.4,0.1h3.5l3.4,0.1h3.5l6.9-0.4l10.5,0.3l3.3,0.5l3.6,0.7l3.2,1.1l3.2,1.7l2.8,1.9
		l2.5,2.6l1.9,2.9l1.9,3l1.4,3.2l0.6,3.5l0.1,3.5l-0.3,4.3l-1.1,4l-1.6,3.8l-2.5,3.5l-3.2,2.3l-3.9,2.2l-0.5,0.5l-0.3,0.7v0.8
		l0.3,0.6l2.9,4.1l3.1,3.9l0.6,0.5l0.8,0.1l3.5-0.2l3.5,0.1l1.1,0.5l0.3,0.4l0.1,0.7l0.3,1.9v1.3L394.7,86.8z M362.3,83.5l-0.4-0.6
		l-0.4-0.4l-0.7-0.2l-1.4-0.2l-0.2,2.4v2.7l-0.1,2.9l-0.1,1.1v0.7l-0.2,0.9l-0.3,0.5l-0.8,0.3l-0.8,0.1l-1.4,0.2l-3.7,0.1l-3.6,0.3
		l-3.9-0.2l-3.4-0.3l-6.9,0.4h-7.2l-1.8,0.1v1.3l-0.2,1l0.4,0.6l3.5,0.3l3.6-0.2h7.1l7.1-0.4l3.5,0.3l3.5,0.2l3.6-0.2l3.5-0.3
		l1.1-0.4l0.4-0.4l0.1-0.5l0.1-2.9v-2.9l0.3-2.9v-1.6L362.3,83.5z M332,60.2l-0.2,0.2v0.2l0.3,0.1h0.1l0.1-0.1l-0.1-0.2L332,60.2z
		 M334.7,38.8l0.2-0.4l0.4-0.3l-0.1-0.6l-0.4-0.4l-0.4,0.2H334l-0.4-0.1l-0.3-0.2l-0.3,0.1v0.3l0.2,0.2l0.5,0.7l0.6,0.4L334.7,38.8z
		 M333.7,36.9v-0.6h1l0.3-0.2l0.3-0.1l-1.4-1l-0.2,0.4l-0.1,0.4l-0.3,0.5L333.7,36.9z M334.8,43.5l0.1-0.5l0.4-0.1h0.4l0.5-0.1
		l0.4-0.2l-0.7-0.5l-0.6-0.7l0.2-0.3l-0.3-0.3l-0.3,0.2v0.3l-0.2,0.4v0.4l-0.5,0.1l-0.2,0.5l0.1,0.5l0.3,0.4L334.8,43.5z
		 M334.6,32.3l0.5,0.1v-0.5l-0.5-0.2l-0.4,0.3l0.1,0.3H334.6z M335,48.2l-0.1-0.2l-0.2-0.1h-0.2l-0.2,0.2l0.1,0.2l0.3,0.1l0.1-0.1
		L335,48.2z M335.8,30.7v-0.2l-0.2-0.3H335l-0.5,0.4l0.7,0.3L335.8,30.7z M334.9,34h-0.2v0.5l0.1,0.6l0.4-0.5l-0.1-0.5L334.9,34z
		 M335,58.8l-0.3-0.3v0.4l0.2,0.3L335,58.8z M336.8,39.4l0.1-0.2l-0.1-0.1l-0.4-0.2l-0.4,0.3h-0.3l-0.1,0.1l-0.5-0.3l-0.3,0.3
		l0.2,0.4l0.5-0.1l0.1,0.1h0.2l0.5,0.1L336.8,39.4z M335.1,72.8l-0.2,0.1l-0.1,0.2v0.2l0.2,0.1l0.2-0.1v-0.4L335.1,72.8z
		 M336.4,71.3L336,71l-0.2-0.5l-0.4-0.3h-0.2l-0.1,0.1l0.3,0.7l0.6,0.4l0.3,0.1l0.2,0.3l-0.1,0.3l0.2,0.2h0.3l0.2-0.2v-0.4l-0.2-0.2
		L336.4,71.3z M337.8,46.2l0.6-0.2l0.3,0.4l0.4,0.3l0.1-0.8l-0.5-0.4l-0.6,0.1l-0.7,0.1l-0.5-0.1l-0.5-0.2h-0.6l-0.4,0.3l0.1,0.3
		l0.4,0.1h1L337.8,46.2z M336.2,32.4l-0.5,0.9l0.6,0.9l0.2-0.9v-0.8l0.2-0.6l-0.1-0.7l-0.3,0.5l-0.2,0.4v0.2L336.2,32.4z
		 M336.4,36.9L336,37l-0.3,0.1v0.3l0.2,0.3h0.4l0.3,0.2l0.1,0.4l0.5,0.7l0.8,0.4l0.1-0.1l0.1-0.2l-0.4-0.5l-0.6-0.3l-0.2-0.5
		l-0.3-0.5L336.4,36.9z M336.9,62.3l-0.5-0.1l-0.4,0.3l-0.3,0.1V63l0.4,0.5l0.5,0.4l0.2,0.2h0.2l0.2-0.2l-0.2-0.3V63l0.2-0.4
		L336.9,62.3z M336.2,35.9l0.1-0.3v-0.2l-0.2-0.2l-0.3,0.1v0.5L336,36L336.2,35.9z M336.2,44.5l0.4-0.2l-0.2-0.4l-0.3-0.1h-0.3v0.1
		l0.1,0.4L336.2,44.5z M336.1,41.4h0.6l0.2-0.2l-0.1-0.3l-0.4-0.2l-0.3,0.1l-0.1,0.4L336.1,41.4z M336.5,50.4l-0.2,0.1l-0.1,0.2
		l0.1,0.2h0.3l0.3-0.3l-0.1-0.2H336.5z M337,48.6v0.3l0.2,0.2l0.4-0.5v-0.5l0.4-0.2l0.3-0.4l-1.2,0.1L337,48.6z M337.4,29.8l0.2-0.1
		l0.1-0.2l-0.2-0.2l-0.3-0.1v0.1l-0.1,0.1l0.1,0.3L337.4,29.8z M338.2,27l-0.2-0.2h-0.2l-0.2,0.5l-0.4,0.7l0.8-0.4L338.2,27z
		 M337.2,53.1v0.4l0.1,0.2h0.1l0.2-0.4l-0.1-0.6L337.2,53.1z M337.3,30.8l0.1,0.5l0.5,0.3l1,0.5l1.1,0.6l-0.6-1.3l-0.8-1l-0.7-0.1
		L337.3,30.8z M337.6,36.4l-0.1,0.5l0.5-0.1l0.3-0.4l-0.1-0.1l-0.2-0.1L337.6,36.4z M337.9,25.9l0.2-0.2l-0.2-0.4l-0.1,0.1l-0.2,0.1
		l0.1,0.3L337.9,25.9z M341,40.1l-0.4-0.3v-0.4l0.3-0.1l0.6-0.1l0.7-0.2h0.5l0.3-0.4l0.5-0.1l0.6-0.2l-0.1-1l-0.5-1.1l-0.4,0.7
		l-0.1,0.6l-0.6,1l-0.1,0.1l-0.1,0.2l-0.7-0.1h-0.6l-0.8-0.6l-1-0.3l-0.6-0.9l-0.5,0.3l-0.4,0.7l0.6,0.5l0.5,0.4l0.4-0.4l0.6,0.2
		v0.6l-0.2,0.6l0.4,0.5l0.5,0.3l0.5-0.2L341,40.1z M338.5,32.8l-0.4,0.5l0.5,0.6l-0.8,0.6l1-0.1L338.5,32.8z M339,74l-0.2-0.3
		l-0.1-0.3l-0.3,0.5l0.1,0.5v0.1l-0.1,0.2l0.1,0.2h0.6l0.4-0.3l-0.1-0.4L339,74z M339.2,30.1h0.2l0.1-0.1l-0.2-0.2h-0.2l-0.2,0.1
		l0.2,0.1L339.2,30.1z M339.5,34.2v0.5l-0.1,0.7l-0.4,0.7l1.2-0.3l0.3-1.1v-0.2l-0.4-0.4L339.5,34.2z M339.9,60l-0.4,0.1l-0.2,0.3
		l0.2,0.2l0.3,0.1l0.4-0.2l0.2-0.2l-0.3-0.2L339.9,60z M340.1,49.4l0.1-0.1l0.1-0.2l-0.2-0.2l-0.2-0.1h-0.1V49l0.1,0.3L340.1,49.4z
		 M339.9,79.5l-0.1,0.4l0.1,0.1h0.2l0.3-0.4l-0.1-0.5L339.9,79.5z M340.6,32.3l0.4-0.1l0.1-0.4l-0.1-0.3l-0.2-0.4l-0.4,0.3l-0.2,0.4
		l0.1,0.3L340.6,32.3z M340.7,33.7l-0.2,0.1v0.3l0.2,0.2l0.4,0.5l0.3,0.5l0.1-0.1h0.1l-0.1-0.6l-0.1-0.7l-0.1-0.3H341L340.7,33.7z
		 M341.4,41.8l0.1-0.3l-0.1-0.3l-0.3-0.2l-0.3,0.1l-0.2,0.2l0.1,0.4l0.4,0.2L341.4,41.8z M341.6,35.9l-0.3,0.4l-0.3,0.3l-0.3,0.7
		l0.5,0.3l1.1-0.3l0.2-1.1l-0.3-0.6L341.6,35.9z M341.5,46.7l0.1-0.4v-0.4l-0.3-0.2l-0.4,0.2l-0.1,0.4l0.1,0.4l0.3,0.2L341.5,46.7z
		 M341.5,51.2l-0.5,0.2v0.9l0.4-0.2l0.2-0.2l0.2-0.4L341.5,51.2z M341.7,40.2l-0.1,0.3v0.1l0.1,0.2l0.4-0.4l-0.1-0.1l-0.1-0.2
		L341.7,40.2z M341.9,66.9l-0.2,0.1v0.4l0.3,0.1l0.4-0.2l-0.2-0.2L341.9,66.9z M343.7,58.1l-0.4-0.4h-0.2l-1,0.2l-0.3,0.9l0.6-0.3
		h1.1L343.7,58.1z M342.3,31.7l0.2-0.1l0.1-0.2l-0.4-0.6L342,31l-0.1,0.2v0.4L342.3,31.7z M342.6,50.1l-0.2,0.2v0.2l0.1,0.1h0.3
		l0.3-0.2v-0.3l-0.2-0.1L342.6,50.1z M343.9,62.3l0.3-0.3l-0.1-0.4l-0.1-0.1l-0.2,0.1l-0.4,0.3l0.1,0.5v0.2l-0.1,0.4l0.3,0.2
		l0.3-0.3l-0.1-0.3V62.3z M344.4,53.3h-0.3l-0.2,0.4l-0.1,0.5l0.5,0.3l-0.2-0.6l0.3-0.3V53.3z M369.3,50.4l0.8-1.3l0.6-1.4l0.4-1.6
		l0.1-1.7l-0.1-1.7l-0.4-1.5l-0.7-1.5l-0.9-1.2l-1-1.1l-1.3-0.9l-1.5-0.7l-1.8-0.2l-2,0.1l-1.4,0.1l-1.3,0.2l-2,0.1l-1.9-0.1
		l-1.4-0.2l-1.3-0.2l-2-0.1l-0.6,0.2l-0.4,0.4l-0.2,0.6l-0.1,0.6v2.1l-0.1,1.5v1.4l-0.1,2.1V48l0.1,1.4l0.1,2.1v0.7l0.3,0.5l0.4,0.3
		l0.6,0.2h2l1.4,0.1h1.3l2,0.1l2-0.1l1.4-0.3l1.4-0.2l3.7-0.2l1.5-0.5l1.3-0.7L369.3,50.4z M351.1,47.8l0.1,1.5v1.5h1.1l1.1,0.1h0.5
		v-1l0.1-2.1v-1.4l0.1-1.5v-2.7l0.2-0.6l0.4-0.4l0.6-0.2l2.4,0.1h2.7l1.9,0.1l2-0.1h1.4l1.3,0.1l1.1-0.1l-0.1-0.2l-0.7-0.9l-0.8-0.8
		l-0.9-0.7l-0.9-0.4l-1.2-0.1l-1.8,0.1l-1.2,0.1l-1.5,0.2l-2.2,0.1l-2.2-0.1l-1.5-0.3l-1.2-0.1l-0.6-0.1v1.6l-0.1,1.5v1.5l-0.1,2
		V47.8z M354.2,72.7l0.1,0.1h2.4l-1.3-1.6l-0.3-0.3h-0.3l-1.4-0.1h-2v3.3h1.6l1.2,0.1V72.7z M357.7,58.8l-0.1-0.1h-0.4l-0.1,0.2
		h-0.2l0.4,0.2h0.5V59L357.7,58.8z M358.1,57.5l-0.4,0.2v0.4l-0.1,0.1l0.1,0.1l0.2,0.1l0.3-0.1l-0.1-0.4V57.5z M360.3,65.1l-0.1-0.4
		l-0.4-0.4v0.8l0.1,0.1h0.2l0.1,0.8l0.8,0.3l-0.3-0.6L360.3,65.1z M360.3,63.6h0.2l0.1-0.3l-0.2-0.4l-0.2,0.1l-0.1,0.2l0.1,0.3
		L360.3,63.6z M361.4,59.5l0.5-0.1l0.3-0.7l-0.6,0.2l-0.5,0.2l-0.3-0.2l-0.3-0.1l0.2,0.7H361.4z M361.8,63.2L361.8,63.2l-0.1-0.3
		l-0.2-0.2l-0.1,0.2l0.1,0.2L361.8,63.2z M362.8,66.2h0.3v-0.4l0.1-0.2l-0.2-0.1l-0.1-0.4l0.3-0.3h0.3l0.2-0.2l-0.1-0.2h-0.3
		l-0.4-0.4v-0.1h-0.5l-0.5,0.1l-0.4,0.3l0.1,0.6l0.5,0.7L362.8,66.2z M362.3,68.5L362.3,68.5l-0.2-0.3l-0.2,0.1l-0.1,0.1v0.1
		l0.2,0.1h0.2L362.3,68.5z M362.5,71.4h-0.2l-0.1,0.2l0.2,0.2h0.2v-0.2L362.5,71.4z M363.2,62h0.1l0.3-0.1l0.1-0.2l-0.3-0.4
		l-0.5-0.1l-0.3,0.3l0.1,0.4l-0.1,0.3l-0.2,0.2h0.5L363.2,62z M362.5,69v0.2l0.1,0.1l0.3,0.1l0.5-0.3l-0.5-0.1H362.5z M363.1,60.6
		h0.3v-0.2l-0.2-0.2l-0.2,0.2L363.1,60.6z M363.9,68.3l-0.3,0.1l-0.1,0.3h0.3l0.3-0.3l-0.1-0.1H363.9z M365.2,69.2l-0.5-0.2
		l-0.3,0.3l-0.1,0.7l0.3,0.6l0.4-0.1l0.2-0.4l0.3-0.4l0.4-0.2l-0.4-0.1L365.2,69.2z M367.1,60.4l0.4-0.2l0.2-0.5l-0.4-0.4l-0.5,0.1
		l-0.3,0.2l-0.3,0.5l0.3,0.2L367.1,60.4z M367.6,62l-0.4-0.8l-0.5-0.2l-0.2,0.5v0.7l0.1,0.5h0.5L367.6,62z M366.6,69.1v0.4l0.3,0.3
		l0.4-0.5l0.1-0.6h-0.5L366.6,69.1z M366.9,74.7l-0.2,0.1v0.3l0.1,0.1L367,75v-0.2L366.9,74.7z M367.4,66.4l-0.5-0.5v0.7l0.1,0.5
		l-0.1,0.2l0.1,0.1l0.4,0.1l0.3-0.1V67L367.4,66.4z M369,65.6l-0.3-0.2l-0.2,0.3l-0.2,0.5l-0.1,0.6v0.3l0.1,0.2l0.2-0.1l0.2-0.3
		l0.2-0.1l0.3-0.1l0.4-0.2v-0.4l-0.2-0.4L369,65.6z M370.6,63.4l-0.3,0.1l-0.2,0.4l-0.2,0.2h-0.4v0.4l0.3,0.1l0.3-0.3h0.2l0.3-0.2
		l0.2-0.5L370.6,63.4z M369.7,68.5l-0.1,0.4l0.2,0.2l0.2-0.2l0.3-0.2l-0.2-0.3L369.7,68.5z M370.3,65.5H370v0.4l0.2,0.1l0.3-0.1
		l0.1-0.1l-0.1-0.2L370.3,65.5z M370.8,51.9l0.3-0.4l-0.1-0.6l-0.2,0.3l-0.1,0.4l-0.4,0.1l-0.1,0.2l0.2,0.2L370.8,51.9z M400.4,84.5
		l-0.3-1.9l-0.1-0.7l-0.3-0.4l-1.1-0.5h-1.3l-0.2,2.7v3.1L397,90v1l0.1,0.8L397,93l-0.5,0.7l-1,0.5h-1.1l-3.9,0.3l-3.5-0.3l-3.4-0.1
		l-3.4-0.2l-6.8,0.5h-2.6v1.2l0.2,1l0.7,0.5l3.5,0.5l3.5-0.1l3.5-0.3l3.5-0.2l3.5,0.2l3.5,0.1l3.5,0.3l3.5-0.2l0.5-0.7l-0.2-1.1
		l0.2-3.3v-3.2l0.2-3.3V84.5z M371.3,74.1l-0.2,0.2l-0.2,0.3l0.4,0.1l0.4-0.1l0.2-0.2v-0.3l-0.3-0.2L371.3,74.1z M372,64.9h-0.1
		v-0.1l-0.5-0.1l-0.3,0.3l0.2,0.4l0.3,0.5v0.6l0.7-0.7L372,64.9z M371.9,55.5l0.3-0.4l0.2-0.4h-0.7l-0.4,0.3l0.1,0.5H371.9z
		 M371.5,70.2l-0.1,0.2v0.3l0.4,0.2h0.3v-0.6l-0.3-0.2L371.5,70.2z M372.5,72.5l-0.3-0.4l-0.2-0.2h-0.2l-0.1,0.3l0.2,0.3l0.2,0.4
		h0.2L372.5,72.5z M372.4,81.2l-0.2,0.1v0.2l0.2,0.1l0.2-0.1v-0.2L372.4,81.2z M373.1,76.9v-0.3l-0.2-0.3l-0.1,0.4l0.1,0.3h0.1
		L373.1,76.9z M373.1,69.6h0.2l-0.1-0.2v-0.2l-0.1-0.1l-0.2,0.2v0.2L373.1,69.6z M373.1,77.6l-0.2,0.2l0.4,0.6l0.5,0.5l0.1-0.9
		L373.1,77.6z M374.3,47.9l-0.2-0.2l-0.2-0.1l-0.4,0.4l0.2,0.5v0.1h0.1l1,0.3l0.7-0.7h-0.6L374.3,47.9z M373.8,70.1l-0.3-0.1
		l0.2,0.4v0.4l0.2,0.2l0.3-0.2v-0.5L373.8,70.1z M374.5,31.9l-0.1-0.5l-0.2,0.1h-0.1L374,32l0.3,0.5L374.5,31.9z M375.2,80.9h-0.4
		l-0.4,0.3l0.5,0.1l0.5-0.2L375.2,80.9z M375,72.8l0.1-0.3l-0.1-0.2l-0.1-0.1h-0.2l-0.2,0.1l0.1,0.3l0.1,0.2H375z M374.6,78.4
		l0.2,0.5l0.3,0.3h0.2l0.1-0.2l-0.2-0.5L374.6,78.4z M376.3,43.9L376.3,43.9l0.3-0.4l-0.1-0.1v-0.2h-0.4l-0.1,0.5l-0.2,0.2l-0.4,0.2
		l-0.2,0.4l0.1,0.1h0.2l0.5-0.1L376.3,43.9z M376.6,82.6l-0.2-0.2l-0.3,0.3l-0.1,0.5l0.4-0.2L376.6,82.6z M376.8,84.6h-0.3l-0.2,0.1
		l0.1,0.2l0.2-0.1l0.3-0.1L376.8,84.6z M377.3,76.9l-0.1,0.2v0.1l0.4,0.1l0.3-0.2l-0.2-0.3L377.3,76.9z M378.2,36.7l0.6,0.4v-0.6
		l-0.4-0.4v-0.4l-0.3-0.2l-0.4,0.3l-0.2,0.6l0.3,0.3H378.2z M377.7,48l0.2,0.2l0.4,0.1l0.3-0.2l-0.1-0.3l-0.1-0.2l-0.4-0.1l-0.4,0.2
		L377.7,48z M378,42.9h0.3l0.2,0.1l0.2-0.1l-0.1-0.1L378,42.9L378,42.9z M378.3,82.6l-0.3,0.3v0.3l0.2,0.3l0.3,0.2l0.3-0.2l0.1-0.4
		l-0.3-0.4L378.3,82.6z M378.3,86.3l-0.2,0.1l-0.1,0.1v0.2l0.2,0.1l0.3-0.1l0.1-0.1l-0.1-0.2L378.3,86.3z M378.4,77.8v0.4l0.3,0.2
		l0.5-0.2l0.2-0.3l-0.3-0.2h-0.3L378.4,77.8z M379,83.7l0.1,0.6l0.3,0.5l0.3-0.3l-0.2-0.5L379,83.7z M380,82l-0.2-0.1h-0.2v0.2
		l0.3,0.3l0.2-0.1v-0.2L380,82z M380.5,84.2l-0.2,0.1v0.3h0.2l0.1-0.1L380.5,84.2L380.5,84.2z M380.8,83.4h-0.1l-0.1,0.2v0.2
		l0.2,0.1l0.2-0.1v-0.3L380.8,83.4z M386.4,66.9l3.1-2.3l3.1-4l2-4.6l1-4.1l0.4-4.9l-0.1-3.7l-0.5-3l-0.3-0.7l-1.8-2.9l0.7,3.8
		l0.1,3.7l-0.4,5l-1,4l-2,4.6l-3.1,4l-3.1,2.4l-3.6,1.9l2,2.7L386.4,66.9z M382.3,37.6l-0.4,0.1l-0.3-0.2l-0.1-0.3l-0.3-0.1
		l-0.2,0.2l-0.1,0.2l0.2,0.4l0.3,0.1h1.1l0.4,0.4l0.6,0.1l0.1-0.1v-0.2l-0.6-0.5L382.3,37.6z M381.4,52.3l0.3-0.3v-0.4l-0.3,0.2
		V52.3z M383.1,46.1L383,46v-0.2l-0.2-0.1l-0.3,0.2v0.4l-0.4,0.6l-0.2,0.2l-0.2,0.1l0.1,0.4l0.4,0.4l0.5-0.1L383,48l0.1-0.2v-0.1
		h0.1v-0.5l0.1-0.4l-0.1-0.4L383.1,46.1z M382.1,35.8h0.2v-0.4l-0.1-0.1H382l-0.1,0.1L382.1,35.8z M382.3,82.7H382l0.2,1l0.2,0.2
		h0.2v-0.5l-0.2-0.5L382.3,82.7z M385,51.6h-0.2l-0.1,0.3l0.1,0.2h0.2l0.1-0.2L385,51.6z"/>
	<path d="M404.5,35.8l-0.7-0.2l-0.5-0.3l-0.4-0.4l-0.1-0.7l-0.1-1.9l0.2-2.6v-2l-0.1-1.9v-2.6l0.3-1.9l0.2-0.7l0.2-0.5l0.3-0.3
		l0.7-0.2l2.1-0.3l3.1,0.4l2.2,0.1h2.2l1.5-0.2l3.8-0.2h2.2l3,0.1l2.2,0.1l2.2-0.1h7.4l3.1,0.3l2.2,0.1l3.7-0.1h1.9L449,20l3.6,0.9
		l3.4,1.2l1.8,0.5l1.8,0.7l3.2,1.4l3.2,1.9l2.8,2.3l2.4,2.6l2.2,3l1,1.5l1.1,1.4l1.8,3.2l0.6,1.7l0.5,1.8l0.8,3.7l0.2,3.6l-0.1,1.8
		V57l-0.1,3.7l-0.6,3.7l-1.2,3.5l-0.6,1.7l-1.2,3.6l-1.5,3.4l-1.1,1.5l-1.3,1.3L469,82l-2.8,2.4l-3.1,2.1l-3.2,1.7l-5.3,1.8
		l-3.6,0.7l-7.4,1.2l-1.9,0.1h-2.2l-3.1,0.1L432,92l-3,0.2h-4.4l-1.5-0.2l-5.9-0.2h-7.5l-1.5,0.2l-1.5,0.1l-2.2-0.2l-0.7-0.2
		l-0.5-0.3L403,91l-0.2-0.7l-0.3-1.9l0.1-1.3l0.2-1.3l0.1-2l-0.2-1.9l-0.2-1.4l-0.1-1.3l0.2-1.9l0.3-0.7l0.3-0.4l0.6-0.2l0.7-0.2
		l1.9-0.1l2.6,0.6l1.9-0.2l0.3-0.3l-0.1-0.4l-0.2-0.6l-0.1-0.6l-0.1-2.2l-0.2-3l-0.1-4.3v-7.4l0.1-3l0.1-2.2v-2.2l0.4-3l0.1-2.2
		v-2.2l-0.1-3v-2.8l0.2-0.5v-0.4l-0.4-0.2l-1.8-0.2l-1.3,0.2l-1.4,0.3L404.5,35.8z M412.5,97.4l2-0.1h5.3l7.5,0.2l1.5,0.1l1.5,0.2
		h1.6l4.9-0.2h7.9l1.7-0.1l2-0.3l5.5-0.9l3.8-0.8l3.7-1.2l3.8-1.6l3.4-2l3.1-2.4l2.8-2.6l2.9-3l1.3-1.8l1.7-3.7l0.6-1.7l1.2-3.6
		l0.7-1.8l0.6-2l0.4-2.1l0.3-3.9v-3.8l0.1-3.7v-2.1l-0.2-1.8l-0.4-2l-0.7-2.5l-0.8-1.6l-1-1.6l-0.7-1l0.4,1.6l0.5,1.9l0.5,3.9l0.1,2
		l-0.1,3.8V59l-0.1,2.1l-0.2,1.8l-0.5,2.1l-1.2,3.8l-1.2,3.5l-0.6,1.8l-1.7,3.7l-1.3,1.8l-2.9,3l-2.8,2.6l-3.1,2.4l-3.4,2l-3.8,1.6
		l-3.7,1.2l-3.9,0.8l-5.4,0.9l-2.1,0.3l-4.3,0.1h-7.4l-3,0.2h-4.7l-1.5-0.2l-3.6-0.1l-2.2-0.1l-3-0.1h-2.1l-2,0.1l-1.6,0.2h-0.3
		l0.2,1.4l0.2,0.7L409,97l0.5,0.3l0.7,0.2l1,0.1L412.5,97.4z M408.9,86.2v0.3l0.4,0.3l0.5-0.1l-0.4-0.4L408.9,86.2z M415.5,84.6h-1
		l-0.2,0.1l0.1,0.6l0.3,0.4l0.4-0.1l0.2-0.4l0.4-0.2l0.3-0.2L415.5,84.6z M416.1,81h-0.2l-0.1,0.2l0.1,0.1l0.2,0.1h0.2l0.1-0.2
		l-0.1-0.1L416.1,81z M419.2,81.1l-0.7,0.3L418,82l-0.1,0.4l-0.3,0.1h-0.3l-0.2,0.2V83l0.2,0.2h0.4l0.3-0.3l0.2-0.4l0.2-0.5l0.6-0.2
		l0.3-0.5v-0.1L419.2,81.1z M422.9,87.5l-0.3,0.1v0.3l0.1,0.2l0.1,0.1l0.4-0.4l-0.1-0.3H422.9z M427.9,82.5L428,82l-0.3-0.3
		l-0.2-0.4l-0.3,0.1l-0.6,0.4l-0.4,0.5l-0.2,0.2v0.3l0.3,0.1l0.3-0.2h0.6l0.4,0.1L427.9,82.5z M428.7,89.1h-0.6l-0.1,0.1l-0.4-0.1
		l-0.3,0.3l0.3,0.3l0.4-0.2h0.2l0.1,0.1l0.4,0.2l0.4-0.1v-0.3L428.7,89.1z M428.7,25.6h0.1l0.1-0.2l-0.1-0.1h-0.2l-0.1,0.1v0.2
		l0.1,0.1L428.7,25.6z M430,77.5l-0.2-0.2l-0.2,0.1l-0.1,0.2v0.1l0.1,0.1h0.2L430,77.5z M430.2,84.9l-0.4,0.4l0.2,0.4l0.4,0.2
		l0.2-0.3v-0.2l-0.1-0.4L430.2,84.9z M430.9,26.6h-0.2l-0.1,0.2v0.1l0.1,0.1h0.2l0.1-0.2L430.9,26.6L430.9,26.6z M431.1,73.1
		l-0.1,0.5l-0.2,0.4v0.2l0.3,0.1l3.1,0.2l2.2,0.1h7.3l2-0.2l1.8-0.3l1.6-0.5l1.8-0.9l1.5-1.1l1.4-1.3L455,69l1.1-1.5l0.9-1.7
		l0.7-1.7l1-3.6l0.3-1.9l0.2-1.8l0.1-1.9l-0.1-1.9l-0.3-1.7l-0.4-1.7l-0.5-1.7l-0.6-1.7l-0.7-1.7l-0.8-1.5l-1.1-1.4l-1.2-1.3
		l-1.4-1.1l-1.6-1l-1.7-0.8l-1.6-0.4l-1.8-0.2l-1.9-0.1h-1.9l-3.2-0.1l-2.1-0.1l-2.2,0.1l-3.1,0.4l-0.3,0.1l0.2,0.2l0.3,0.4l0.1,0.5
		v3.5l-0.1,1.4v2.1l-0.1,2.1l-0.4,2.8l-0.1,2.1l0.1,2l0.1,2.9v9l0.1,2.1l0.1,2.8V73.1z M431.4,25.5l-0.1-0.1h-0.2l-0.1,0.2v0.2
		l0.1,0.1l0.2-0.1v-0.1L431.4,25.5z M431.3,80.4h0.3l0.4-0.2h-0.4L431.3,80.4z M432,87.3l0.3,0.6l0.1,0.6V89l0.5,0.1l0.4-0.4v-0.2
		l-0.3-1L432,87.3z M435.3,24.5l-0.6,0.1l-0.7-0.1l-0.2-0.3l-0.1-0.4l0.4-0.2v-0.4L434,23l-0.3,0.1h-0.5l-0.5-0.2h-0.3v0.6l0.3,0.2
		l-0.1,0.8l0.8,0.1h0.6l0.6,0.2h1.3l0.5-0.4h-0.6L435.3,24.5z M433.2,55.6l0.1,1.4v9.1l0.1,3.4l0.1,2.6h0.9l2,0.1v-9.6l-0.1-2.9
		l-0.1-2l0.1-2.1l0.4-2.8l0.1-2.1l0.1-4.9v-2.1l-0.1-0.5l-0.3-0.4l-0.2-0.2l0.3-0.1l3.1-0.4l2.2-0.1l2.1,0.1l3.2,0.1h1.9l1.9,0.1
		l1.3,0.2l-0.4-0.4l-1.1-0.9l-1.3-0.9l-1.4-0.6l-1.3-0.3l-1.5-0.2l-1.7-0.1h-2l-3.1-0.1l-2.1-0.1l-2,0.1l-0.6,0.1v2.7l-0.1,1.4
		l-0.1,2v2.4l-0.4,2.7V55.6z M433.7,25.5l-0.1-0.1l-0.3,0.2v0.7l0.3,0.1l0.2-0.2l-0.1-0.4V25.5z M437.1,27.7l0.3-0.4l-0.2,0.1
		l-0.3,0.1l-0.2-0.2h-0.3v0.2L437.1,27.7z M437.7,89.2l-0.5-0.1l-0.4,0.5l0.3-0.1l0.4-0.1l0.3,0.2h0.3v-0.3L437.7,89.2z M439.3,26.9
		l0.4,0.2l0.3,0.3l0.1-0.7l-0.6-0.1l-0.3-0.1l-0.3,0.1v0.3H439.3z M439.4,28.2h0.1v-0.1l-0.1-0.3h-0.3v0.3L439.4,28.2z M439.5,86.1
		l-0.4,0.1l0.2,0.4l0.2,0.2l0.5,0.1l0.2-0.3l-0.2-0.4L439.5,86.1z M440.2,24.4V24l-0.1-0.2h-0.3L440.2,24.4z M443.7,22.1l-0.2,0.4
		v0.3l0.1,0.2l0.3,0.1h0.2l0.2-0.4L443.7,22.1z M445.1,26.9l-0.2,0.7l-0.1,0.6l0.1,0.1l0.6-0.6L445.1,26.9z M445.4,80.7l-0.2,0.1
		v0.1l0.5,0.1l0.7-0.2l-0.6-0.2L445.4,80.7z M446.4,23.3l-0.2,0.1l-0.1,0.1l0.5,0.3l0.1-0.3L446.4,23.3z M450.1,26.8l-0.1-0.1v-0.1
		l0.2-0.4l-0.5-0.5l-0.6,0.1L449,26l0.3,0.2l0.4,0.1h-0.5l-0.1,0.1l-0.1-0.1h-0.4l-0.4-0.1l-0.3-0.3v-0.2h-0.1l-0.2,0.1V26l-0.2,0.3
		l-0.1,0.3l0.3,0.1l0.4-0.2l0.6,0.2l0.2,0.1l0.3,0.5h0.2l0.1,0.1v0.1l0.1,0.1l0.1,0.2l0.2,0.5l0.1,0.2l0.2,0.2l0.2-0.1v-0.2
		L450.1,26.8z M448.7,79.6l-0.3-0.1l-0.2,0.2l0.1,0.2l0.1,0.1l0.2,0.1l0.2-0.1v-0.2L448.7,79.6z M448.8,31.2L449,31l-0.3-0.2
		l-0.1,0.4v0.6l0.5,0.3l-0.2-0.5L448.8,31.2z M449.6,84.5h-0.2l-0.1,0.1v0.2l0.3,0.2h0.3l0.1-0.2l-0.1-0.2L449.6,84.5z M451.4,79.8
		h-0.2l-0.3,0.1h-0.4V80l-0.1,0.2h0.2v0.1l0.2,0.1h0.2l0.3-0.1l0.2,0.1l0.1,0.1v0.1h0.5l-0.5-0.9L451.4,79.8z M450.7,82.2l-0.2,0.1
		l-0.1,0.2l0.1,0.1h0.2l0.1-0.1h0.1l0.1-0.2l-0.1-0.1H450.7z M450.6,78.2l0.1,0.1l0.1-0.1V78l-0.1-0.2l-0.1-0.1V78.2z M453.2,81
		l0.8-0.2l0.3-0.5l-0.6-1l0.1-0.4v-0.4l-0.1-0.5l-0.5-0.2l-0.3,0.2v0.3l0.2,0.8l0.2,0.7l0.4,0.4l-0.4,0.3L453.2,81z M453.2,30
		l0.1,0.3l0.2,0.2v0.1l0.2-0.1h0.2l0.3,0.3v0.1l-0.2,0.3l-0.3,0.3l0.2,0.8l0.4,0.1l0.1-0.2l-0.1-0.3l0.1-0.2h0.3l0.4,0.2l0.4,0.1
		l0.3,0.2l0.3-0.2l0.4,0.2l0.3,0.1l0.4-0.7l0.1-0.7l-0.5,0.2l-0.3,0.3l-0.3,0.2h-1l-0.3-0.2l-0.3-0.7l-0.5-0.5l-0.2-0.5l0.1-0.3
		h-0.5l-0.3,0.2l-0.2,0.2h0.1L453.2,30z M454,82.1l-0.4,0.2v0.3l0.3,0.2l0.8-0.2l0.1-0.3l-0.3-0.2H454z M454,27.7h0.1l0.1,0.1
		l0.2,0.1l0.3-0.2l0.4-0.2l0.7,0.8l0.2,0.1l0.3-0.1l0.6-0.1l0.4-0.5h-0.4l-0.3,0.2l-0.4-0.1h-0.1l-0.1-0.2l-0.6-0.6l-0.2-0.3
		l-0.4-0.3h-0.1l-0.2-0.2v0.4l0.2,0.3l-0.3,0.2l-0.2,0.2h-0.1l-0.1,0.2V27.7z M455.9,77.3l0.4,0.3l0.1-0.9l0.5-0.8h0.3l0.1-0.3
		l-0.2-0.2l-0.4,0.3h-0.4l-0.4,0.3l-0.3-0.3l-0.6,0.1l-0.4,0.4v0.3l0.1,0.1l0.2,0.1h0.2v-0.1l0.3,0.2l0.2,0.3L455.9,77.3z
		 M455.1,77.6h-0.2l-0.1,0.1v0.2l-0.1,0.1l0.2,0.2h0.1l0.1-0.1h0.1V78l-0.1-0.2V77.6z M466.8,78.5h-0.5l-0.5,0.1l-0.3,0.1h-0.1
		l-0.6,0.3v-0.9l-0.1-0.1v-0.1l-0.3-0.6l-0.1,0.2l-0.2,0.2l-0.3,0.4l-0.1,0.9l-0.2,0.6l-0.4,0.5l-0.1-1v-1l0.5-0.7l0.2-0.3l0.2-0.4
		l0.1-0.3l0.1-0.4h-0.3l-0.3-0.1l-0.1-0.1l-0.6-0.8l-0.6,0.2H462l-0.2,0.1h-0.2l-0.8,0.4v0.9l-0.4,0.8l-0.1,0.1l-0.2,0.1v-0.3
		l-0.1-0.2V77l-0.1-0.6V76l-0.5-0.1l-0.3-0.3l-0.5-0.1l-0.5-0.7l-0.2-0.9l0.2-0.3v-0.3l0.4-0.4l0.5-0.3h0.5v0.5l0.2,0.3h0.3l0.2-0.1
		v-0.2l-0.2-0.4l-0.1-0.1v-0.1h-0.1l0.6-0.1l0.3-0.2l-0.2-0.2v-0.4l-0.3-0.2V71l-0.4-0.1l-0.3,0.2v0.3l-0.2,0.2l-1.4,1.5l-0.6,0.2
		l-0.6,0.7l-0.4,0.1h-0.9l0.2,0.6h0.8l1,0.2h0.1l0.1,0.1h0.2l0.1,0.1l0.6,0.8l0.1,0.2l0.2,0.2h-0.1l-0.1,0.6l0.2,0.2l0.2,0.3h-0.1
		l-0.1,0.1l0.3,1l0.8,0.4l0.6-0.2h0.1l0.1-0.3l0.2-0.3h0.2l0.6,0.3l0.7,1v0.1h-0.1l-0.7,0.7h-0.3l-0.2-0.1l-0.1-0.2l0.2-0.3
		l-0.3-0.3l-0.6,0.6V80l-0.3,0.4l-0.3,0.5l-0.1,0.3l-0.4,0.6l-0.1,0.2v0.2l-0.3,0.1l-0.2,0.1V82l-0.7-0.6l-0.3-0.1l-0.1-0.1h-0.1
		v-0.3l0.1-0.3l0.5-1l-0.2-0.9l-0.8,0.4h-0.7l-0.5,0.3v0.1l-0.1,0.2l-0.2,0.2l0.2,0.2l0.1,0.3h0.7l0.1-0.2V80l0.5-0.1l0.1,0.4
		l-0.1,0.2l-0.2,0.3v0.1l-0.1,0.1v0.6l0.1,0.2l0.3,0.2l0.3,0.1v0.4l-0.1,0.4l0.6,0.4l0.3-0.1l0.2-0.1l0.4-0.1l-0.2,0.2v0.1l-0.1,0.1
		l-0.2,0.4h0.4l0.1-0.1l0.2-0.4v-0.4l0.4-0.2l1.2-0.4l0.4-0.3l0.3-0.1l0.2-0.2l0.4-0.2l0.2,0.1h0.7l0.6-0.2l0.4-0.2v-0.1h0.1
		l0.6-0.5l0.2,0.3h0.3l0.3-0.6l-0.2-0.5l0.1-0.1v-0.1l0.3-0.2l0.2-0.2h0.2l0.3-0.1l0.7-0.5L466.8,78.5z M459.4,80.2l0.4-0.2
		l-0.1-0.4l-0.1-0.1h-0.3l-0.3,0.3l-0.1,0.4l0.2,0.2L459.4,80.2z M459.5,38.2l0.2-0.1l-0.1-0.2l-0.2,0.1l-0.1,0.3l0.1-0.1H459.5z
		 M460.4,33.7L460.4,33.7l0.3,0.4h0.5l0.1-0.1l-0.2-0.3l-0.3-0.1l-0.1-0.1h-0.1l-0.2-0.3h-0.3v0.3L460.4,33.7z M460.8,35.2l0.1-0.2
		l-0.1-0.2l-0.3-0.2l-0.2,0.1l-0.1,0.3l0.2,0.3l0.2,0.1L460.8,35.2z M460.6,38.5h0.2l0.2-0.2v-0.1h-0.1l-0.1-0.1l-0.2,0.1V38.5z
		 M461.1,69.5l-0.1,0.1v1.1l0.1,0.7l0.3,0.3l0.3-0.3l0.5-0.2l0.3-0.6v-0.1l-0.1-0.1v-0.1l-0.4-0.2l-0.3-0.1l-0.4-0.4L461.1,69.5
		L461.1,69.5z M461.5,73.9h-0.1l-0.3,0.1v0.1l-0.1,0.1l0.2,0.2l0.1,0.2l0.2-0.1h0.1l0.1-0.2v-0.2L461.5,73.9z M462.5,73.1l0.2-0.2
		v-0.1l-0.2-0.3h-0.6l-0.2-0.1l-0.1-0.3l-0.5,0.1v0.5l0.4,0.1v0.1l0.1,0.1l0.4,0.3L462.5,73.1z M461.5,69.7l0.1,0.1v-0.1l0.1-0.2
		l0.3,0.1l0.4,0.1h0.3l0.3-0.1l-0.3-0.7l-0.4-0.7l-0.3,0.3l-0.2,0.4l-0.4,0.5l0.1,0.2V69.7z M463,72.8l0.4,0.7h0.1l0.2-0.2v-0.6
		l-0.3-0.6l0.2-0.5v-0.3l0.1-0.3v-0.2l-0.1-0.1h-0.2l-0.2-0.1H463l-0.2,0.1l0.1,0.1v0.3l0.2,0.1l0.2,0.3l-0.2,0.4L463,72.8z
		 M463.6,67.5l-0.1-0.2h-0.2l-0.2,0.6l-0.1,0.6l0.4-0.4L463.6,67.5z M463.6,66l0.4,0.1l0.1-0.5l-0.4-0.3l-0.3,0.3v0.3L463.6,66z
		 M463.9,69.4l0.1-0.2l-0.1-0.3l-0.2,0.1l-0.1,0.2l-0.1,0.3l0.1,0.3l0.2-0.1L463.9,69.4z M464,39.6l0.5,0.3l0.4-0.4l-0.3-0.5
		l-0.8-0.3l0.1,0.5L464,39.6z M468.7,72.4v0.1h-0.1l-0.3,0.8l-0.1,0.2l-0.6,0.5h-0.1l-1.3,0.3l-0.4-0.3l-0.2-0.9l-0.6-0.6l0.3-0.8
		l-0.2-0.4l-0.2,0.2h-0.3l-0.3,0.2l-0.4,0.3l0.2,0.7l0.1,0.5l0.5-0.2l0.3,0.4l-0.4,0.6l-0.4,0.5v0.6l0.1,0.3v0.3h0.5l0.1-0.2
		l0.1-0.1V75l0.1-0.4l0.4-0.1l0.5,0.3h0.5l0.4,0.3l0.5-0.4l0.8,0.2l0.3-0.5l0.5-0.8l0.1-0.2v-0.3l0.1-0.4v-0.2l0.1-0.6l-0.4,0.3
		L468.7,72.4z M465,64.1l-0.1-0.3l-0.5-0.1l-0.4,0.4l0.4,0.4l0.5-0.2L465,64.1z M465.5,65l-0.4,0.5l-0.3,0.4v0.4l-0.2,0.4l-0.1,0.1
		V67h-0.2l0.1,0.1v0.3l0.1,0.6l0.2-0.5l0.2-0.2v-0.2l0.1-0.3v-0.4l0.4-0.6L465.5,65z M464.6,42.6l-0.2,0.1V43l0.2,0.2h0.1l0.2,0.2
		h0.2l0.1-0.2V43l-0.1-0.1l-0.3-0.2L464.6,42.6z M464.6,70.6l-0.2,0.4h0.2l0.1,0.1l0.2-0.2l0.2-0.1v-0.2l-0.1-0.1L464.6,70.6z
		 M465.7,76v-0.2h-0.3v0.1l-0.2,0.1l-0.2,0.6l0.3-0.2L465.7,76z M465.9,40.3h-0.6v0.4l0.3-0.1L465.9,40.3z M466.3,68.2l-0.4,0.2
		l-0.4,0.3l0.8,0.1l0.3-1.1v-0.6l-0.4,0.4L466.3,68.2z M466.2,36.8l0.3,0.3l0.2,0.3l0.1-0.3l0.2-0.4l0.1-0.3l-0.3-0.3l-0.6-0.1
		l-0.5,0.3l0.1,0.4L466.2,36.8z M467.5,69.6v-0.8l-0.6-0.1l-0.2,0.6l-0.3,0.7l-0.6,0.6h1L467.5,69.6z M466,65.3l0.4,0.3l0.6,0.7
		l0.8,0.8l-0.1-1.5l-0.5-1.1l-0.5-0.3l-0.6,0.5L466,65.3z M466.5,49.4l-0.2,0.2l0.2,0.4l0.5,0.2l0.1-0.4l-0.2-0.3L466.5,49.4z
		 M466.3,63.1v0.3l0.2,0.1h0.1l0.1-0.1v-0.2l-0.1-0.1l-0.2-0.1L466.3,63.1z M467.4,60.7l-0.1-0.3h-0.2l-0.2,0.5l-0.4,0.9l0.7-0.5
		L467.4,60.7z M466.7,73.1l0.5-0.1h0.6l0.2-0.4l0.1-0.3v-0.1h0.1l0.3-0.6v-0.7l-0.6,0.2l-0.8,0.6v0.1H467v0.1l-0.1,0.1l-0.2,0.4
		h-0.1v0.3L466.7,73.1z M467.1,59v0.2l0.2,0.2l0.2-0.2l-0.1-0.2l-0.1-0.3l-0.1,0.1L467.1,59z M467.6,39.2l0.2-0.2l0.2-0.1l0.1-0.1
		l-0.3-0.3l-0.4,0.1l-0.2,0.4l0.2,0.3L467.6,39.2z M467.2,44.3h0.7l-0.4-0.5L467.2,44.3z M467.3,46.7L467.3,46.7l0.1,0.4l0.3,0.2
		v-0.4l-0.2-0.2H467.3z M468.3,36.9l-0.2-0.5l-0.3-0.4l-0.3,0.2l-0.1,0.3l0.3,0.3L468.3,36.9z M467.9,63.8h-0.1l-0.2,0.1l0.1,0.2
		l0.1,0.1h0.1l0.1-0.1V64L467.9,63.8z M467.8,68.6l-0.1,0.3l0.1,0.3l0.2,1.2h0.1l0.1-0.1l0.1-0.7l0.1-0.6l0.1-0.2v-0.3l-0.2-0.1
		h-0.2L467.8,68.6z M468.7,66.7l0.2-0.4V66l-0.1-0.5l-0.3,0.2l-0.3,0.5v0.3l0.2,0.3L468.7,66.7z M468.5,41.7v0.5l0.6,0.4v-0.4
		l0.2-0.4l-0.1-0.4l-0.3-0.3h-0.3l-0.2,0.4L468.5,41.7z M469.5,44.7l-0.1-0.1v-0.1l0.2-0.7l-0.4-0.6h-0.5l-0.2,0.4l-0.1,0.1l0.3,0.5
		l0.5,0.4l-0.1,0.5l0.2,0.4h0.2l0.1-0.4L469.5,44.7z M469.2,48.3l-0.2,0.1l-0.1,0.3l0.2,0.4l0.2-0.3v-0.4L469.2,48.3z M470,65.4
		l-0.4,0.4v0.4l0.3,0.1h0.2l0.1-0.3L470,65.4z M470,47.9l0.2,0.3l0.3,0.1l0.1-0.1v-0.1l-0.2-0.2H470z M471.8,45.3l-0.1-0.3l-0.2-0.1
		l-0.3,0.1l-0.6,0.1l-0.3,0.2l0.4,0.3l0.7-0.1L471.8,45.3z M471.6,51.2l-0.1-0.1h-0.2l-0.1,0.1v0.2h0.1l0.1,0.1l0.2-0.1V51.2z
		 M471.7,52.2l-0.1,0.2v0.3l0.2,0.1l0.1-0.2v-0.2L471.7,52.2z M474,51L474,51l-0.3,0.2l0.1,0.2h0.1l0.2-0.1v-0.2L474,51z"/>
	<path d="M528.4,35.8l-0.7-0.2l-0.5-0.3l-0.4-0.4l-0.1-0.7l-0.1-1.9l0.2-2.6v-2l-0.1-1.9v-2.6l0.3-1.9l0.2-0.7l0.2-0.5l0.3-0.3
		l0.7-0.2l2.1-0.3l3.1,0.4l2.2,0.1h2.2l1.5-0.2l3.8-0.2h2.2l3,0.1l2.2,0.1l2.2-0.1h7.4l3.1,0.3l2.2,0.1l3.7-0.1h1.9l1.7,0.2l3.6,0.9
		l3.4,1.2l1.8,0.5l1.8,0.7l3.2,1.4l3.2,1.9l2.8,2.3l2.4,2.6l2.2,3l1,1.5l1.1,1.4l1.8,3.2l0.6,1.7l0.5,1.8l0.8,3.7l0.2,3.6l-0.1,1.8
		V57l-0.1,3.7l-0.6,3.7l-1.2,3.5l-0.6,1.7l-1.2,3.6l-1.5,3.4l-1.1,1.5l-1.3,1.3L593,82l-2.8,2.4l-3.1,2.1l-3.2,1.7l-5.3,1.8
		l-3.6,0.7l-7.4,1.2l-1.9,0.1h-2.2l-3.1,0.1l-4.4-0.1l-3,0.2h-4.4L547,92l-5.9-0.2h-7.5l-1.5,0.2l-1.5,0.1l-2.2-0.2l-0.7-0.2
		l-0.5-0.3l-0.3-0.4l-0.2-0.7l-0.3-1.9l0.1-1.3l0.2-1.3l0.1-2l-0.2-1.9l-0.2-1.4l-0.1-1.3l0.2-1.9l0.3-0.7l0.3-0.4l0.6-0.2l0.7-0.2
		l1.9-0.1l2.6,0.6l1.9-0.2l0.3-0.3l-0.1-0.4l-0.2-0.6l-0.1-0.6l-0.1-2.2l-0.2-3l-0.1-4.3v-7.4l0.1-3l0.1-2.2v-2.2l0.4-3l0.1-2.2
		v-2.2l-0.1-3v-2.8l0.2-0.5v-0.4l-0.4-0.2l-1.8-0.2l-1.3,0.2l-1.4,0.3L528.4,35.8z M536.4,97.4l2-0.1h5.3l7.5,0.2l1.5,0.1l1.5,0.2
		h1.6l4.9-0.2h7.9l1.7-0.1l2-0.3l5.5-0.9l3.8-0.8l3.7-1.2l3.8-1.6l3.4-2l3.1-2.4l2.8-2.6l2.9-3l1.3-1.8l1.7-3.7l0.6-1.7l1.2-3.6
		l0.7-1.8l0.6-2l0.4-2.1l0.3-3.9v-3.8l0.1-3.7v-2.1l-0.2-1.8l-0.4-2l-0.7-2.5l-0.8-1.6l-1-1.6l-0.7-1l0.4,1.6l0.5,1.9l0.5,3.9l0.1,2
		l-0.1,3.8V59l-0.1,2.1l-0.2,1.8l-0.5,2.1l-1.2,3.8l-1.2,3.5l-0.6,1.8l-1.7,3.7l-1.3,1.8l-2.9,3l-2.8,2.6l-3.1,2.4l-3.4,2l-3.8,1.6
		l-3.7,1.2l-3.9,0.8l-5.4,0.9l-2.1,0.3l-4.3,0.1h-7.4l-3,0.2h-4.7l-1.5-0.2l-3.6-0.1l-2.2-0.1l-3-0.1h-2.1l-2,0.1l-1.6,0.2h-0.3
		l0.2,1.4l0.2,0.7l0.3,0.4l0.5,0.3l0.7,0.2l1,0.1L536.4,97.4z M532.8,86.2v0.3l0.4,0.3l0.5-0.1l-0.4-0.4L532.8,86.2z M539.4,84.6h-1
		l-0.2,0.1l0.1,0.6l0.3,0.4l0.4-0.1l0.2-0.4l0.4-0.2l0.3-0.2L539.4,84.6z M540,81h-0.2l-0.1,0.2l0.1,0.1l0.2,0.1h0.2l0.1-0.2
		l-0.1-0.1L540,81z M543.1,81.1l-0.7,0.3l-0.5,0.6l-0.1,0.4l-0.3,0.1h-0.3l-0.2,0.2V83l0.2,0.2h0.4l0.3-0.3l0.2-0.4l0.2-0.5l0.6-0.2
		l0.3-0.5v-0.1L543.1,81.1z M546.8,87.5l-0.3,0.1v0.3l0.1,0.2l0.1,0.1l0.4-0.4l-0.1-0.3H546.8z M551.8,82.5l0.1-0.5l-0.3-0.3
		l-0.2-0.4l-0.3,0.1l-0.6,0.4l-0.4,0.5l-0.2,0.2v0.3l0.3,0.1l0.3-0.2h0.6l0.4,0.1L551.8,82.5z M552.6,89.1H552l-0.1,0.1l-0.4-0.1
		l-0.3,0.3l0.3,0.3l0.4-0.2h0.2l0.1,0.1l0.4,0.2l0.4-0.1v-0.3L552.6,89.1z M552.6,25.6h0.1l0.1-0.2l-0.1-0.1h-0.2l-0.1,0.1v0.2
		l0.1,0.1L552.6,25.6z M553.9,77.5l-0.2-0.2l-0.2,0.1l-0.1,0.2v0.1l0.1,0.1h0.2L553.9,77.5z M554.1,84.9l-0.4,0.4l0.2,0.4l0.4,0.2
		l0.2-0.3v-0.2l-0.1-0.4L554.1,84.9z M554.8,26.6h-0.2l-0.1,0.2v0.1l0.1,0.1h0.2l0.1-0.2L554.8,26.6L554.8,26.6z M555,73.1l-0.1,0.5
		l-0.2,0.4v0.2l0.3,0.1l3.1,0.2l2.2,0.1h7.3l2-0.2l1.8-0.3l1.6-0.5l1.8-0.9l1.5-1.1l1.4-1.3l1.2-1.3l1.1-1.5l0.9-1.7l0.7-1.7l1-3.6
		l0.3-1.9l0.2-1.8l0.1-1.9l-0.1-1.9l-0.3-1.7l-0.4-1.7l-0.5-1.7l-0.6-1.7l-0.7-1.7l-0.8-1.5l-1.1-1.4l-1.2-1.3l-1.4-1.1l-1.6-1
		l-1.7-0.8l-1.6-0.4l-1.8-0.2l-1.9-0.1h-1.9l-3.2-0.1l-2.1-0.1l-2.2,0.1L555,37l-0.3,0.1l0.2,0.2l0.3,0.4l0.1,0.5v3.5l-0.1,1.4v2.1
		l-0.1,2.1l-0.4,2.8l-0.1,2.1l0.1,2l0.1,2.9v9l0.1,2.1L555,71V73.1z M555.3,25.5l-0.1-0.1H555l-0.1,0.2v0.2l0.1,0.1l0.2-0.1v-0.1
		L555.3,25.5z M555.2,80.4h0.3l0.4-0.2h-0.4L555.2,80.4z M555.9,87.3l0.3,0.6l0.1,0.6V89l0.5,0.1l0.4-0.4v-0.2l-0.3-1L555.9,87.3z
		 M559.2,24.5l-0.6,0.1l-0.7-0.1l-0.2-0.3l-0.1-0.4l0.4-0.2v-0.4l-0.1-0.2l-0.3,0.1h-0.5l-0.5-0.2h-0.3v0.6l0.3,0.2l-0.1,0.8
		l0.8,0.1h0.6l0.6,0.2h1.3l0.5-0.4h-0.6L559.2,24.5z M557.1,55.6l0.1,1.4v9.1l0.1,3.4l0.1,2.6h0.9l2,0.1v-9.6l-0.1-2.9l-0.1-2
		l0.1-2.1l0.4-2.8l0.1-2.1l0.1-4.9v-2.1l-0.1-0.5l-0.3-0.4l-0.2-0.2l0.3-0.1l3.1-0.4l2.2-0.1l2.1,0.1l3.2,0.1h1.9l1.9,0.1l1.3,0.2
		l-0.4-0.4l-1.1-0.9l-1.3-0.9l-1.4-0.6l-1.3-0.3l-1.5-0.2l-1.7-0.1h-2l-3.1-0.1l-2.1-0.1l-2,0.1l-0.6,0.1v2.7l-0.1,1.4l-0.1,2v2.4
		l-0.4,2.7V55.6z M557.6,25.5l-0.1-0.1l-0.3,0.2v0.7l0.3,0.1l0.2-0.2l-0.1-0.4V25.5z M561,27.7l0.3-0.4l-0.2,0.1l-0.3,0.1l-0.2-0.2
		h-0.3v0.2L561,27.7z M561.6,89.2l-0.5-0.1l-0.4,0.5l0.3-0.1l0.4-0.1l0.3,0.2h0.3v-0.3L561.6,89.2z M563.2,26.9l0.4,0.2l0.3,0.3
		l0.1-0.7l-0.6-0.1l-0.3-0.1l-0.3,0.1v0.3H563.2z M563.3,28.2h0.1v-0.1l-0.1-0.3H563v0.3L563.3,28.2z M563.4,86.1l-0.4,0.1l0.2,0.4
		l0.2,0.2l0.5,0.1l0.2-0.3l-0.2-0.4L563.4,86.1z M564.1,24.4V24l-0.1-0.2h-0.3L564.1,24.4z M567.6,22.1l-0.2,0.4v0.3l0.1,0.2
		l0.3,0.1h0.2l0.2-0.4L567.6,22.1z M569,26.9l-0.2,0.7l-0.1,0.6l0.1,0.1l0.6-0.6L569,26.9z M569.3,80.7l-0.2,0.1v0.1l0.5,0.1
		l0.7-0.2l-0.6-0.2L569.3,80.7z M570.3,23.3l-0.2,0.1l-0.1,0.1l0.5,0.3l0.1-0.3L570.3,23.3z M574,26.8l-0.1-0.1v-0.1l0.2-0.4
		l-0.5-0.5l-0.6,0.1l-0.1,0.2l0.3,0.2l0.4,0.1h-0.5l-0.1,0.1l-0.1-0.1h-0.4l-0.4-0.1l-0.3-0.3v-0.2h-0.1l-0.2,0.1V26l-0.2,0.3
		l-0.1,0.3l0.3,0.1l0.4-0.2l0.6,0.2l0.2,0.1l0.3,0.5h0.2l0.1,0.1v0.1l0.1,0.1l0.1,0.2l0.2,0.5l0.1,0.2l0.2,0.2l0.2-0.1v-0.2
		L574,26.8z M572.6,79.6l-0.3-0.1l-0.2,0.2l0.1,0.2l0.1,0.1l0.2,0.1l0.2-0.1v-0.2L572.6,79.6z M572.7,31.2l0.2-0.2l-0.3-0.2
		l-0.1,0.4v0.6l0.5,0.3l-0.2-0.5L572.7,31.2z M573.5,84.5h-0.2l-0.1,0.1v0.2l0.3,0.2h0.3l0.1-0.2l-0.1-0.2L573.5,84.5z M575.3,79.8
		h-0.2l-0.3,0.1h-0.4V80l-0.1,0.2h0.2v0.1l0.2,0.1h0.2l0.3-0.1l0.2,0.1l0.1,0.1v0.1h0.5l-0.5-0.9L575.3,79.8z M574.6,82.2l-0.2,0.1
		l-0.1,0.2l0.1,0.1h0.2l0.1-0.1h0.1l0.1-0.2l-0.1-0.1H574.6z M574.5,78.2l0.1,0.1l0.1-0.1V78l-0.1-0.2l-0.1-0.1V78.2z M577.1,81
		l0.8-0.2l0.3-0.5l-0.6-1l0.1-0.4v-0.4l-0.1-0.5l-0.5-0.2l-0.3,0.2v0.3l0.2,0.8l0.2,0.7l0.4,0.4l-0.4,0.3L577.1,81z M577.1,30
		l0.1,0.3l0.2,0.2v0.1l0.2-0.1h0.2l0.3,0.3v0.1l-0.2,0.3l-0.3,0.3l0.2,0.8l0.4,0.1l0.1-0.2l-0.1-0.3l0.1-0.2h0.3l0.4,0.2l0.4,0.1
		l0.3,0.2L580,32l0.4,0.2l0.3,0.1l0.4-0.7l0.1-0.7l-0.5,0.2l-0.3,0.3l-0.3,0.2h-1l-0.3-0.2l-0.3-0.7l-0.5-0.5l-0.2-0.5l0.1-0.3h-0.5
		l-0.3,0.2l-0.2,0.2h0.1L577.1,30z M577.9,82.1l-0.4,0.2v0.3l0.3,0.2l0.8-0.2l0.1-0.3l-0.3-0.2H577.9z M577.9,27.7h0.1l0.1,0.1
		l0.2,0.1l0.3-0.2l0.4-0.2l0.7,0.8l0.2,0.1l0.3-0.1l0.6-0.1l0.4-0.5h-0.4l-0.3,0.2l-0.4-0.1H580l-0.1-0.2l-0.6-0.6l-0.2-0.3
		l-0.4-0.3h-0.1l-0.2-0.2v0.4l0.2,0.3l-0.3,0.2l-0.2,0.2H578l-0.1,0.2V27.7z M579.8,77.3l0.4,0.3l0.1-0.9l0.5-0.8h0.3l0.1-0.3
		l-0.2-0.2l-0.4,0.3h-0.4l-0.4,0.3l-0.3-0.3l-0.6,0.1l-0.4,0.4v0.3l0.1,0.1l0.2,0.1h0.2v-0.1l0.3,0.2l0.2,0.3L579.8,77.3z M579,77.6
		h-0.2l-0.1,0.1v0.2l-0.1,0.1l0.2,0.2h0.1l0.1-0.1h0.1V78l-0.1-0.2V77.6z M590.8,78.5h-0.5l-0.5,0.1l-0.3,0.1h-0.1l-0.6,0.3v-0.9
		l-0.1-0.1v-0.1l-0.3-0.6l-0.1,0.2l-0.2,0.2l-0.3,0.4l-0.1,0.9l-0.2,0.6l-0.4,0.5l-0.1-1v-1l0.5-0.7l0.2-0.3l0.2-0.4l0.1-0.3
		l0.1-0.4h-0.3l-0.3-0.1l-0.1-0.1l-0.6-0.8l-0.6,0.2H586l-0.2,0.1h-0.2l-0.8,0.4v0.9l-0.4,0.8l-0.1,0.1l-0.2,0.1v-0.3l-0.1-0.2V77
		l-0.1-0.6V76l-0.5-0.1l-0.3-0.3l-0.5-0.1l-0.5-0.7l-0.2-0.9l0.2-0.3v-0.3l0.4-0.4l0.5-0.3h0.5v0.5l0.2,0.3h0.3l0.2-0.1v-0.2
		l-0.2-0.4l-0.1-0.1v-0.1h-0.1l0.6-0.1l0.3-0.2l-0.2-0.2v-0.4l-0.3-0.2V71l-0.4-0.1l-0.3,0.2v0.3l-0.2,0.2l-1.4,1.5l-0.6,0.2
		l-0.6,0.7l-0.4,0.1h-0.9l0.2,0.6h0.8l1,0.2h0.1l0.1,0.1h0.2l0.1,0.1l0.6,0.8l0.1,0.2l0.2,0.2h-0.1l-0.1,0.6l0.2,0.2l0.2,0.3h-0.1
		l-0.1,0.1l0.3,1l0.8,0.4l0.6-0.2h0.1l0.1-0.3l0.2-0.3h0.2l0.6,0.3l0.7,1v0.1h-0.1l-0.7,0.7h-0.3l-0.2-0.1l-0.1-0.2l0.2-0.3
		l-0.3-0.3l-0.6,0.6V80l-0.3,0.4l-0.3,0.5l-0.1,0.3l-0.4,0.6L583,82v0.2l-0.3,0.1l-0.2,0.1V82l-0.7-0.6l-0.3-0.1l-0.1-0.1h-0.1v-0.3
		l0.1-0.3l0.5-1l-0.2-0.9l-0.8,0.4h-0.7l-0.5,0.3v0.1l-0.1,0.2l-0.2,0.2l0.2,0.2l0.1,0.3h0.7l0.1-0.2V80l0.5-0.1l0.1,0.4l-0.1,0.2
		l-0.2,0.3v0.1l-0.1,0.1v0.6l0.1,0.2l0.3,0.2l0.3,0.1v0.4l-0.1,0.4l0.6,0.4l0.3-0.1l0.2-0.1l0.4-0.1l-0.2,0.2v0.1l-0.1,0.1l-0.2,0.4
		h0.4l0.1-0.1l0.2-0.4v-0.4l0.4-0.2l1.2-0.4l0.4-0.3l0.3-0.1l0.2-0.2l0.4-0.2l0.2,0.1h0.7l0.6-0.2l0.4-0.2v-0.1h0.1l0.6-0.5l0.2,0.3
		h0.3l0.3-0.6l-0.2-0.5l0.1-0.1v-0.1l0.3-0.2l0.2-0.2h0.2l0.3-0.1l0.7-0.5L590.8,78.5z M583.3,80.2l0.4-0.2l-0.1-0.4l-0.1-0.1h-0.3
		l-0.3,0.3l-0.1,0.4l0.2,0.2L583.3,80.2z M583.4,38.2l0.2-0.1l-0.1-0.2l-0.2,0.1l-0.1,0.3L583.4,38.2L583.4,38.2z M584.3,33.7
		L584.3,33.7l0.3,0.4h0.5l0.1-0.1l-0.2-0.3l-0.3-0.1l-0.1-0.1h-0.1l-0.2-0.3H584v0.3L584.3,33.7z M584.7,35.2l0.1-0.2l-0.1-0.2
		l-0.3-0.2l-0.2,0.1l-0.1,0.3l0.2,0.3l0.2,0.1L584.7,35.2z M584.5,38.5h0.2l0.2-0.2v-0.1h-0.1l-0.1-0.1l-0.2,0.1V38.5z M585.1,69.5
		l-0.1,0.1v1.1l0.1,0.7l0.3,0.3l0.3-0.3l0.5-0.2l0.3-0.6v-0.1l-0.1-0.1v-0.1l-0.4-0.2l-0.3-0.1l-0.4-0.4L585.1,69.5L585.1,69.5z
		 M585.4,73.9L585.4,73.9l-0.4,0.1v0.1l-0.1,0.1l0.2,0.2l0.1,0.2l0.2-0.1h0.1l0.1-0.2v-0.2L585.4,73.9z M586.5,73.1l0.2-0.2v-0.1
		l-0.2-0.3h-0.6l-0.2-0.1l-0.1-0.3l-0.5,0.1v0.5l0.4,0.1v0.1l0.1,0.1l0.4,0.3L586.5,73.1z M585.4,69.7l0.1,0.1v-0.1l0.1-0.2l0.3,0.1
		l0.4,0.1h0.3l0.3-0.1l-0.3-0.7l-0.4-0.7l-0.3,0.3l-0.2,0.4l-0.4,0.5l0.1,0.2V69.7z M587,72.8l0.4,0.7h0.1l0.2-0.2v-0.6l-0.3-0.6
		l0.2-0.5v-0.3l0.1-0.3v-0.2l-0.1-0.1h-0.2l-0.2-0.1H587l-0.2,0.1l0.1,0.1v0.3l0.2,0.1l0.2,0.3l-0.2,0.4L587,72.8z M587.6,67.5
		l-0.1-0.2h-0.2l-0.2,0.6l-0.1,0.6l0.4-0.4L587.6,67.5z M587.6,66l0.4,0.1l0.1-0.5l-0.4-0.3l-0.3,0.3v0.3L587.6,66z M587.9,69.4
		l0.1-0.2l-0.1-0.3l-0.2,0.1l-0.1,0.2l-0.1,0.3l0.1,0.3l0.2-0.1L587.9,69.4z M588,39.6l0.5,0.3l0.4-0.4l-0.3-0.5l-0.8-0.3l0.1,0.5
		L588,39.6z M592.7,72.4v0.1h-0.1l-0.3,0.8l-0.1,0.2l-0.6,0.5h-0.1l-1.3,0.3l-0.4-0.3l-0.2-0.9l-0.6-0.6l0.3-0.8l-0.2-0.4l-0.2,0.2
		h-0.3l-0.3,0.2l-0.4,0.3l0.2,0.7l0.1,0.5l0.5-0.2l0.3,0.4l-0.4,0.6l-0.4,0.5v0.6l0.1,0.3v0.3h0.5l0.1-0.2l0.1-0.1V75l0.1-0.4
		l0.4-0.1l0.5,0.3h0.5l0.4,0.3l0.5-0.4l0.8,0.2l0.3-0.5l0.5-0.8l0.1-0.2v-0.3l0.1-0.4v-0.2l0.1-0.6l-0.4,0.3L592.7,72.4z M589,64.1
		l-0.1-0.3l-0.5-0.1l-0.4,0.4l0.4,0.4l0.5-0.2L589,64.1z M589.5,65l-0.4,0.5l-0.3,0.4v0.4l-0.2,0.4l-0.1,0.1V67h-0.2l0.1,0.1v0.3
		l0.1,0.6l0.2-0.5l0.2-0.2v-0.2l0.1-0.3v-0.4l0.4-0.6L589.5,65z M588.6,42.6l-0.2,0.1V43l0.2,0.2h0.1l0.2,0.2h0.2l0.1-0.2V43
		l-0.1-0.1l-0.3-0.2L588.6,42.6z M588.6,70.6l-0.2,0.4h0.2l0.1,0.1l0.2-0.2l0.2-0.1v-0.2l-0.1-0.1L588.6,70.6z M589.7,76v-0.2h-0.3
		v0.1l-0.2,0.1l-0.2,0.6l0.3-0.2L589.7,76z M589.9,40.3h-0.6v0.4l0.3-0.1L589.9,40.3z M590.3,68.2l-0.4,0.2l-0.4,0.3l0.8,0.1
		l0.3-1.1v-0.6l-0.4,0.4L590.3,68.2z M590.2,36.8l0.3,0.3l0.2,0.3l0.1-0.3l0.2-0.4l0.1-0.3l-0.3-0.3l-0.6-0.1l-0.5,0.3l0.1,0.4
		L590.2,36.8z M591.5,69.6v-0.8l-0.6-0.1l-0.2,0.6l-0.3,0.7l-0.6,0.6h1L591.5,69.6z M590,65.3l0.4,0.3l0.6,0.7l0.8,0.8l-0.1-1.5
		l-0.5-1.1l-0.5-0.3l-0.6,0.5L590,65.3z M590.5,49.4l-0.2,0.2l0.2,0.4l0.5,0.2l0.1-0.4l-0.2-0.3L590.5,49.4z M590.3,63.1v0.3
		l0.2,0.1h0.1l0.1-0.1v-0.2l-0.1-0.1l-0.2-0.1L590.3,63.1z M591.4,60.7l-0.1-0.3h-0.2l-0.2,0.5l-0.4,0.9l0.7-0.5L591.4,60.7z
		 M590.7,73.1l0.5-0.1h0.6l0.2-0.4l0.1-0.3v-0.1h0.1l0.3-0.6v-0.7l-0.6,0.2l-0.8,0.6v0.1H591v0.1l-0.1,0.1l-0.2,0.4h-0.1v0.3
		L590.7,73.1z M591.1,59v0.2l0.2,0.2l0.2-0.2l-0.1-0.2l-0.1-0.3l-0.1,0.1L591.1,59z M591.6,39.2l0.2-0.2l0.2-0.1l0.1-0.1l-0.3-0.3
		l-0.4,0.1l-0.2,0.4l0.2,0.3L591.6,39.2z M591.2,44.3h0.7l-0.4-0.5L591.2,44.3z M591.3,46.7L591.3,46.7l0.1,0.4l0.3,0.2v-0.4
		l-0.2-0.2H591.3z M592.3,36.9l-0.2-0.5l-0.3-0.4l-0.3,0.2l-0.1,0.3l0.3,0.3L592.3,36.9z M591.9,63.8L591.9,63.8l-0.3,0.1l0.1,0.2
		l0.1,0.1h0.1l0.1-0.1V64L591.9,63.8z M591.8,68.6l-0.1,0.3l0.1,0.3l0.2,1.2h0.1l0.1-0.1l0.1-0.7l0.1-0.6l0.1-0.2v-0.3l-0.2-0.1
		h-0.2L591.8,68.6z M592.7,66.7l0.2-0.4V66l-0.1-0.5l-0.3,0.2l-0.3,0.5v0.3l0.2,0.3L592.7,66.7z M592.5,41.7v0.5l0.6,0.4v-0.4
		l0.2-0.4l-0.1-0.4l-0.3-0.3h-0.3l-0.2,0.4L592.5,41.7z M593.5,44.7l-0.1-0.1v-0.1l0.2-0.7l-0.4-0.6h-0.5l-0.2,0.4l-0.1,0.1l0.3,0.5
		l0.5,0.4l-0.1,0.5l0.2,0.4h0.2l0.1-0.4L593.5,44.7z M593.2,48.3l-0.2,0.1l-0.1,0.3l0.2,0.4l0.2-0.3v-0.4L593.2,48.3z M594,65.4
		l-0.4,0.4v0.4l0.3,0.1h0.2l0.1-0.3L594,65.4z M594,47.9l0.2,0.3l0.3,0.1l0.1-0.1v-0.1l-0.2-0.2H594z M595.8,45.3l-0.1-0.3l-0.2-0.1
		l-0.3,0.1l-0.6,0.1l-0.3,0.2l0.4,0.3l0.7-0.1L595.8,45.3z M595.6,51.2L595.6,51.2l-0.3-0.1l-0.1,0.1v0.2h0.1l0.1,0.1l0.2-0.1V51.2z
		 M595.7,52.2l-0.1,0.2v0.3l0.2,0.1l0.1-0.2v-0.2L595.7,52.2z M598,51L598,51l-0.3,0.2l0.1,0.2h0.1l0.2-0.1v-0.2L598,51z"/>
</g>
<path d="M499.8,3c0.3-0.3,0.2-0.6,5.1-0.6c4.8,0,4.4,0.3,4.7,0.6c0.3,0.3,0.7,2,0.7,2c-0.8,0-0.8,0.4-1.3,0.4
	c-0.2,0-0.5-0.4-0.8-0.4c-0.3,0-0.5,0.4-0.8,0.4c-0.3,0-0.5-0.4-0.8-0.4c-0.3,0-0.6,0.4-0.8,0.4c-0.3,0-0.6-0.4-0.8-0.4
	c-0.3,0-0.6,0.4-0.9,0.4c-0.3,0-0.6-0.4-0.9-0.4c-0.3,0-0.6,0.4-0.9,0.4c-0.3,0-0.6-0.4-0.9-0.4c-0.3,0-0.6,0.4-0.9,0.4
	c-0.5,0-0.3-0.4-1.3-0.4C499.2,5,499.6,3.3,499.8,3z M517.3,91.3c-0.3-3.1,1-33.3,0.2-39.1c-1.8-12.6-8-15.9-8-36.6
	c0-1,0.1-1.2,0.2-1.3c0.2-0.2,0.5-0.2,0.3-1c-0.2-0.8-0.6-2-0.6-2s-0.1-0.5,0-0.6c0.1-0.1,0.1-0.7-0.4-0.8c-0.4-0.1-8-0.1-8.4,0
	c-0.5,0.2-0.5,0.7-0.4,0.8c0.1,0.1,0,0.6,0,0.6s-0.4,1.2-0.6,2c-0.2,0.8,0.1,0.8,0.3,1c0.1,0.1,0.2,0.4,0.2,1.3
	c0,20.7-6.3,24-8,36.6c-0.8,5.8,0.5,36,0.2,39.1c-0.7,6.6,11.7,6.3,12.5,6.3S517.9,97.8,517.3,91.3z"/>
<path d="M76.2,40.7c0,0.3,0.2,0.5,0.3,0.8c0.6,1,1.4,1.9,1.8,3c0.2,0.5-0.1,1.2-0.2,2.1c0,0.6,0,1.5,0,2.5c0,0,0.2,0,0.4,0
	c0,0.3-0.1,0.6-0.1,1c0.8,0.3,1.6,0.6,2.4,0.9c0-0.1,0.1-0.1,0.1-0.2c0.1,0.4,0.1,0.7,0.3,1.2c-0.9-0.2-1.6-0.5-2.4-0.6
	c-0.5-0.1-1-0.2-1.5-0.2c-0.3,0-0.5,0.4-0.7,0.6c0.1,0.1,0.1,0.1,0.2,0.2c0.3,0,0.6,0,0.7,0c0,1,0,1.9,0,2.8c0.1,0,0.2,0,0.3,0
	c0.2-0.6,0.4-1.2,0.7-2.1c0.1,0,0.5-0.2,0.8-0.4c0.1,0.5,0.2,0.8,0.3,1.2c-1.4,0.8-1.6,1.3-0.8,2.8c0.3,0.6,0.6,1.1,0.8,1.7
	c0.1,0.3,0.1,0.6,0.1,1c-0.1,0-0.2,0.1-0.3,0.1c-0.2-0.2-0.4-0.5-0.6-0.7c-0.1-0.1-0.4-0.1-0.6-0.2c0,0.2,0,0.3,0.1,0.5
	c0.1,0.3,0.2,0.5,0.3,0.8c0.7,0.3,1.8-0.1,2.2,1.1c-0.5-0.1-0.8-0.2-1.3-0.4c0,0.4,0,0.7,0,1c0.6,0.3,1.7-0.3,1.9,0.8
	c0.1,0.4,0.2,0.8,0.2,1.2c-0.1,0.8-0.2,1.6-0.4,2.6c-0.7-0.1-1.4-0.2-2.3-0.2c-0.1,0.7,0.2,0.9,0.8,0.8c0.5-0.1,1-0.1,1,0.6
	c-0.1,0-0.2-0.1-0.3-0.1c-0.2,0.6-0.5,1.1-0.7,1.7c-0.2,0.8-0.4,1.6-0.6,2.5c-0.1,0-0.2,0-0.3,0c-0.1-0.2-0.2-0.4-0.2-0.6
	c-0.5,0.1-0.9,0.2-1.3,0.3c0,0.1,0,0.2,0,0.2c0.4,0,0.7,0,0.9,0c-0.1,0.5-0.1,1.1-0.2,1.6c0.1,0,0.2,0,0.3,0.1
	c0.1-0.4,0.2-0.7,0.3-1.1c0.1,0.1,0.3,0.1,0.4,0.2c-0.2,1.2-0.4,2.4-0.6,3.5c1,0.3,1.8,0.6,2.8,0.9c-0.1,0.7-0.3,1.4-0.4,2.2
	c-0.4,0-0.7,0-1.1,0c0.1,1,0.2,2,0.3,3.1c1.1-1-0.1-2.5,1.4-3.2c-0.1,1.3-0.2,2.5-0.4,3.7c0.3,0,0.6-0.1,1.1-0.1
	c-0.5,0.9-0.9,1.7-1.4,2.5c-0.1,0.3-0.2,0.5-0.3,0.8c-0.3,0.8-0.7,1.6,0.1,2.4c0.7,0.8,0.2,3.1-0.6,4.1c0-0.5,0.2-1,0-1.3
	c-0.1-0.3-0.5-0.5-1-0.9c-0.1,1.3-0.2,2.4-0.3,3.4c-0.1,0-0.2,0-0.3,0c-0.1-0.5-0.2-1-0.4-1.5c-0.1-0.2-0.3-0.4-0.5-0.6
	c0,0-0.4,0.2-0.4,0.2c0,0.2,0.1,0.5,0.2,0.7c0.1,0.3,0.3,0.7,0.2,0.8c-0.5,0.6-0.8,1.4-1.9,1.3c0.1,0.3,0.2,0.5,0.3,0.8
	c-1.5,1.1-2.4,2.5-2.3,4.3c0,0.1,0,0.2-0.1,0.4c-0.3,0.7-0.6,1.3-0.9,2c-0.2,0.3-0.5,0.6-0.9,1c0.2,0.8-0.1,1.3-1.3,1.8
	c-0.3,0.1-0.6,0.5-0.8,0.8c-0.3,0.5-0.7,0.8-1.4,0.4c0,1.4-1.1,1.4-2,1.5c-0.1,0.5-0.3,1-0.4,1.4c0.3,0,0.6,0.1,1.1,0.1
	c-0.2,0.4-0.5,0.7-0.6,1c-0.2,0.4-0.6,1-0.5,1.2c0.3,0.5,0.8,0.3,1.3-0.1c0.2-0.2,0.7-0.3,1-0.3c0.7-0.2,1.4-0.3,2.1-0.4
	c-0.6,0.3-1.2,0.7-1.8,1c-2,0.9-4,2.1-6.1,2.6c-1.3,0.3-2.2,0.8-3.3,1.3c-0.8,0.3-1.8,0.3-2.6,0.4c-0.2,0-0.4,0.3-0.6,0.5
	c1-0.1,1.8-0.1,2.8-0.2c-0.2,0.8-0.4,1.4-0.6,2.1c-0.9-1-1.8-0.9-2.8-0.6c-0.5,0.1-1.1,0-1.7,0c-0.6,0-1.2,0-1.7,0
	c0,0.1,0,0.2,0,0.3c0.8,0.1,1.6,0.2,2.4,0.4c0,0.1,0,0.3-0.1,0.4c-0.6-0.1-1.3-0.2-1.8-0.3c-0.1,0.4-0.1,0.8-0.2,1.2
	c0.3,0.3,0.7,0.7,1.1,1.1c-1.4,0.2-1.7,0-2.7-1.8c-0.6,0.8-1.2,1.5-1.6,2.2c0.6,0.3,1.1,0.5,1.9,0.8c-0.7,0.3-1.2,0.5-1.8,0.7
	c-0.3-0.8-1-0.7-1.7-0.5c-0.5,0.2-0.9,0.3-1.4-0.2c-1.2-1.1-1.9-0.8-2.5,0.9c-0.5-0.2-1.1-0.5-1.6-0.7c0,0.4,0,0.7,0.1,0.9
	c-0.7,0-1.3,0.1-2.1,0.1c0,0-0.2-0.2-0.4-0.4c-1.9,0.9-3.3,1-5.5,0.1c0.4-0.2,0.7-0.5,0.9-0.6c-0.3-0.4-0.4-0.6-0.7-0.8
	c-0.3-0.2-0.6-0.2-0.9-0.3c-0.1,0.3-0.3,0.6-0.2,0.7c0.2,0.2,0.5,0.3,1,0.5c0,0,0,0.2-0.1,0.6c-0.9-0.4-1.7-0.8-2.4-1.2
	c-0.1,0.1-0.2,0.1-0.2,0.2c0.2,0.4,0.4,0.7,0.6,1.2c-1,0.2-1.6-0.2-2-1c-0.4-0.9-1-1.7-2.2-2.3c0.3,0.9,0.5,1.6,0.8,2.3
	c-0.9-1.2-1.8-2.3-3.5-2.8c0,0.7-0.5,0.6-1,0.4c-0.1,0.5-0.2,0.8-0.3,1.4c-0.8-0.4-1.4-0.8-2.1-1.1c-0.4-0.2-0.8-0.3-1.2-0.5
	c-0.1,0.1-0.2,0.2-0.3,0.2c0-0.3,0-0.6-0.1-1c-0.7,0.2-1.3,0.5-1.9,0.6c-0.3-0.4-0.5-0.8-0.9-1.2c0,0,0.1-0.2,0.4-0.4
	c-0.8,0-1.5,0-2.4,0.1c0.2-0.5,0.3-0.8,0.4-1.1c-0.7-1.3-2-0.5-2.9-0.5c-0.6-0.4,0.3-1.6-0.9-1.5c-0.2,1.3-0.5,2.6-0.7,3.9
	c-0.5-0.2-0.9-0.3-1.4-0.4c-0.3-0.1-0.6,0-0.9,0.1c-0.3,0.1-0.6,0.2-0.8,0.3c-0.1-0.3-0.1-0.7-0.2-1c1.8,0.4,2.7-0.1,3.3-1.7
	c-0.3-0.3-0.7-0.5-1.1-0.8c-0.1,0.4-0.2,0.8-0.3,1.1c-0.1,0.1-0.2,0.4-0.3,0.4c-0.1,0-0.4-0.1-0.4-0.2c-0.1-0.2-0.1-0.4,0-0.6
	c0.3-0.7,0.7-1.3,0.9-2c0.2-0.7-0.4-1-1.2-1.1c-0.1,0.5-0.2,1.1-0.3,1.6c-0.3-0.6-0.6-1.2-1-1.8c0.9-0.2,2.3,0.1,2-1.4
	c-0.7-0.3-1.4-0.6-1.9-0.9c-0.5,0.7-0.9,1.4-1.3,2.1c-0.1,0-0.2-0.1-0.3-0.1c0.1-1.3,0.3-2.6,0.5-4c1.5,0.5,1.5,0.5,1.8-0.3
	c-0.5-0.2-1.6,0.2-1.5-0.8c0-0.2,0.8-0.4,1.4-0.7c-0.3-0.4-0.7-0.7-1.4-0.3c-0.6,0.4-1.1,0.8-1.7,1.1c-0.3,0.2-0.7,0.2-1.2,0.4
	c0.7-1.4,3-1.2,3-3.1c-0.6,0.2-0.9,0.5-1.3,0.6c-0.3,0.1-0.7,0-1,0c-0.8-0.1-1.6-0.1-2.4-0.2c0.1-0.2,0.1-0.5,0.2-0.8
	c-0.5,0-1,0-1.6-0.1c0.3-1,0.8-1.2,1.7-0.6c0.1-0.4,0.2-0.8,0.3-1.1c0.1,0,0.2,0,0.2,0c0.1,0.4,0.1,0.7,0.2,1.1c0.1,0.5,0.4,1,1,0.8
	c1.2-0.3,2.3-0.8,3.4-1.2c0.8-0.3,0.9-1,0.6-1.7c-0.7,0.1-1.5-0.4-2.1,0.7c-0.2,0.3-1.1,0.5-1.6,0.5c-0.2,0-0.5-0.6-0.7-0.9
	c-0.2-0.3-0.3-0.6-0.6-1.1c-0.2,0.7-0.1,1.4-1,0.9c-0.2-0.1-0.6,0.1-0.9,0.2c-0.4-1.4-2,0.2-2.6-0.9c1.6-0.1,3.2-0.2,4.6-0.4
	C3.6,98.8,4,98.5,4.5,98c0-0.7-0.7-0.7-1.4-0.8c-0.7,0-1.4-0.1-2.3-0.2c-0.7,0.5-1.1,0.6-1.7,0c0.7-0.3,1.4-0.5,2.2-0.8
	c0-0.1,0-0.2-0.1-0.3c0.3,0.1,0.6,0.2,1,0.3c-0.7-0.8,0-1.1,0.4-1.6c0.5-0.5,0.5-0.5,0.1-1c-0.6,0.6-1.3,1.2-1.9,1.7
	c-0.1,0-0.1-0.1-0.2-0.1c0.3-1,0.6-2,0.9-3c-0.2,0-0.4,0-0.7,0C1,91.2,3.1,92,2.9,90.5c-0.3,0-0.6,0-1,0.1c0-0.3,0-0.6-0.1-0.9
	c0.3,0,0.6-0.1,1-0.1c-0.2-0.2-0.3-0.4-0.5-0.6c0.3-0.2,0.6-0.5,0.9-0.7c0.6,0.3,1.1,0.8,1.8,0.2c-1-0.6-2-1.2-3.1-1.7
	c-0.1-1,1.8-1.3,1.2-2.6c-0.2,0-0.5,0-0.7,0.1c0-0.1-0.1-0.1-0.1-0.2c0.4-0.3,0.9-0.6,1.4-1c-0.6-1.1,0.2-1.8,0.8-2.7
	c-0.6,0.3-1.1,0.6-1.8,1c0.2-0.9,0.3-1.5,0.5-2.3c0.3,0,0.8,0,1.2-0.1c0.2,0,0.5-0.2,0.6-0.4c0.1-0.1-0.1-0.4-0.2-0.4
	c-0.2-0.1-0.5-0.1-0.7,0c-0.3,0.1-0.5,0.2-0.7,0.3c-0.4-0.8-0.8-1.5-1.2-2.2c-0.1,0-0.2,0.1-0.3,0.1c0,0.2,0,0.5,0,0.9
	c-0.5-0.2-1-0.3-1.5-0.5c0.1,1.5,0.2,2.9,0.3,4.4c2,0.6,0.3,2.3,1.1,3.3c-0.9,0.6-2.4,0.5-2.4,1.9c-0.2-0.6-0.4-1.2-0.5-1.8
	c0-0.2,0.2-0.5,0.4-0.7c0.1-0.1,0.5,0.1,0.7,0.2c0.2,0.1,0.3,0.3,0.5,0.4C1,83.9,1,82.6,0.4,82.1C-0.2,81.8,0,81.4,0,81
	c0-0.5,0.2-1.2-0.7-1.2c0.2-1.6,0.4-3.2,0.6-4.8c0.1-0.6,0.3-0.8,1-0.8c0.9,0,1.8-0.1,2.9-0.2c-0.2,0.5-0.4,1-0.6,1.6
	c0.3,0,0.6,0.1,1,0.1c0,0.4,0.1,0.7,0.1,1.2c0.3,0,0.6,0.1,1.1,0.1c0.1-1.1,0.1-2.1,0.2-3.2c-0.4,0-0.9,0-1.4-0.1c0-0.1,0-0.1,0-0.2
	c0.3-0.1,0.5-0.2,0.8-0.3c0.8-0.3,1.5-0.7,1-1.7c-0.3-0.6,0.3-1.4-0.6-1.9c-0.1,0,0.1-0.5,0.2-0.7c0.1-0.4,0.3-0.9,0.5-1.4
	c-0.4,0.1-0.6,0.1-1,0.1c0-0.2,0-0.4,0.1-0.5c1.2-1.7,2.4-3.4,3.6-5.1C9,61.8,9,61.5,9,61.3c-0.3-0.6-0.2-1.1,0.4-1.5
	c0.7-0.5,1-1,0.3-1.7c-0.1-0.1-0.2-0.3-0.2-0.5c0-0.2,0.1-0.4,0.2-0.7c0.2,0.1,0.4,0.2,0.8,0.4c0-0.7,0-1.4-0.1-2.2
	c0.3,0.3,0.6,0.5,0.9,0.7c0.1,0,0.1-0.1,0.2-0.1c-0.2-0.3-0.4-0.5-0.7-1c1.1-0.1,2-0.2,3-0.3c-0.2-0.9-0.6-1-2.3-0.9
	c-0.3-0.4-0.5-0.9-0.8-1.1c-1.1-0.6-1.8-1.4-1-2.7c0.8,0.3,0.9,1,1.1,1.7c0.1,0.4,0.4,0.7,0.7,1c0,0,0.3-0.1,0.3-0.1
	c0-0.2-0.1-0.3-0.2-0.6c0.9,0,1.7-0.1,2.5-0.1c0.3-0.6,0.6-1.3,1-2c0.8,0.7,1.9,0.6,2.5-0.2c-0.4-0.1-0.7-0.2-1-0.3
	c0-0.1,0-0.2,0-0.3c0.6,0,1.3,0,1.9,0c0.1,0,0.2,0.4,0.3,0.8c1.2-0.2,2.4-0.4,3.8-0.6c0.1,0.9,1,0.5,1.5,0.6
	c0.9,0.2,1.8,0.2,2.7,0.4c0.3-0.5,0.9-1,0.9-1.4c0-0.5-0.6-0.9-1.2-1.6c1.4,0,2.6,0,3.7,0.1c0.2,0,0.4,0.2,0.4,0.3
	c0.3,0.8,0.5,1.6,0.7,2.4c-0.1,0-0.2,0.1-0.2,0.1c-0.2-0.2-0.3-0.3-0.5-0.5c-0.3,0.3-0.5,0.7-0.9,1.1c0.4,0,0.7-0.1,1.1-0.1
	c-0.1,0.6-0.1,0.6-0.6,0.6c-0.4,0-0.8,0-1.2,0c0,0.1,0.1,0.2,0.1,0.3c-0.3,0.2-0.6,0.5-0.9,0.6c-0.6,0.2-0.8,0.3-0.7,0.9
	c0.1,0.7,0.1,1.4,0.2,2.3c0.4-0.3,0.7-0.4,1.2-0.7c0,0.4,0,0.8-0.1,0.8c-0.8,0.4-0.3,0.8-0.1,1.3c1.5-0.7,2.5,0.5,4,0.7
	c-1,0.9-1.5-0.4-2.5-0.1c-0.1,0.9-0.2,1.9-0.3,3c0.1,0,0.2,0,0.3,0.1c0.2-0.5,0.4-1,0.5-1.4c0.1-0.8,0.5-1,1.3-0.8
	c0.5,0.1,1.1,0.3,1.6,0.3c0.7,0.1,1.5,0.1,2.3,0c0.7-0.2,1.2,0,1.5,0.6c0.3,0.5,0.6,0.9,1.1,0.1c0.1-0.2,0.5-0.2,0.9-0.3
	c-0.1,0.4-0.2,0.7-0.3,0.9c1.5,0.1,1.2,2.4,3,2.1c-0.1,0.9-0.1,1.6-0.2,2.6c0.6-0.6,1-1.1,1.4-1.5c0.4,0.8,0.7,1.5,1,2.1
	c0.9,0.4,2.2-0.6,2.9,0.6c0.3-0.2,0.6-0.5,1.1-0.9c-1.7,0.2-1.2-1.2-2-1.7c1.5-0.6,0.6,1.1,1.5,1c-0.1-0.3-0.1-0.5-0.2-0.8
	c0.6-0.1,1.2-0.3,1.4,0.6c0,0.2,0.3,0.4,0.4,0.4c0.2,0,0.5-0.2,0.7-0.3c0.3-0.3,0.6-0.7,1.1-1.2c-0.3-0.3-0.7-0.6-1.1-0.9
	c0.1-0.2,0.3-0.4,0.5-0.5c0.5,0.3,1,0.6,1.7,0.9c0,0.2-0.1,0.5-0.1,0.9c0.8-0.3,0.8-0.3,0.7-1.4c0.6-0.1,1.1-0.1,1.5-0.2
	c0.1-0.8,0.2-1.5,0.3-2.3c1.3,0.5,1.4,1.1,0.4,2.1c1.5-0.3,1.9-1.4,2.5-2.6c0.4,0.5,0.7,1,1.1,1.4c0.1-0.1,0.2-0.1,0.3-0.2
	c0.1-1.3-0.6-2.6,0.2-3.8c0.1,0,0.3-0.1,0.4-0.1c0.2,0.5,0.3,1,0.5,1.5c0.1,0.3,0.4,0.6,0.6,1c0.1,0,0.3-0.1,0.4-0.1
	c-0.1-0.9-0.2-1.8-0.3-2.6c0.9-0.6,1.9-1.3,3-2.1c-0.7-1-0.3-2,0.2-3.1c0.2-0.5,0.1-1.1,0-1.6c-0.2-0.9,0.6-0.7,1-0.9
	c0-0.6-0.1-1.3,0.1-1.7c0.2-0.4,0.9-0.6,1.4-0.8c-0.3-0.2-0.7-0.3-1.1-0.5c0-0.1,0-0.2,0.1-0.3c0.4-0.1,0.7-0.1,1.2-0.2
	c-0.1-0.2-0.1-0.4-0.2-0.8c0.5,0.3,0.9,0.5,1.3,0.7c0.9-1.1-0.5-2.8,1.4-3.6c-1.1,1.3,0.8,1.8,0.8,2.8c0-0.3,0.1-0.6,0.1-0.9
	c-0.1-0.7-0.2-1.4-0.3-2.1c-0.3-1.7-0.2-1.8,1.8-2.1c-0.5-0.4-0.8-0.8-1.4-1.3 M6.9,83.8c-1-0.2-1-0.3-0.8-1.1
	c0.2-0.6,0.4-1.1,0.6-1.7c-0.1-0.1-0.3-0.2-0.4-0.4c0.2,1.3-0.8,0.7-1,0.9c-0.5,1.2-0.9,2.1-1.3,3.2c0.2,0.2,0.5,0.6,0.9,1
	C4.5,86,4.2,86.1,4,86.3c0.2,0.3,0.3,0.5,0.4,0.7c0.9,0.1,1.8,0.1,2.5,0.2c0.3-0.4,0.6-0.7,1-1.2C7,86,6.3,86.1,5.2,86.2
	c0.3-0.8,0.6-1.4,0.9-2.1c0.1,0,0.2,0,0.3,0.1c0,0.2,0.1,0.4,0.1,0.6c0.1,0,0.2,0,0.3,0C6.8,84.5,6.8,84.1,6.9,83.8z M7.3,95.1
	C7.2,95,7.2,95,7.1,94.9c-0.6,0.5-1.3,1-1.9,1.6C6,97.9,6,98.2,5,98.9c0.4,0.7,1,0.5,1.5,0.1c0.4-0.2,0.6-0.6,0.9-0.8
	c0-0.1-0.1-0.1-0.1-0.2c-0.2,0.1-0.5,0.1-0.9,0.2c0.1-0.6,0.2-1.1,0.4-1.7C6.9,96.1,7.1,95.6,7.3,95.1z M4.2,90.4
	c-0.1,0-0.2,0.1-0.3,0.1c0.1,0.2,0.2,0.6,0.3,0.6c0.5,0,1-0.1,1.3-0.3c0.4-0.3,0.7-0.7,1.1-1.1c0.2-0.2,0.5-0.4,0.8-0.6
	c-0.7,0-1.2-0.8-1.8-0.1c-0.4,0.5-0.8,1.1-1.2,1.6C4.4,90.6,4.3,90.5,4.2,90.4z M31.7,118.4c-0.6,0-1.1,0.1-1.5,0.1
	c0.1-0.6,0.1-1.1,0.2-1.8c-0.9,0.3-1.3,0.8-1.1,1.4c0.2,0.9,1.3,1.5,2.8,1.4C31.9,119.2,31.8,118.8,31.7,118.4z M72.1,37.8
	c0.4-0.1,0.9-0.2,1.4-0.3 M64,107c0.2,0.7,0.5,1.4,0.8,2.1c-0.7,0.3-1.4,0.6-2.1,0.8c0,0.1,0,0.2,0,0.3c0.7,0,1.4-0.1,2-0.1
	C65.8,108.8,65.1,107.9,64,107z M37.8,62.3c0.1-1-0.5-1.5-1.3-2c-0.9-0.6-1.4-0.7-1.9-0.4C35.6,60.6,36.7,61.4,37.8,62.3z
	 M38.8,64.5c1-0.9,1-2.6-0.1-4C38.7,62,38.7,63.3,38.8,64.5z M13.5,71.6c0.7-0.3,1.3-0.6,1.9-0.9c0-0.1-0.1-0.2-0.1-0.3
	c-0.9,0.3-1.8,0.6-2.7,0.9c-0.1,0.1-0.1,0.5-0.1,0.6c0.7,0.2,1.2,0.3,1.8,0.4c0,0,0.1-0.1,0.1-0.1C14.1,72.1,13.9,71.9,13.5,71.6z
	 M78.1,89.3c0.7-0.1,1.3-0.7,1.6,0.3c1-1,0.9-1.6,0.1-1.9C79.1,88.3,78.6,88.8,78.1,89.3z M74.8,42.5c0.6,1,1.1,1.9,1.7,2.8
	c0.2-0.2,0.4-0.4,0.6-0.6C76.4,44,76.3,42.8,74.8,42.5z M5.2,95.1c0.1,0,0.3,0,0.4,0c0.2-0.8,0.3-1.7,0.5-2.6
	c-0.3-0.2-0.6-0.4-0.9-0.6C5.2,93,5.2,94,5.2,95.1z M22.7,68.9c-0.1,0.4-0.1,0.8-0.2,1.2c0.1,0,0.1-0.1,0.2-0.1
	c0.4,0.6,0.8,1.2,1.2,1.9c0.1-0.4,0-0.8-0.1-1.2c0-0.4,0-0.7-0.1-1C23.4,69.5,23.1,69.2,22.7,68.9z M7.3,76.4
	c0.2-0.8,0.3-1.4,0.4-2.3c-0.7,0.7-1.2,1.2-1.9,1.8C6.5,76.1,6.9,76.3,7.3,76.4z M40.6,68.8c1.2-0.5,1.3-1.4,0.4-2.4
	C40.8,67.1,40.7,67.9,40.6,68.8z M14.9,79.6c-0.7,0.1-1.4,0-1.5,0.9c0,0.1,0.4,0.4,0.6,0.4C14.7,80.9,15,80.4,14.9,79.6z M13.8,76.3
	c0.4,0.3,2.5,0,2.6-0.4c-0.1-0.2-0.2-0.4-0.2-0.3C15.3,75.9,14.6,76.1,13.8,76.3z M21.4,111.4c-0.1,0.4-0.4,0.7-0.3,0.8
	c0.3,0.5,0.7,0.9,1.1,1.3c0.1-0.1,0.2-0.1,0.3-0.2C22.2,112.8,21.8,112.2,21.4,111.4z M28.4,117c-0.3,0-0.7,0.1-0.8,0
	c-0.7-0.6-0.9-0.5-1.2,0.4C27.4,117.6,28,117.5,28.4,117z M11.1,59.7c0.1,0.1,0.2,0.2,0.3,0.3c0.4-0.4,0.8-0.8,1.3-1.4
	c0.2,0.2,0.3,0.4,0.5,0.6c0.1-0.1,0.1-0.1,0.2-0.2c0-0.3,0-0.5,0-0.8c-0.1-0.1-0.2-0.1-0.2-0.2C12.4,58.6,11.8,59.2,11.1,59.7z
	 M62.4,110.6c-0.9,0.2-1.6,0.3-2.3,0.5C60.9,111.6,61.9,111.4,62.4,110.6z M58,61.8c0.1-0.1,0.2-0.2,0.3-0.3
	c-0.2-0.4-0.3-0.7-0.5-1.2c-0.3,0.3-0.6,0.6-0.6,0.7C57.4,61.3,57.7,61.5,58,61.8z M26.1,115.1c-0.4-0.8-0.8-1.3-1.1-1.8
	C24.6,114.1,24.9,114.6,26.1,115.1z M21.4,58.9c-0.2,0-0.3,0-0.5,0c0.1,0.6,0.1,1.3,0.2,1.9c0.1,0,0.2,0,0.3,0
	C21.4,60.1,21.4,59.5,21.4,58.9z"/>
<g>
	<path d="M19.7,4c4.1,1.5,8.2,3.2,12.5,4.4c1.7,0.5,3.7,0.3,5.6,0.2c3.6,0,7.2-0.4,10.8-0.2c7.7,0.5,15.3,1.7,22.7,3.6
		c0.5,0.1,1.1,0.1,1.5-0.2c3.8-2.5,7.6-5,11.4-7.5c2.6-1.8,5.3-3.4,8.4-4.2c1-0.2,2.1-0.5,2.3,0.8c0.4,2.1,1.4,4.2,0.4,6.3
		C95,7.7,94.5,8,94.2,8.4c-0.1-0.5-0.4-1-0.4-1.4c-0.1-1.2,0-2.4,0-3.6c-0.2,0-0.3-0.1-0.5-0.1c-0.7,1.1-1.3,2.3-2,3.4
		c-0.5,0.8-1.1,1.7-1.9,2.3c-5.6,3.9-11.2,7.7-16.8,11.4c-1.3,0.9-2,2-2.4,3.4c-0.8,2.5-1.7,4.9-2.7,7.3c-1,2.3-2.9,3.4-5.3,3.6
		c-1,0.1-2.1,0.1-3.2,0.1c-4.8-0.4-9.4-1.9-13.9-3.5c-3.4-1.2-5.9-3.3-7.6-6.3c-1.4-2.5-2.6-5.1-3.9-7.7c-0.7-1.3-1.4-2.5-3.3-2.5
		c-0.1,0.6-0.2,1.2-0.3,1.8c-0.6,2-1.2,4-2,6c-0.7,1.8-2.3,2.8-4.2,2.6c-5.4-0.5-10.4-2.3-12.9-7.4C8.5,13.1,7,8.2,5.2,3.5
		c-1.8-4.6,9.3-1.2,10.9-0.8c1.1,0.3-0.3-0.1,0.8,0.2 M37.7,11.7c-0.5,0.1-1.1,0.6-1.2,1.1c-0.1,0.5,0.2,1.3,0.5,1.6
		c3.2,2.5,4.3,6,4.6,9.8c0.2,1.7,0.9,2.8,2.3,3.6c5.3,2.9,10.9,4.8,17.1,4.4c2.8-0.2,4.1-1,4.8-3.7c0.6-2.6,0.9-5.3,0.9-8
		c-0.1-3.8-2.4-6.1-6-6.9c-3.8-0.9-7.7-1.5-11.6-2.1c-1.6-0.3-3.2-0.3-5.4-0.4C42,11.1,39.8,11.3,37.7,11.7z M16.3,20
		c2,2,4.4,2.9,7.2,2.8c1.2,0,2.1-0.5,2.2-1.8c0.3-2.5,0.8-5,0.7-7.5c0-1.3-0.9-2.8-1.8-3.7c-2.5-2.4-5.6-3.8-9-4.4
		c-1.7-0.3-3.6,0.4-5.5,0.7C11.3,11.3,12.6,16.2,16.3,20z"/>
</g>
</svg>
