<?xml version="1.0" encoding="UTF-8" standalone="no"?>
<svg width="1148px" height="287px" viewBox="0 0 1148 287" version="1.1" xmlns="http://www.w3.org/2000/svg" xmlns:xlink="http://www.w3.org/1999/xlink">
    <!-- Generator: Sketch 3.6.1 (26313) - http://www.bohemiancoding.com/sketch -->
    <title>Black Logo</title>
    <desc>Created with Sketch.</desc>
    <defs></defs>
    <g id="Page-1" stroke="none" stroke-width="1" fill="none" fill-rule="evenodd">
        <g id="Desktop-Landscape" transform="translate(-66.000000, -179.000000)">
            <g id="Black-Logo" transform="translate(66.000000, 174.000000)">
                <g id="noun_10962_cc" transform="translate(656.103112, 153.450938) rotate(-240.000000) translate(-656.103112, -153.450938) translate(498.603112, 119.450938)" fill="#FF3366">
                    <path d="M174.098096,-48.3368057 C171.953202,-48.3368057 170.205379,-94.0479168 170.205379,-122.578966 L166.649465,-122.578966 C166.649465,-94.0585087 164.915823,-48.3368057 162.753203,-48.3368057 C160.590583,-48.3368057 158.846305,-94.0479168 158.846305,-122.578966 L155.290391,-122.578966 C155.290391,-94.0585087 153.535478,-48.3368057 151.397674,-48.3368057 C149.224418,-48.3368057 147.501413,-94.0479168 147.501413,-122.578966 L143.934862,-122.578966 C143.934862,-94.0585087 142.201221,-48.3368057 140.042146,-48.3368057 C137.893707,-48.3368057 136.145884,-94.0479168 136.145884,-122.578966 L134.344882,-122.578966 C128.512898,-104.540959 126.467272,-59.2994226 126.467272,-47.6801079 C126.467272,-28.8335866 140.659024,-16.0526936 140.659024,-16.0526936 C146.12939,-12.861001 150.305728,-5.09360741 149.954746,1.22269581 C149.954746,1.22269581 141.031279,159.292685 141.031279,168.288739 C141.031279,180.448241 148.210469,190.281055 157.066575,190.281055 C165.922682,190.281055 173.101872,180.451772 173.101872,168.288739 C173.101872,159.310339 164.189041,1.22269581 164.189041,1.22269581 C163.827422,-5.09360741 168.003761,-12.861001 173.474127,-16.0632855 C173.474127,-16.0632855 187.665878,-28.8477092 187.665878,-47.6801079 C187.665878,-59.2994226 185.616707,-104.537429 179.784723,-122.578966 L177.994357,-122.578966 C177.994357,-94.0585087 176.25008,-48.3368057 174.098096,-48.3368057 Z" id="Shape" transform="translate(157.066575, 33.851045) rotate(-91.000000) translate(-157.066575, -33.851045) "></path>
                </g>
                <path d="M11.2402012,116.43166 C16.6271026,116.43166 21.5242857,112.024038 21.5242857,106.147208 C21.5242857,100.270377 16.6271026,95.8627547 11.2402012,95.8627547 C5.8532998,95.8627547 0.9561167,100.270377 0.9561167,106.147208 C0.9561167,112.024038 5.8532998,116.43166 11.2402012,116.43166 L11.2402012,116.43166 Z M3.6495674,226.377358 L18.830835,226.377358 L18.830835,145.815811 L3.6495674,145.815811 L3.6495674,226.377358 Z M44.5410463,278.289358 L59.4774547,278.289358 L59.4774547,212.664755 C65.1092153,222.70434 75.1484406,228.336302 88.6156942,228.336302 C111.142736,228.336302 128.282877,210.216075 128.282877,186.219019 C128.282877,161.977094 111.142736,143.856868 88.6156942,143.856868 C75.1484406,143.856868 65.1092153,149.48883 59.4774547,159.528415 L59.4774547,145.815811 L44.5410463,145.815811 L44.5410463,278.289358 Z M85.6773843,215.113434 C69.7615392,215.113434 58.9877364,203.114906 58.9877364,186.219019 C58.9877364,169.078264 69.7615392,157.079736 85.6773843,157.079736 C101.838089,157.079736 112.856751,169.078264 112.856751,186.219019 C112.856751,203.114906 101.838089,215.113434 85.6773843,215.113434 L85.6773843,215.113434 Z M177.744427,228.336302 C189.987384,228.336302 200.02661,223.194075 205.413511,213.399358 L205.413511,226.377358 L220.34992,226.377358 L220.34992,145.815811 L205.413511,145.815811 L205.413511,190.626642 C205.413511,206.053321 195.864004,214.868566 181.417314,214.868566 C168.684638,214.868566 161.828581,208.257132 161.828581,193.809925 L161.828581,145.815811 L146.892173,145.815811 L146.892173,195.279132 C146.892173,217.317245 159.37999,228.336302 177.744427,228.336302 L177.744427,228.336302 Z M249.733018,158.548943 L249.733018,205.318717 C249.733018,221.235132 258.303089,228.336302 271.525483,228.336302 C278.871258,228.336302 284.747877,225.887623 288.420765,222.459472 L282.054427,211.930151 C279.850694,213.644226 276.912384,215.358302 273.239497,215.358302 C267.362877,215.358302 264.669427,211.930151 264.669427,204.584113 L264.669427,158.548943 L284.747877,158.548943 L284.747877,145.815811 L264.669427,145.815811 L264.669427,95.6178868 L249.733018,95.6178868 L249.733018,145.815811 L239.204074,145.815811 L239.204074,158.548943 L249.733018,158.548943 Z M310.213229,158.548943 L310.213229,205.318717 C310.213229,221.235132 318.7833,228.336302 332.005694,228.336302 C339.351469,228.336302 345.228089,225.887623 348.900976,222.459472 L342.534638,211.930151 C340.330905,213.644226 337.392596,215.358302 333.719708,215.358302 C327.843089,215.358302 325.149638,211.930151 325.149638,204.584113 L325.149638,158.548943 L345.228089,158.548943 L345.228089,145.815811 L325.149638,145.815811 L325.149638,95.6178868 L310.213229,95.6178868 L310.213229,145.815811 L299.684286,145.815811 L299.684286,158.548943 L310.213229,158.548943 Z M366.285976,226.377358 L381.222384,226.377358 L381.222384,181.811396 C381.222384,166.384717 390.771891,157.324604 405.218581,157.324604 C417.951258,157.324604 424.807314,164.180906 424.807314,178.383245 L424.807314,226.377358 L439.743722,226.377358 L439.743722,176.914038 C439.743722,155.120792 426.521328,143.856868 408.891469,143.856868 C396.648511,143.856868 387.099004,148.999094 381.222384,158.793811 L381.222384,52.5211321 L366.285976,52.5211321 L366.285976,226.377358 Z M474.024004,191.606113 L541.605131,191.606113 C542.094849,163.936038 526.423863,143.856868 500.713652,143.856868 C477.207173,143.856868 458.353018,161.977094 458.353018,186.219019 C458.353018,210.216075 476.227736,228.336302 502.427666,228.336302 C518.343511,228.336302 529.362173,222.949208 536.707948,214.133962 L527.4033,205.073849 C522.016398,211.195547 514.670624,215.60317 502.182807,215.60317 C486.511821,215.60317 476.227736,206.543057 474.024004,191.606113 L474.024004,191.606113 Z M474.513722,179.117849 C476.962314,165.405245 486.75668,156.59 500.713652,156.59 C515.89492,156.59 523.975272,166.384717 525.934145,179.117849 L474.513722,179.117849 Z M774.466187,228.336302 C787.688581,228.336302 797.727807,222.70434 803.604427,212.664755 L803.604427,226.377358 L818.540835,226.377358 L818.540835,52.5211321 L803.604427,52.5211321 L803.604427,159.528415 C797.727807,149.48883 787.688581,143.856868 774.466187,143.856868 C751.939145,143.856868 734.554145,161.977094 734.554145,186.219019 C734.554145,210.216075 751.939145,228.336302 774.466187,228.336302 L774.466187,228.336302 Z M777.159638,215.113434 C760.998934,215.113434 750.225131,203.114906 750.225131,186.219019 C750.225131,169.078264 760.998934,157.079736 777.159638,157.079736 C793.320342,157.079736 804.094145,169.078264 804.094145,186.219019 C804.094145,203.114906 793.320342,215.113434 777.159638,215.113434 L777.159638,215.113434 Z M881.714497,228.336302 C905.465835,228.336302 924.31999,210.216075 924.31999,186.219019 C924.31999,161.977094 905.465835,143.856868 881.714497,143.856868 C857.7183,143.856868 838.864145,161.977094 838.864145,186.219019 C838.864145,210.216075 857.7183,228.336302 881.714497,228.336302 L881.714497,228.336302 Z M881.714497,215.60317 C865.553793,215.60317 854.535131,202.870038 854.535131,186.219019 C854.535131,169.323132 865.553793,156.59 881.714497,156.59 C897.875201,156.59 908.893863,169.323132 908.893863,186.219019 C908.893863,202.870038 897.875201,215.60317 881.714497,215.60317 L881.714497,215.60317 Z M968.639497,229.070906 L969.618934,229.070906 L996.553441,172.261547 L1022.99823,229.070906 L1023.97767,229.070906 L1058.74767,145.815811 L1043.5664,145.815811 L1022.99823,197.727811 L997.043159,143.367132 L996.308581,143.367132 L971.088089,197.727811 L950.764779,145.815811 L934.114356,145.815811 L968.639497,229.070906 Z M1073.68407,226.377358 L1088.62048,226.377358 L1088.62048,181.811396 C1088.62048,166.384717 1098.16999,157.324604 1112.61668,157.324604 C1125.34936,157.324604 1132.20541,164.180906 1132.20541,178.383245 L1132.20541,226.377358 L1147.14182,226.377358 L1147.14182,176.914038 C1147.14182,155.120792 1133.91943,143.856868 1116.28957,143.856868 C1104.04661,143.856868 1093.76253,148.999094 1088.62048,158.793811 L1088.62048,145.815811 L1073.68407,145.815811 L1073.68407,226.377358 Z" id="iputthe----down" fill="#2B2828"></path>
            </g>
        </g>
    </g>
</svg>